fira-sans_bold.sfdir

StartChar: quotesingle
Encoding: 39 39 992
Width: 238
Flags: MW
HStem: 414 279<67 171 67 67> 673 20G<48 191 191 191>
VStem: 57.5 123.5
LayerCount: 2
Fore
SplineSet
48 693 m 1x60
 191 693 l 1
 171 414 l 1
 67 414 l 1xa0
 48 693 l 1x60
EndSplineSet
EndChar

StartChar: parenleft
Encoding: 40 40 1007
Width: 325
Flags: MW
HStem: -159 1018<212 212>
VStem: 18 160<257.5 442.5 257.5 469.5>
LayerCount: 2
Fore
SplineSet
313 791 m 1
 220 658 178 535 178 350 c 0
 178 165 220 42 313 -91 c 1
 212 -159 l 1
 111 -20 18 111 18 350 c 0
 18 589 111 720 212 859 c 1
 313 791 l 1
EndSplineSet
Substitution2: "'case' Case-Sensitive Forms lookup 25 subtable" parenleft.case
Substitution2: "'dnom' Denominators lookup 14 subtable" parenleft.dnom
Substitution2: "'numr' Numerators lookup 13 subtable" parenleft.numr
Substitution2: "'sups' Superscript lookup 12 subtable" parenleftsuperior
Substitution2: "'subs' Subscript lookup 11 subtable" uni208D
AlternateSubs2: "'aalt' Access All Alternates lookup 1 subtable" uni208D parenleftsuperior parenleft.numr parenleft.dnom parenleft.case
EndChar

StartChar: parenright
Encoding: 41 41 1008
Width: 325
Flags: MW
HStem: -159 1018<113 113>
VStem: 147 159<257.5 442.5>
LayerCount: 2
Fore
SplineSet
113 859 m 1
 213 720 306 589 306 350 c 0
 306 111 213 -20 113 -159 c 1
 12 -91 l 1
 104 42 147 165 147 350 c 0
 147 535 104 658 12 791 c 1
 113 859 l 1
EndSplineSet
Substitution2: "'case' Case-Sensitive Forms lookup 25 subtable" parenright.case
Substitution2: "'dnom' Denominators lookup 14 subtable" parenright.dnom
Substitution2: "'numr' Numerators lookup 13 subtable" parenright.numr
Substitution2: "'sups' Superscript lookup 12 subtable" parenrightsuperior
Substitution2: "'subs' Subscript lookup 11 subtable" uni208E
AlternateSubs2: "'aalt' Access All Alternates lookup 1 subtable" uni208E parenrightsuperior parenright.numr parenright.dnom parenright.case
EndChar
StartChar: plus
Encoding: 43 43 2296
Width: 531
GlyphClass: 2
Flags: MW
HStem: 271 122<48 200 48 200 331 482> 529 20G<200 331 331 331>
VStem: 200 131<115 271 115 271 393 549>
LayerCount: 2
Back
Fore
SplineSet
331 549 m 1
 331 393 l 1
 482 393 l 1
 482 271 l 1
 331 271 l 1
 331 115 l 1
 200 115 l 1
 200 271 l 1
 48 271 l 1
 48 393 l 1
 200 393 l 1
 200 549 l 1
 331 549 l 1
EndSplineSet
Substitution2: "'onum' Oldstyle Figures lookup 25 subtable" plus.osf
Substitution2: "'tnum' Tabular Numbers lookup 24 subtable" plus.tf
Substitution2: "'dnom' Denominators lookup 16 subtable" plus.dnom
Substitution2: "'numr' Numerators lookup 15 subtable" plus.numr
Substitution2: "'sups' Superscript lookup 14 subtable" uni207A
Substitution2: "'subs' Subscript lookup 13 subtable" uni208A
AlternateSubs2: "'aalt' Access All Alternates lookup 1 subtable" uni208A uni207A plus.numr plus.dnom plus.tf plus.osf
EndChar

StartChar: hyphen
Encoding: 45 45 1025
Width: 407
Flags: MW
HStem: 252 122<44 363 44 363>
VStem: 44 319<252 374 252 374>
LayerCount: 2
Fore
SplineSet
44 374 m 1
 363 374 l 1
 363 252 l 1
 44 252 l 1
 44 374 l 1
EndSplineSet
Substitution2: "'case' Case-Sensitive Forms lookup 25 subtable" hyphen.case
Substitution2: "'aalt' Access All Alternates lookup 0 subtable" hyphen.case
EndChar
StartChar: slash
Encoding: 47 47 2132
Width: 520
Flags: MW
HStem: -112 928<212 309>
VStem: 73 374
LayerCount: 2
Back
Fore
SplineSet
309 816 m 1
 447 785 l 1
 212 -112 l 1
 73 -80 l 1
 309 816 l 1
EndSplineSet
Substitution2: "'frac' Diagonal Fractions lookup 17 subtable" fraction
Substitution2: "'aalt' Access All Alternates lookup 0 subtable" fraction
EndChar

StartChar: zero
Encoding: 48 48 877
Width: 585
Flags: MW
HStem: -17 117<260 325.5 260 376> 573 117<260 325.5>
VStem: 38 162<247.5 426.5 247.5 450.5> 386 162<245.5 429>
LayerCount: 2
Fore
SplineSet
293 690 m 0
 459 690 548 564 548 337 c 0
 548 111 459 -17 293 -17 c 0
 127 -17 38 111 38 337 c 0
 38 564 127 690 293 690 c 0
293 573 m 0
 227 573 200 516 200 337 c 0
 200 158 227 100 293 100 c 0
 358 100 386 154 386 337 c 0
 386 521 358 573 293 573 c 0
EndSplineSet
Substitution2: "'zero' Slashed Zero lookup 28 subtable" zero.zero
Substitution2: "'onum' Oldstyle Figures lookup 22 subtable" zero.osf
Substitution2: "'tnum' Tabular Numbers lookup 21 subtable" zero.tf
Substitution2: "'frac' Diagonal Fractions lookup 16 subtable" zero.numr
Substitution2: "'dnom' Denominators lookup 14 subtable" zero.dnom
Substitution2: "'numr' Numerators lookup 13 subtable" zero.numr
Substitution2: "'sups' Superscript lookup 12 subtable" zerosuperior
Substitution2: "'subs' Subscript lookup 11 subtable" zeroinferior
AlternateSubs2: "'aalt' Access All Alternates lookup 1 subtable" zeroinferior zerosuperior zero.numr zero.dnom zero.tf zero.osf zero.zero
EndChar

StartChar: one
Encoding: 49 49 878
Width: 464
Flags: MW
HStem: 0 21G<227 382 227 227> 518 20G<13 13>
VStem: 227 155<0 522 522 522>
LayerCount: 2
Fore
SplineSet
382 0 m 1
 227 0 l 1
 227 522 l 1
 82 433 l 1
 13 538 l 1
 241 676 l 1
 382 676 l 1
 382 0 l 1
EndSplineSet
Substitution2: "'onum' Oldstyle Figures lookup 22 subtable" one.osf
Substitution2: "'tnum' Tabular Numbers lookup 21 subtable" one.tf
Substitution2: "'frac' Diagonal Fractions lookup 16 subtable" one.numr
Substitution2: "'dnom' Denominators lookup 14 subtable" one.dnom
Substitution2: "'numr' Numerators lookup 13 subtable" one.numr
Substitution2: "'sups' Superscript lookup 12 subtable" onesuperior
Substitution2: "'subs' Subscript lookup 11 subtable" oneinferior
AlternateSubs2: "'aalt' Access All Alternates lookup 1 subtable" oneinferior onesuperior one.numr one.dnom one.tf one.osf
EndChar
StartChar: two
Encoding: 50 50 2013
Width: 517
Flags: MW
HStem: 0 121<208 469> 569 121<197.5 248.5>
VStem: 309 162<444.5 508.5>
LayerCount: 2
Back
Fore
SplineSet
238 690 m 0
 389 690 471 602 471 497 c 0
 471 392 419 313 208 121 c 1
 485 121 l 1
 469 0 l 1
 29 0 l 1
 29 112 l 1
 256 336 309 397 309 481 c 0
 309 536 275 569 222 569 c 0
 173 569 139 547 100 499 c 1
 6 573 l 1
 60 644 137 690 238 690 c 0
EndSplineSet
Substitution2: "'onum' Oldstyle Figures lookup 25 subtable" two.osf
Substitution2: "'tnum' Tabular Numbers lookup 24 subtable" two.tf
Substitution2: "'frac' Diagonal Fractions lookup 18 subtable" two.numr
Substitution2: "'dnom' Denominators lookup 16 subtable" two.dnom
Substitution2: "'numr' Numerators lookup 15 subtable" two.numr
Substitution2: "'sups' Superscript lookup 14 subtable" uni00B2
Substitution2: "'subs' Subscript lookup 13 subtable" uni2082
AlternateSubs2: "'aalt' Access All Alternates lookup 1 subtable" uni2082 uni00B2 two.numr two.dnom two.tf two.osf
EndChar
StartChar: three
Encoding: 51 51 2014
Width: 520
Flags: MW
HStem: -17 120<192.5 250 192.5 311.5> 298 109<175 214 175 214 158 214> 573 117<196 248.5>
VStem: 311 153<477 519.5> 324 162<170 236.5>
LayerCount: 2
Back
Fore
SplineSet
239 690 m 0xf0
 385 690 464 613 464 518 c 0xf0
 464 436 415 381 332 357 c 1
 416 348 486 298 486 191 c 0
 486 78 395 -17 228 -17 c 0
 126 -17 49 21 -4 85 c 1
 81 168 l 1
 126 123 166 103 219 103 c 0
 281 103 324 139 324 201 c 0xe8
 324 272 285 298 214 298 c 2
 158 298 l 1
 175 407 l 1
 214 407 l 2
 274 407 311 439 311 495 c 0
 311 544 276 573 221 573 c 0
 171 573 129 553 89 514 c 1
 11 599 l 1
 74 659 149 690 239 690 c 0xf0
EndSplineSet
Substitution2: "'onum' Oldstyle Figures lookup 25 subtable" three.osf
Substitution2: "'tnum' Tabular Numbers lookup 24 subtable" three.tf
Substitution2: "'frac' Diagonal Fractions lookup 18 subtable" three.numr
Substitution2: "'dnom' Denominators lookup 16 subtable" three.dnom
Substitution2: "'numr' Numerators lookup 15 subtable" three.numr
Substitution2: "'sups' Superscript lookup 14 subtable" uni00B3
Substitution2: "'subs' Subscript lookup 13 subtable" uni2083
AlternateSubs2: "'aalt' Access All Alternates lookup 1 subtable" uni2083 uni00B3 three.numr three.dnom three.tf three.osf
EndChar

StartChar: four
Encoding: 52 52 881
Width: 565
Flags: MW
HStem: 0 21G<314 468 314 314> 146 118<191 313 468 544> 673 20G<220 220>
VStem: 313.5 154.5
LayerCount: 2
Fore
SplineSet
544 146 m 1
 468 146 l 1
 468 0 l 1
 314 0 l 1
 313 146 l 1
 28 146 l 1
 28 251 l 1
 220 693 l 1
 354 643 l 1
 191 264 l 1
 315 264 l 1
 332 424 l 1
 468 424 l 1
 468 264 l 1
 544 264 l 1
 544 146 l 1
EndSplineSet
Substitution2: "'onum' Oldstyle Figures lookup 22 subtable" four.osf
Substitution2: "'tnum' Tabular Numbers lookup 21 subtable" four.tf
Substitution2: "'frac' Diagonal Fractions lookup 16 subtable" four.numr
Substitution2: "'dnom' Denominators lookup 14 subtable" four.dnom
Substitution2: "'numr' Numerators lookup 13 subtable" four.numr
Substitution2: "'sups' Superscript lookup 12 subtable" foursuperior
Substitution2: "'subs' Subscript lookup 11 subtable" fourinferior
AlternateSubs2: "'aalt' Access All Alternates lookup 1 subtable" fourinferior foursuperior four.numr four.dnom four.tf four.osf
EndChar
StartChar: five
Encoding: 53 53 2016
Width: 536
Flags: MW
HStem: -17 119<204.5 266 204.5 318.5> 335 108<232.5 364.5> 563 113<209 454 209 209>
VStem: 58 151<421 563 421 676 421 676> 341 162<183 264>
LayerCount: 2
Back
Fore
SplineSet
472 676 m 1
 454 563 l 1
 209 563 l 1
 209 421 l 1
 243 437 277 443 309 443 c 0
 420 443 503 363 503 223 c 0
 503 80 399 -17 238 -17 c 0
 135 -17 64 26 13 85 c 1
 102 167 l 1
 136 126 177 102 232 102 c 0
 300 102 341 144 341 222 c 0
 341 306 302 335 246 335 c 0
 219 335 196 328 165 311 c 1
 58 311 l 1
 58 676 l 1
 472 676 l 1
EndSplineSet
Substitution2: "'onum' Oldstyle Figures lookup 25 subtable" five.osf
Substitution2: "'tnum' Tabular Numbers lookup 24 subtable" five.tf
Substitution2: "'frac' Diagonal Fractions lookup 18 subtable" five.numr
Substitution2: "'dnom' Denominators lookup 16 subtable" five.dnom
Substitution2: "'numr' Numerators lookup 15 subtable" five.numr
Substitution2: "'sups' Superscript lookup 14 subtable" uni2075
Substitution2: "'subs' Subscript lookup 13 subtable" uni2085
AlternateSubs2: "'aalt' Access All Alternates lookup 1 subtable" uni2085 uni2075 five.numr five.dnom five.tf five.osf
EndChar
StartChar: six
Encoding: 54 54 2017
Width: 564
Flags: MW
HStem: -17 113<262 324.5 262 369.5> 346 109<319.5 327> 577 113<298 353.5>
VStem: 38 164 381 158<189 272.5>
LayerCount: 2
Back
Fore
SplineSet
345 455 m 0
 456 455 539 374 539 231 c 0
 539 93 445 -17 294 -17 c 0
 115 -17 38 115 38 309 c 0
 38 538 149 690 332 690 c 0
 396 690 447 671 486 645 c 1
 428 551 l 1
 400 567 371 577 336 577 c 0
 260 577 211 511 202 392 c 1
 244 436 294 455 345 455 c 0
296 96 m 0
 353 96 381 149 381 229 c 0
 381 316 353 346 301 346 c 0
 265 346 231 327 202 293 c 1
 204 152 228 96 296 96 c 0
EndSplineSet
Substitution2: "'onum' Oldstyle Figures lookup 25 subtable" six.osf
Substitution2: "'tnum' Tabular Numbers lookup 24 subtable" six.tf
Substitution2: "'frac' Diagonal Fractions lookup 18 subtable" six.numr
Substitution2: "'dnom' Denominators lookup 16 subtable" six.dnom
Substitution2: "'numr' Numerators lookup 15 subtable" six.numr
Substitution2: "'sups' Superscript lookup 14 subtable" uni2076
Substitution2: "'subs' Subscript lookup 13 subtable" uni2086
AlternateSubs2: "'aalt' Access All Alternates lookup 1 subtable" uni2086 uni2076 six.numr six.dnom six.tf six.osf
EndChar
StartChar: seven
Encoding: 55 55 2018
Width: 468
Flags: MW
HStem: -16 21G<202 202> 557 119<13 286 13 450>
VStem: 13 437<569 676 569 676 569 676>
LayerCount: 2
Back
Fore
SplineSet
450 676 m 1
 450 569 l 1
 202 -16 l 1
 59 32 l 1
 286 557 l 1
 13 557 l 1
 13 676 l 1
 450 676 l 1
EndSplineSet
Substitution2: "'onum' Oldstyle Figures lookup 25 subtable" seven.osf
Substitution2: "'tnum' Tabular Numbers lookup 24 subtable" seven.tf
Substitution2: "'frac' Diagonal Fractions lookup 18 subtable" seven.numr
Substitution2: "'dnom' Denominators lookup 16 subtable" seven.dnom
Substitution2: "'numr' Numerators lookup 15 subtable" seven.numr
Substitution2: "'sups' Superscript lookup 14 subtable" uni2077
Substitution2: "'subs' Subscript lookup 13 subtable" uni2087
AlternateSubs2: "'aalt' Access All Alternates lookup 1 subtable" uni2087 uni2077 seven.numr seven.dnom seven.tf seven.osf
EndChar
StartChar: nine
Encoding: 57 57 2020
Width: 560
Flags: MW
HStem: 234 111<245 251> 577 113<249 310.5>
VStem: 26 159<418 500 418 527.5> 367 162
LayerCount: 2
Back
Fore
SplineSet
277 690 m 0
 444 690 529 582 529 428 c 0
 529 152 397 31 108 -28 c 1
 76 82 l 1
 246 123 332 178 359 298 c 1
 326 259 283 234 219 234 c 0
 114 234 26 318 26 457 c 0
 26 598 136 690 277 690 c 0
268 345 m 0
 306 345 341 365 367 404 c 1
 369 532 344 577 277 577 c 0
 221 577 185 538 185 462 c 0
 185 374 222 345 268 345 c 0
EndSplineSet
Substitution2: "'onum' Oldstyle Figures lookup 25 subtable" nine.osf
Substitution2: "'tnum' Tabular Numbers lookup 24 subtable" nine.tf
Substitution2: "'frac' Diagonal Fractions lookup 18 subtable" nine.numr
Substitution2: "'dnom' Denominators lookup 16 subtable" nine.dnom
Substitution2: "'numr' Numerators lookup 15 subtable" nine.numr
Substitution2: "'sups' Superscript lookup 14 subtable" uni2079
Substitution2: "'subs' Subscript lookup 13 subtable" uni2089
AlternateSubs2: "'aalt' Access All Alternates lookup 1 subtable" uni2089 uni2079 nine.numr nine.dnom nine.tf nine.osf
EndChar
StartChar: less
Encoding: 60 60 2259
Width: 519
GlyphClass: 2
Flags: MW
HStem: 556 20G<434 434>
VStem: 34 450<205 402 205 402>
LayerCount: 2
Back
Fore
SplineSet
434 576 m 1
 484 465 l 1
 168 333 l 1
 484 205 l 1
 434 90 l 1
 34 263 l 1
 34 402 l 1
 434 576 l 1
EndSplineSet
Substitution2: "'onum' Oldstyle Figures lookup 25 subtable" less.osf
Substitution2: "'tnum' Tabular Numbers lookup 24 subtable" less.tf
AlternateSubs2: "'aalt' Access All Alternates lookup 1 subtable" less.tf less.osf
EndChar

StartChar: equal
Encoding: 61 61 1093
Width: 519
Flags: MW
HStem: 165 123<48 470 48 470> 375 123<48 470 48 470>
VStem: 48 422<165 288 165 288 375 498 165 498>
LayerCount: 2
Fore
SplineSet
48 498 m 1
 470 498 l 1
 470 375 l 1
 48 375 l 1
 48 498 l 1
48 288 m 1
 470 288 l 1
 470 165 l 1
 48 165 l 1
 48 288 l 1
EndSplineSet
Substitution2: "'onum' Oldstyle Figures lookup 22 subtable" equal.osf
Substitution2: "'tnum' Tabular Numbers lookup 21 subtable" equal.tf
Substitution2: "'dnom' Denominators lookup 14 subtable" equal.dnom
Substitution2: "'numr' Numerators lookup 13 subtable" equal.numr
Substitution2: "'sups' Superscript lookup 12 subtable" equalsuperior
AlternateSubs2: "'aalt' Access All Alternates lookup 1 subtable" equalsuperior equal.numr equal.dnom equal.tf equal.osf
EndChar

StartChar: greater
Encoding: 62 62 1096
Width: 519
Flags: MW
HStem: 556 20G<84 84>
VStem: 34 450<205 402 263 465>
LayerCount: 2
Fore
SplineSet
484 402 m 1
 484 263 l 1
 84 90 l 1
 34 205 l 1
 350 333 l 1
 34 465 l 1
 84 576 l 1
 484 402 l 1
EndSplineSet
Substitution2: "'onum' Oldstyle Figures lookup 22 subtable" greater.osf
Substitution2: "'tnum' Tabular Numbers lookup 21 subtable" greater.tf
AlternateSubs2: "'aalt' Access All Alternates lookup 1 subtable" greater.tf greater.osf
EndChar

StartChar: D
Encoding: 68 68 20
Width: 651
GlyphClass: 2
Flags: MW
HStem: 0 119<229 273> 574 119<229 229 229 258 258 281>
VStem: 65 164<119 574 119 693 119 693> 448 170<258 443>
AnchorPoint: "Anchor-11" 0 0 basechar 0
AnchorPoint: "Anchor-10" 0 0 basechar 0
AnchorPoint: "Anchor-9" 296 693 basechar 0
AnchorPoint: "Anchor-8" 0 0 basechar 0
LayerCount: 2
Fore
SplineSet
258 693 m 2
 443 693 618 636 618 350 c 0
 618 71 450 0 273 0 c 2
 65 0 l 1
 65 693 l 1
 258 693 l 2
229 574 m 1
 229 119 l 1
 283 119 l 2
 382 119 448 166 448 350 c 0
 448 536 377 574 281 574 c 2
 229 574 l 1
EndSplineSet
Substitution2: "'c2sc' Capitals to Small Capitals lookup 23 subtable" d.sc
Substitution2: "'aalt' Access All Alternates lookup 0 subtable" d.sc
Position2: "'cpsp' Capital Spacing lookup 0 subtable" dx=5 dy=0 dh=10 dv=0
EndChar
StartChar: E
Encoding: 69 69 67
Width: 526
GlyphClass: 2
Flags: MW
HStem: 0 118<229 490 229 490> 295 115<229 442 229 442> 576 117<229 473 229 229>
VStem: 65 164<118 295 410 576>
AnchorPoint: "Anchor-14" 0 0 basechar 0
AnchorPoint: "Anchor-13" 0 0 basechar 0
AnchorPoint: "Anchor-12" 279 693 basechar 0
AnchorPoint: "Anchor-11" 460 0 basechar 0
AnchorPoint: "Anchor-10" 277 0 basechar 0
LayerCount: 2
Back
Fore
SplineSet
490 693 m 1
 473 576 l 1
 229 576 l 1
 229 410 l 1
 442 410 l 1
 442 295 l 1
 229 295 l 1
 229 118 l 1
 490 118 l 1
 490 0 l 1
 65 0 l 1
 65 693 l 1
 490 693 l 1
EndSplineSet
Substitution2: "'c2sc' Capitals to Small Capitals lookup 26 subtable" e.sc
Substitution2: "'aalt' Access All Alternates lookup 0 subtable" e.sc
Position2: "'cpsp' Capital Spacing lookup 0 subtable" dx=5 dy=0 dh=10 dv=0
EndChar

StartChar: F
Encoding: 70 70 34
Width: 487
GlyphClass: 2
Flags: MW
HStem: 0 21G<65 229 65 65> 275 117<229 431 229 431> 576 117<229 461 229 229>
VStem: 65 164<0 275 392 576>
LayerCount: 2
Fore
SplineSet
461 576 m 1
 229 576 l 1
 229 392 l 1
 431 392 l 1
 431 275 l 1
 229 275 l 1
 229 0 l 1
 65 0 l 1
 65 693 l 1
 478 693 l 1
 461 576 l 1
EndSplineSet
Substitution2: "'c2sc' Capitals to Small Capitals lookup 23 subtable" f.sc
Substitution2: "'aalt' Access All Alternates lookup 0 subtable" f.sc
Position2: "'cpsp' Capital Spacing lookup 0 subtable" dx=5 dy=0 dh=10 dv=0
EndChar
StartChar: H
Encoding: 72 72 109
Width: 666
GlyphClass: 2
Flags: MW
HStem: 0 21G<65 229 65 65 437 601 437 437> 297 128<229 437 229 437> 673 20G<65 229 229 229 437 601 601 601>
VStem: 65 164<0 297 0 425 425 693> 437 164<0 297 297 297 425 693 0 693>
AnchorPoint: "Anchor-14" 333 347 basechar 0
AnchorPoint: "Anchor-13" 0 0 basechar 0
AnchorPoint: "Anchor-12" 333 693 basechar 0
AnchorPoint: "Anchor-11" 0 0 basechar 0
AnchorPoint: "Anchor-10" 333 0 basechar 0
LayerCount: 2
Back
Fore
SplineSet
437 0 m 1
 437 297 l 1
 229 297 l 1
 229 0 l 1
 65 0 l 1
 65 693 l 1
 229 693 l 1
 229 425 l 1
 437 425 l 1
 437 693 l 1
 601 693 l 1
 601 0 l 1
 437 0 l 1
EndSplineSet
Substitution2: "'c2sc' Capitals to Small Capitals lookup 26 subtable" h.sc
Substitution2: "'aalt' Access All Alternates lookup 0 subtable" h.sc
Position2: "'cpsp' Capital Spacing lookup 0 subtable" dx=5 dy=0 dh=10 dv=0
EndChar

StartChar: I
Encoding: 73 73 43
Width: 294
GlyphClass: 2
Flags: MW
HStem: 0 21G<65 229 65 65> 673 20G<65 229 229 229>
VStem: 65 164<0 693>
AnchorPoint: "Anchor-11" 0 0 basechar 0
AnchorPoint: "Anchor-10" 61 693 basechar 0
AnchorPoint: "Anchor-9" 147 693 basechar 0
AnchorPoint: "Anchor-8" 210 0 basechar 0
LayerCount: 2
Fore
SplineSet
229 0 m 1
 65 0 l 1
 65 693 l 1
 229 693 l 1
 229 0 l 1
EndSplineSet
Substitution2: "'c2sc' Capitals to Small Capitals lookup 23 subtable" i.sc
Substitution2: "'aalt' Access All Alternates lookup 0 subtable" i.sc
Position2: "'cpsp' Capital Spacing lookup 0 subtable" dx=5 dy=0 dh=10 dv=0
EndChar

StartChar: L
Encoding: 76 76 58
Width: 513
GlyphClass: 2
Flags: MW
HStem: 0 130<229 482> 673 20G<65 229 229 229>
VStem: 65 164<130 130 130 693>
AnchorPoint: "Anchor-11" 273 0 basechar 0
AnchorPoint: "Anchor-10" 0 0 basechar 0
AnchorPoint: "Anchor-9" 147 693 basechar 0
AnchorPoint: "Anchor-8" 0 0 basechar 0
LayerCount: 2
Fore
SplineSet
229 130 m 1
 499 130 l 1
 482 0 l 1
 65 0 l 1
 65 693 l 1
 229 693 l 1
 229 130 l 1
EndSplineSet
Substitution2: "'c2sc' Capitals to Small Capitals lookup 23 subtable" l.sc
Substitution2: "'aalt' Access All Alternates lookup 0 subtable" l.sc
Position2: "'cpsp' Capital Spacing lookup 0 subtable" dx=5 dy=0 dh=10 dv=0
EndChar

StartChar: S
Encoding: 83 83 90
Width: 572
GlyphClass: 2
Flags: MW
HStem: -17 122<232.5 301 232.5 358.5> 590 120<271.5 328>
VStem: 38 169<500 544 500 571> 377 170<163.5 215.5>
AnchorPoint: "Anchor-11" 283 0 basechar 0
AnchorPoint: "Anchor-10" 0 0 basechar 0
AnchorPoint: "Anchor-9" 295 693 basechar 0
AnchorPoint: "Anchor-8" 0 0 basechar 0
LayerCount: 2
Fore
SplineSet
288 710 m 0
 394 710 467 679 528 621 c 1
 451 532 l 1
 404 571 356 590 300 590 c 0
 243 590 207 566 207 522 c 0
 207 478 233 460 341 426 c 0
 472 384 547 330 547 202 c 0
 547 73 445 -17 272 -17 c 0
 152 -17 66 27 9 82 c 1
 93 174 l 1
 142 130 198 105 267 105 c 0
 335 105 377 137 377 190 c 0
 377 241 351 264 250 295 c 0
 95 343 38 407 38 510 c 0
 38 632 144 710 288 710 c 0
EndSplineSet
Substitution2: "'c2sc' Capitals to Small Capitals lookup 23 subtable" s.sc
Substitution2: "'aalt' Access All Alternates lookup 0 subtable" s.sc
Position2: "'cpsp' Capital Spacing lookup 0 subtable" dx=5 dy=0 dh=10 dv=0
EndChar

StartChar: T
Encoding: 84 84 96
Width: 540
GlyphClass: 2
Flags: MW
HStem: 0 21G<188 352 188 188> 567 126<9 188 9 539 352 523 352 352>
VStem: 188 164<0 567 0 567>
AnchorPoint: "Anchor-11" 270 0 basechar 0
AnchorPoint: "Anchor-10" 0 0 basechar 0
AnchorPoint: "Anchor-9" 270 693 basechar 0
AnchorPoint: "Anchor-8" 0 0 basechar 0
LayerCount: 2
Fore
SplineSet
523 567 m 1
 352 567 l 1
 352 0 l 1
 188 0 l 1
 188 567 l 1
 9 567 l 1
 9 693 l 1
 539 693 l 1
 523 567 l 1
EndSplineSet
Substitution2: "'c2sc' Capitals to Small Capitals lookup 23 subtable" t.sc
Substitution2: "'aalt' Access All Alternates lookup 0 subtable" t.sc
Position2: "'cpsp' Capital Spacing lookup 0 subtable" dx=5 dy=0 dh=10 dv=0
EndChar
StartChar: V
Encoding: 86 86 291
Width: 570
GlyphClass: 2
Flags: MW
HStem: 0 21G<187 391 187 187> 0 128<292 292 292 391 187 292> 673 20G<-13 160 160 160 416 584 584 584>
VStem: -13 597<693 693>
LayerCount: 2
Back
Fore
SplineSet
584 693 m 1xb0
 391 0 l 1
 187 0 l 1
 -13 693 l 1
 160 693 l 1
 292 128 l 1x70
 416 693 l 1
 584 693 l 1xb0
EndSplineSet
Substitution2: "'c2sc' Capitals to Small Capitals lookup 26 subtable" v.sc
Substitution2: "'aalt' Access All Alternates lookup 0 subtable" v.sc
Position2: "'cpsp' Capital Spacing lookup 0 subtable" dx=5 dy=0 dh=10 dv=0
EndChar

StartChar: X
Encoding: 88 88 118
Width: 581
GlyphClass: 2
Flags: MW
HStem: 0 21G<-4 170 -4 -4 406 585 406 406> 673 20G<11 189 189 189 394 568 568 568>
VStem: -4 589<0 0>
LayerCount: 2
Fore
SplineSet
585 0 m 1
 406 0 l 1
 287 264 l 1
 170 0 l 1
 -4 0 l 1
 190 368 l 1
 11 693 l 1
 189 693 l 1
 289 471 l 1
 394 693 l 1
 568 693 l 1
 385 374 l 1
 585 0 l 1
EndSplineSet
Substitution2: "'c2sc' Capitals to Small Capitals lookup 23 subtable" x.sc
Substitution2: "'aalt' Access All Alternates lookup 0 subtable" x.sc
Position2: "'cpsp' Capital Spacing lookup 0 subtable" dx=5 dy=0 dh=10 dv=0
EndChar
StartChar: Z
Encoding: 90 90 315
Width: 544
GlyphClass: 2
Flags: MW
HStem: 0 131<211 501> 566 127<49 325 49 512>
VStem: 18 499<0 131 123 131>
AnchorPoint: "Anchor-14" 0 0 basechar 0
AnchorPoint: "Anchor-13" 0 0 basechar 0
AnchorPoint: "Anchor-12" 276 693 basechar 0
AnchorPoint: "Anchor-11" 0 0 basechar 0
AnchorPoint: "Anchor-10" 264 0 basechar 0
LayerCount: 2
Back
Fore
SplineSet
512 693 m 1
 512 569 l 1
 211 131 l 1
 517 131 l 1
 501 0 l 1
 18 0 l 1
 18 123 l 1
 325 566 l 1
 49 566 l 1
 49 693 l 1
 512 693 l 1
EndSplineSet
Substitution2: "'c2sc' Capitals to Small Capitals lookup 26 subtable" z.sc
Substitution2: "'aalt' Access All Alternates lookup 0 subtable" z.sc
Position2: "'cpsp' Capital Spacing lookup 0 subtable" dx=5 dy=0 dh=10 dv=0
EndChar

StartChar: bracketleft
Encoding: 91 91 1005
Width: 324
Flags: MW
HStem: -123 117<184 299 184 299> 705 118<184 299 184 184>
VStem: 34 150<-6 705 -6 823 -6 823>
LayerCount: 2
Fore
SplineSet
299 705 m 1
 184 705 l 1
 184 -6 l 1
 299 -6 l 1
 299 -123 l 1
 34 -123 l 1
 34 823 l 1
 299 823 l 1
 299 705 l 1
EndSplineSet
Substitution2: "'case' Case-Sensitive Forms lookup 25 subtable" bracketleft.case
Substitution2: "'aalt' Access All Alternates lookup 0 subtable" bracketleft.case
EndChar
StartChar: backslash
Encoding: 92 92 2113
Width: 520
Flags: MW
HStem: -112 928<211 308>
VStem: 73 374
LayerCount: 2
Back
Fore
SplineSet
211 816 m 1
 447 -80 l 1
 308 -112 l 1
 73 785 l 1
 211 816 l 1
EndSplineSet
EndChar
StartChar: bracketright
Encoding: 93 93 2143
Width: 324
Flags: MW
HStem: -123 118<25 140 25 290 25 140> 705 118<25 140 25 290>
VStem: 140 150<-5 705 705 705>
LayerCount: 2
Back
Fore
SplineSet
290 823 m 1
 290 -123 l 1
 25 -123 l 1
 25 -5 l 1
 140 -5 l 1
 140 705 l 1
 25 705 l 1
 25 823 l 1
 290 823 l 1
EndSplineSet
Substitution2: "'case' Case-Sensitive Forms lookup 28 subtable" bracketright.case
Substitution2: "'aalt' Access All Alternates lookup 0 subtable" bracketright.case
EndChar

StartChar: grave
Encoding: 96 96 1257
Width: 340
Flags: MW
HStem: 683 20G<310 310>
VStem: 30 280<703 717>
LayerCount: 2
Fore
SplineSet
310 703 m 1
 266 622 l 1
 30 717 l 1
 92 835 l 1
 310 703 l 1
EndSplineSet
Substitution2: "'case' Case-Sensitive Forms lookup 25 subtable" grave.case
Substitution2: "'smcp' Lowercase to Small Capitals lookup 24 subtable" grave.sc
Substitution2: "'c2sc' Capitals to Small Capitals lookup 23 subtable" grave.sc
AlternateSubs2: "'aalt' Access All Alternates lookup 1 subtable" grave.sc grave.case
EndChar
StartChar: b
Encoding: 98 98 371
Width: 597
GlyphClass: 2
Flags: MW
HStem: -17 115<319.5 331 286.5 415> 0 98<62 331> 432 116<332.5 335.5> 722 20G<62 62> 739 20G<220 220>
VStem: 62 158<150 370 477 742 742 742> 396 164<203 332.5>
AnchorPoint: "Anchor-14" 0 0 basechar 0
AnchorPoint: "Anchor-13" 0 0 basechar 0
AnchorPoint: "Anchor-12" 319 742 basechar 0
AnchorPoint: "Anchor-11" 0 0 basechar 0
AnchorPoint: "Anchor-10" 308 0 basechar 0
LayerCount: 2
Back
Fore
SplineSet
360 548 m 0xae
 491 548 560 443 560 265 c 0
 560 101 481 -17 349 -17 c 0
 290 -17 242 8 210 51 c 1xae
 202 0 l 1
 62 0 l 1
 62 742 l 1x76
 220 759 l 1
 220 477 l 1
 251 520 305 548 360 548 c 0xae
304 98 m 0
 358 98 396 141 396 265 c 0
 396 400 360 432 311 432 c 0
 273 432 243 409 220 370 c 1
 220 150 l 1
 240 117 269 98 304 98 c 0
EndSplineSet
Substitution2: "'smcp' Lowercase to Small Capitals lookup 27 subtable" b.sc
Substitution2: "'aalt' Access All Alternates lookup 0 subtable" b.sc
EndChar
StartChar: d
Encoding: 100 100 391
Width: 600
GlyphClass: 2
Flags: MW
HStem: -17 116<263 275> 0 21G<398 538 398 398> 433 115<269.5 281 188.5 315> 722 20G<538 538> 739 20G<380 380>
VStem: 37 164<200 325.5 200 349> 380 158<158 388 388 388 498 742 0 759 0 759>
AnchorPoint: "Anchor-14" 302 266 basechar 0
AnchorPoint: "Anchor-13" 548 742 basechar 0
AnchorPoint: "Anchor-12" 298 742 basechar 0
AnchorPoint: "Anchor-11" 0 0 basechar 0
AnchorPoint: "Anchor-10" 308 0 basechar 0
LayerCount: 2
Back
Fore
SplineSet
380 759 m 1x6e
 538 742 l 1
 538 0 l 1
 398 0 l 1x76
 390 62 l 1
 360 18 311 -17 239 -17 c 0xae
 104 -17 37 95 37 267 c 0
 37 431 120 548 257 548 c 0
 305 548 348 529 380 498 c 1
 380 759 l 1x6e
289 99 m 0xae
 326 99 355 119 380 158 c 1
 380 388 l 1
 356 416 332 433 298 433 c 0
 241 433 201 385 201 266 c 0
 201 134 237 99 289 99 c 0xae
EndSplineSet
Substitution2: "'smcp' Lowercase to Small Capitals lookup 27 subtable" d.sc
Substitution2: "'aalt' Access All Alternates lookup 0 subtable" d.sc
EndChar
StartChar: e
Encoding: 101 101 410
Width: 554
GlyphClass: 2
Flags: MW
HStem: -17 115<281.5 335.5 281.5 342> 219 95<194 370 193 522 194 194> 443 105<257.5 315.5>
VStem: 32 161<314 314 314 342.5> 370 155<314 321 321 321>
AnchorPoint: "Anchor-14" 0 0 basechar 0
AnchorPoint: "Anchor-13" 0 0 basechar 0
AnchorPoint: "Anchor-12" 283 531 basechar 0
AnchorPoint: "Anchor-11" 434 9 basechar 0
AnchorPoint: "Anchor-10" 294 0 basechar 0
LayerCount: 2
Back
Fore
SplineSet
525 276 m 0
 525 259 524 235 522 219 c 1
 194 219 l 1
 204 124 249 98 314 98 c 0
 357 98 395 113 441 145 c 1
 506 57 l 1
 453 15 385 -17 299 -17 c 0
 122 -17 32 97 32 263 c 0
 32 422 119 548 280 548 c 0
 432 548 525 448 525 276 c 0
370 314 m 1
 370 321 l 2
 369 393 347 443 284 443 c 0
 231 443 201 410 193 314 c 1
 370 314 l 1
EndSplineSet
Substitution2: "'smcp' Lowercase to Small Capitals lookup 27 subtable" e.sc
Substitution2: "'aalt' Access All Alternates lookup 0 subtable" e.sc
EndChar
StartChar: h
Encoding: 104 104 469
Width: 577
GlyphClass: 2
Flags: MW
HStem: 0 21G<62 220 62 62 362 520 362 362> 432 116<294.5 419> 722 20G<62 62> 738 20G<220 220>
VStem: 62 158<0 364 0 475 475 742 742 742> 362 158<0 361 361 388 0 389>
AnchorPoint: "Anchor-14" 288 266 basechar 0
AnchorPoint: "Anchor-13" 0 0 basechar 0
AnchorPoint: "Anchor-12" 288 742 basechar 0
AnchorPoint: "Anchor-11" 0 0 basechar 0
AnchorPoint: "Anchor-10" 292 0 basechar 0
LayerCount: 2
Back
Fore
SplineSet
373 548 m 0xdc
 465 548 520 489 520 388 c 2
 520 0 l 1
 362 0 l 1
 362 361 l 2
 362 417 342 432 312 432 c 0
 277 432 248 407 220 364 c 1
 220 0 l 1
 62 0 l 1
 62 742 l 1xec
 220 758 l 1
 220 475 l 1
 263 523 311 548 373 548 c 0xdc
EndSplineSet
Substitution2: "'smcp' Lowercase to Small Capitals lookup 27 subtable" h.sc
Substitution2: "'aalt' Access All Alternates lookup 0 subtable" h.sc
EndChar
StartChar: i
Encoding: 105 105 478
Width: 282
GlyphClass: 2
Flags: MW
HStem: 0 21G<62 220 62 62> 511 20G<62 220 220 220> 631 180<112.5 167.5>
VStem: 47 187<695.5 746.5> 62 158<0 531 0 531>
AnchorPoint: "Anchor-14" 0 0 basechar 0
AnchorPoint: "Anchor-13" 0 0 basechar 0
AnchorPoint: "Anchor-12" 143 811 basechar 0
AnchorPoint: "Anchor-11" 205 0 basechar 0
AnchorPoint: "Anchor-10" 141 0 basechar 0
LayerCount: 2
Back
Fore
SplineSet
140 811 m 0xf0
 195 811 234 772 234 721 c 0
 234 670 195 631 140 631 c 0
 85 631 47 670 47 721 c 0
 47 772 85 811 140 811 c 0xf0
220 531 m 1xe8
 220 0 l 1
 62 0 l 1
 62 531 l 1
 220 531 l 1xe8
EndSplineSet
Substitution2: "'smcp' Lowercase to Small Capitals lookup 27 subtable" i.sc
Substitution2: "'locl' Localized Forms in Latin lookup 10 subtable" i.loclTRK
Substitution2: "'locl' Localized Forms in Latin lookup 8 subtable" i.loclTRK
Substitution2: "'locl' Localized Forms in Latin lookup 6 subtable" i.loclTRK
Substitution2: "'locl' Localized Forms in Latin lookup 3 subtable" i.loclTRK
Substitution2: "'locl' Localized Forms in Latin lookup 2 subtable" i.loclTRK
AlternateSubs2: "'aalt' Access All Alternates lookup 1 subtable" i.loclTRK i.sc
EndChar

StartChar: j
Encoding: 106 106 188
Width: 281
GlyphClass: 2
Flags: MW
HStem: -221 21G<6 6> 511 20G<61 219 219 219> 631 180<112.5 167.5>
VStem: 47 187<695.5 746.5> 61 158<50 60 60 531>
AnchorPoint: "Anchor-11" 0 0 basechar 0
AnchorPoint: "Anchor-10" 0 0 basechar 0
AnchorPoint: "Anchor-9" 141 531 basechar 0
AnchorPoint: "Anchor-8" 0 0 basechar 0
LayerCount: 2
Fore
SplineSet
140 811 m 0xf0
 195 811 234 772 234 721 c 0
 234 670 195 631 140 631 c 0
 85 631 47 670 47 721 c 0
 47 772 85 811 140 811 c 0xf0
219 60 m 2xe8
 219 -113 130 -176 6 -221 c 1
 -47 -106 l 1
 21 -75 61 -47 61 50 c 2
 61 531 l 1
 219 531 l 1
 219 60 l 2xe8
EndSplineSet
Substitution2: "'smcp' Lowercase to Small Capitals lookup 24 subtable" j.sc
Substitution2: "'aalt' Access All Alternates lookup 0 subtable" j.sc
EndChar

StartChar: k
Encoding: 107 107 191
Width: 552
GlyphClass: 2
Flags: MW
HStem: 0 21G<62 220 62 62 383 383 383 561> 511 20G<387 548 548 548> 722 20G<62 62> 739 20G<220 220>
VStem: 62 158<0 742 742 742>
AnchorPoint: "Anchor-11" 276 0 basechar 0
AnchorPoint: "Anchor-10" 0 0 basechar 0
AnchorPoint: "Anchor-9" 0 0 basechar 0
AnchorPoint: "Anchor-8" 0 0 basechar 0
LayerCount: 2
Fore
SplineSet
220 0 m 1xd8
 62 0 l 1
 62 742 l 1xe8
 220 759 l 1
 220 0 l 1xd8
387 298 m 1
 561 0 l 1
 383 0 l 1
 225 290 l 1
 387 531 l 1
 548 531 l 1
 387 298 l 1
EndSplineSet
Substitution2: "'smcp' Lowercase to Small Capitals lookup 24 subtable" k.sc
Substitution2: "'aalt' Access All Alternates lookup 0 subtable" k.sc
EndChar

StartChar: l
Encoding: 108 108 194
Width: 297
GlyphClass: 2
Flags: MW
HStem: -17 21G<153 215.5> -17 125<153 246> 722 20G<57 57> 739 20G<215 215>
VStem: 57 158<134 149 149 742 742 742>
AnchorPoint: "Anchor-11" 171 0 basechar 0
AnchorPoint: "Anchor-10" 0 0 basechar 0
AnchorPoint: "Anchor-9" 136 742 basechar 0
AnchorPoint: "Anchor-8" 0 0 basechar 0
LayerCount: 2
Fore
SplineSet
215 149 m 2x58
 215 119 225 108 242 108 c 0
 250 108 261 110 268 113 c 1x58
 299 1 l 1
 272 -10 234 -17 197 -17 c 0
 109 -17 57 35 57 133 c 2
 57 742 l 1xa8
 215 759 l 1
 215 149 l 2x58
EndSplineSet
Substitution2: "'smcp' Lowercase to Small Capitals lookup 24 subtable" l.sc
Substitution2: "'aalt' Access All Alternates lookup 0 subtable" l.sc
EndChar
StartChar: m
Encoding: 109 109 530
Width: 845
GlyphClass: 2
Flags: MW
HStem: 0 21G<62 220 62 62 346 504 346 346 630 788 630 630> 432 116<284.5 394.5> 511 20G<62 200 200 200>
VStem: 62 158<0 363 0 531> 346 158<0 361 361 363 0 389> 630 158<0 361 361 388 0 389>
AnchorPoint: "Anchor-14" 0 0 basechar 0
AnchorPoint: "Anchor-13" 0 0 basechar 0
AnchorPoint: "Anchor-12" 423 531 basechar 0
AnchorPoint: "Anchor-11" 0 0 basechar 0
AnchorPoint: "Anchor-10" 423 0 basechar 0
LayerCount: 2
Back
Fore
SplineSet
649 548 m 0xdc
 731 548 788 489 788 388 c 2
 788 0 l 1
 630 0 l 1
 630 361 l 2
 630 417 609 432 585 432 c 0
 551 432 527 407 504 363 c 1
 504 0 l 1
 346 0 l 1
 346 361 l 2
 346 417 325 432 301 432 c 0
 268 432 243 407 220 363 c 1xdc
 220 0 l 1
 62 0 l 1
 62 531 l 1
 200 531 l 1xbc
 211 469 l 1
 252 521 300 548 365 548 c 0
 424 548 469 518 490 464 c 1
 532 519 581 548 649 548 c 0xdc
EndSplineSet
Substitution2: "'smcp' Lowercase to Small Capitals lookup 27 subtable" m.sc
Substitution2: "'aalt' Access All Alternates lookup 0 subtable" m.sc
EndChar

StartChar: q
Encoding: 113 113 222
Width: 595
GlyphClass: 2
Flags: MW
HStem: -222 21G<533 533> -205 21G<375 375> -17 116<258 266.5> 433 98<264.5 533> 433 115<264.5 277.5 183.5 310.5>
VStem: 32 164<200 325.5 200 349> 375 158<-205 51 51 51 159 388 388 388>
LayerCount: 2
Fore
SplineSet
533 531 m 1x76
 533 -222 l 1xae
 375 -205 l 1
 375 51 l 1
 344 11 299 -17 234 -17 c 0
 99 -17 32 95 32 267 c 0
 32 431 115 548 252 548 c 0
 303 548 350 527 387 485 c 1x6e
 395 531 l 1
 533 531 l 1x76
284 99 m 0
 321 99 350 119 375 159 c 1
 375 388 l 1
 351 416 328 433 293 433 c 0
 236 433 196 385 196 266 c 0
 196 134 232 99 284 99 c 0
EndSplineSet
Substitution2: "'smcp' Lowercase to Small Capitals lookup 24 subtable" q.sc
Substitution2: "'aalt' Access All Alternates lookup 0 subtable" q.sc
EndChar
StartChar: t
Encoding: 116 116 638
Width: 386
GlyphClass: 2
Flags: MW
HStem: -17 125<268.5 275> 421 110<2 77 2 77 235 340>
VStem: 77 158<175 177 177 421 531 646 646 646>
AnchorPoint: "Anchor-14" 191 266 basechar 0
AnchorPoint: "Anchor-13" 229 780 basechar 0
AnchorPoint: "Anchor-12" 156 646 basechar 0
AnchorPoint: "Anchor-11" 0 0 basechar 0
AnchorPoint: "Anchor-10" 234 0 basechar 0
LayerCount: 2
Back
Fore
SplineSet
342 126 m 1
 395 25 l 1
 355 -3 299 -17 251 -17 c 0
 134 -16 77 50 77 175 c 2
 77 421 l 1
 2 421 l 1
 2 531 l 1
 77 531 l 1
 77 646 l 1
 235 664 l 1
 235 531 l 1
 357 531 l 1
 340 421 l 1
 235 421 l 1
 235 177 l 2
 235 126 252 108 285 108 c 0
 303 108 321 113 342 126 c 1
EndSplineSet
Substitution2: "'smcp' Lowercase to Small Capitals lookup 27 subtable" t.sc
Substitution2: "'aalt' Access All Alternates lookup 0 subtable" t.sc
EndChar

StartChar: v
Encoding: 118 118 250
Width: 513
GlyphClass: 2
Flags: MW
HStem: 0 21G<165 352 165 165> 0 120<260 260 260 352 165 260> 511 20G<-6 166 166 166 358 519 519 519>
VStem: -6 525<531 531>
LayerCount: 2
Fore
SplineSet
352 0 m 1xb0
 165 0 l 1
 -6 531 l 1
 166 531 l 1
 260 120 l 1x70
 358 531 l 1
 519 531 l 1
 352 0 l 1xb0
EndSplineSet
Substitution2: "'smcp' Lowercase to Small Capitals lookup 24 subtable" v.sc
Substitution2: "'aalt' Access All Alternates lookup 0 subtable" v.sc
EndChar
StartChar: y
Encoding: 121 121 703
Width: 518
GlyphClass: 2
Flags: MW
HStem: -222 21G<56 56> 0 21G<156 210 156 156> 511 20G<-6 162 162 162 361 524 524 524>
VStem: -6 530<531 531>
AnchorPoint: "Anchor-14" 0 0 basechar 0
AnchorPoint: "Anchor-13" 0 0 basechar 0
AnchorPoint: "Anchor-12" 259 531 basechar 0
AnchorPoint: "Anchor-11" 0 0 basechar 0
AnchorPoint: "Anchor-10" 257 -210 basechar 0
LayerCount: 2
Back
Fore
SplineSet
524 531 m 1
 355 -1 l 2
 313 -135 223 -213 56 -222 c 1
 39 -111 l 1
 143 -98 181 -68 210 0 c 1
 156 0 l 1
 -6 531 l 1
 162 531 l 1
 257 101 l 1
 361 531 l 1
 524 531 l 1
EndSplineSet
Substitution2: "'smcp' Lowercase to Small Capitals lookup 27 subtable" y.sc
Substitution2: "'aalt' Access All Alternates lookup 0 subtable" y.sc
EndChar

StartChar: z
Encoding: 122 122 262
Width: 459
GlyphClass: 2
Flags: MW
HStem: 0 120<196 427> 412 119<34 254 34 436>
VStem: 13 428<0 120 112 120>
AnchorPoint: "Anchor-11" 0 0 basechar 0
AnchorPoint: "Anchor-10" 0 0 basechar 0
AnchorPoint: "Anchor-9" 233 531 basechar 0
AnchorPoint: "Anchor-8" 0 0 basechar 0
LayerCount: 2
Fore
SplineSet
436 420 m 1
 196 120 l 1
 441 120 l 1
 427 0 l 1
 13 0 l 1
 13 112 l 1
 254 412 l 1
 34 412 l 1
 34 531 l 1
 436 531 l 1
 436 420 l 1
EndSplineSet
Substitution2: "'smcp' Lowercase to Small Capitals lookup 24 subtable" z.sc
Substitution2: "'aalt' Access All Alternates lookup 0 subtable" z.sc
EndChar

StartChar: bar
Encoding: 124 124 1216
Width: 376
Flags: MW
HStem: -105 915<115 262 115 262>
VStem: 115 147<-105 810>
LayerCount: 2
Fore
SplineSet
262 -105 m 1
 115 -105 l 1
 115 810 l 1
 262 810 l 1
 262 -105 l 1
EndSplineSet
EndChar

StartChar: exclamdown
Encoding: 161 161 986
Width: 240
Flags: MW
HStem: -205 21G<37 205 37 37> 329 180<95 145.5>
VStem: 30 181<394.5 443.5> 47 147.5
LayerCount: 2
Fore
SplineSet
120 509 m 0xe0
 171 509 211 468 211 419 c 0
 211 370 171 329 120 329 c 0
 70 329 30 370 30 419 c 0
 30 468 70 509 120 509 c 0xe0
205 -205 m 1xd0
 37 -205 l 1
 57 235 l 1
 184 235 l 1
 205 -205 l 1xd0
EndSplineSet
Substitution2: "'case' Case-Sensitive Forms lookup 25 subtable" exclamdown.case
Substitution2: "'aalt' Access All Alternates lookup 0 subtable" exclamdown.case
EndChar
StartChar: cent
Encoding: 162 162 2198
Width: 479
GlyphClass: 2
Flags: MW
HStem: -13 21G<346 346> -11 21G<232 232> 522 20G<233 233> 524 20G<346 346>
VStem: 32 166<203 321.5 203 334.5> 233 113<544 691>
LayerCount: 2
Back
Fore
SplineSet
405 144 m 1x5c
 474 46 l 1
 437 16 395 -4 346 -13 c 1x9c
 346 -161 l 1
 232 -161 l 1
 232 -11 l 1
 106 14 32 116 32 261 c 0
 32 408 108 517 233 542 c 1x6c
 233 691 l 1
 346 691 l 1
 346 544 l 1
 395 536 436 515 474 483 c 1
 406 389 l 1
 372 415 341 427 305 427 c 0
 237 427 198 381 198 262 c 0
 198 144 240 108 303 108 c 0
 341 108 367 120 405 144 c 1x5c
EndSplineSet
Substitution2: "'onum' Oldstyle Figures lookup 25 subtable" cent.osf
Substitution2: "'tnum' Tabular Numbers lookup 24 subtable" cent.tf
AlternateSubs2: "'aalt' Access All Alternates lookup 1 subtable" cent.tf cent.osf
EndChar

StartChar: brokenbar
Encoding: 166 166 1217
Width: 376
Flags: MW
HStem: -105 915<115 262 115 262>
VStem: 115 147<-105 262 443 810>
LayerCount: 2
Fore
SplineSet
262 443 m 1
 115 443 l 1
 115 810 l 1
 262 810 l 1
 262 443 l 1
262 -105 m 1
 115 -105 l 1
 115 262 l 1
 262 262 l 1
 262 -105 l 1
EndSplineSet
EndChar
StartChar: section
Encoding: 167 167 2377
Width: 550
GlyphClass: 2
Flags: MW
HStem: -83 109<220.5 269 220.5 319.5> 580 109<277 323.5>
VStem: 53 138<304 325.5> 78 150<518.5 549 518.5 575.5> 323 151<56 86> 359 138<278 302>
LayerCount: 2
Back
Fore
SplineSet
419 182 m 1xd8
 458 155 474 124 474 76 c 0
 474 -19 387 -83 252 -83 c 0
 174 -83 109 -62 61 -29 c 1
 111 68 l 1
 155 40 197 26 244 26 c 0
 294 26 323 42 323 70 c 0
 323 102 310 116 204 148 c 0
 110 177 53 214 53 298 c 0xe8
 53 353 88 395 131 422 c 1
 93 450 78 483 78 529 c 0
 78 622 162 689 293 689 c 0
 366 689 434 667 486 633 c 1
 433 542 l 1
 390 568 346 580 301 580 c 0
 253 580 228 563 228 535 c 0
 228 502 243 490 344 458 c 0
 439 429 497 391 497 306 c 0xd4
 497 250 463 209 419 182 c 1xd8
268 249 m 0xe4
 292 240 314 232 334 224 c 1
 350 244 359 267 359 285 c 0
 359 319 340 336 261 362 c 0
 244 368 227 374 212 380 c 1
 197 360 191 338 191 321 c 0
 191 287 207 270 268 249 c 0xe4
EndSplineSet
Substitution2: "'onum' Oldstyle Figures lookup 25 subtable" section.osf
Substitution2: "'tnum' Tabular Numbers lookup 24 subtable" section.tf
AlternateSubs2: "'aalt' Access All Alternates lookup 1 subtable" section.tf section.osf
EndChar
StartChar: dieresis
Encoding: 168 168 2529
Width: 453
Flags: MW
HStem: 641 158<88.5 134 320 365.5>
VStem: 30 162<698 742> 262 161<698 742>
LayerCount: 2
Back
Fore
SplineSet
111 799 m 0
 157 799 192 764 192 720 c 0
 192 676 157 641 111 641 c 0
 66 641 30 676 30 720 c 0
 30 764 66 799 111 799 c 0
342 799 m 0
 389 799 423 764 423 720 c 0
 423 676 389 641 342 641 c 0
 298 641 262 676 262 720 c 0
 262 764 298 799 342 799 c 0
EndSplineSet
Substitution2: "Single Substitution lookup 41 subtable" dieresis.case
Substitution2: "'case' Case-Sensitive Forms lookup 28 subtable" dieresis.case
Substitution2: "'smcp' Lowercase to Small Capitals lookup 27 subtable" dieresis.sc
Substitution2: "'c2sc' Capitals to Small Capitals lookup 26 subtable" dieresis.sc
AlternateSubs2: "'aalt' Access All Alternates lookup 1 subtable" dieresis.sc dieresis.case
EndChar
StartChar: guillemotleft
Encoding: 171 171 2175
Width: 628
Flags: MW
HStem: 13 543<226 226 226 494>
VStem: 36 556<78 334 78 334>
LayerCount: 2
Back
Fore
SplineSet
226 556 m 1
 323 491 l 1
 194 285 l 1
 323 78 l 1
 226 13 l 1
 36 234 l 1
 36 334 l 1
 226 556 l 1
494 556 m 1
 592 491 l 1
 463 285 l 1
 592 78 l 1
 494 13 l 1
 305 234 l 1
 305 334 l 1
 494 556 l 1
EndSplineSet
Substitution2: "'case' Case-Sensitive Forms lookup 28 subtable" guillemotleft.case
Substitution2: "'aalt' Access All Alternates lookup 0 subtable" guillemotleft.case
EndChar
StartChar: logicalnot
Encoding: 172 172 2261
Width: 531
GlyphClass: 2
Flags: MW
HStem: 267 123<48 352 48 483>
VStem: 352 131<114 267 267 267>
LayerCount: 2
Back
Fore
SplineSet
483 390 m 1
 483 114 l 1
 352 114 l 1
 352 267 l 1
 48 267 l 1
 48 390 l 1
 483 390 l 1
EndSplineSet
Substitution2: "'onum' Oldstyle Figures lookup 25 subtable" logicalnot.osf
Substitution2: "'tnum' Tabular Numbers lookup 24 subtable" logicalnot.tf
AlternateSubs2: "'aalt' Access All Alternates lookup 1 subtable" logicalnot.tf logicalnot.osf
EndChar

StartChar: macron
Encoding: 175 175 1259
Width: 365
Flags: MW
HStem: 655 110<30 335 30 335>
VStem: 30 305<655 765 655 765>
LayerCount: 2
Fore
SplineSet
30 655 m 1
 30 765 l 1
 335 765 l 1
 335 655 l 1
 30 655 l 1
EndSplineSet
Substitution2: "'case' Case-Sensitive Forms lookup 25 subtable" macron.case
Substitution2: "'smcp' Lowercase to Small Capitals lookup 24 subtable" macron.sc
Substitution2: "'c2sc' Capitals to Small Capitals lookup 23 subtable" macron.sc
AlternateSubs2: "'aalt' Access All Alternates lookup 1 subtable" macron.sc macron.case
EndChar
StartChar: degree
Encoding: 176 176 2379
Width: 521
GlyphClass: 2
Flags: MW
HStem: 369 93<197 239 197 262> 619 91<197 239>
VStem: 39 109<517 565 517 594.5> 287 109<517 565>
LayerCount: 2
Back
Fore
SplineSet
218 369 m 0
 130 369 39 434 39 541 c 0
 39 648 130 710 218 710 c 0
 306 710 396 648 396 541 c 0
 396 433 306 369 218 369 c 0
218 462 m 0
 260 462 287 493 287 541 c 0
 287 589 260 619 218 619 c 0
 176 619 148 589 148 541 c 0
 148 493 176 462 218 462 c 0
EndSplineSet
Substitution2: "'onum' Oldstyle Figures lookup 25 subtable" degree.osf
Substitution2: "'tnum' Tabular Numbers lookup 24 subtable" degree.tf
AlternateSubs2: "'aalt' Access All Alternates lookup 1 subtable" degree.tf degree.osf
EndChar

StartChar: plusminus
Encoding: 177 177 1115
Width: 531
Flags: MW
HStem: 0 122<48 470 48 470> 343 122<49 200 49 200 331 483>
VStem: 200 131<188 343 188 343 465 622>
LayerCount: 2
Fore
SplineSet
331 465 m 1
 483 465 l 1
 483 343 l 1
 331 343 l 1
 331 188 l 1
 200 188 l 1
 200 343 l 1
 49 343 l 1
 49 465 l 1
 200 465 l 1
 200 622 l 1
 331 622 l 1
 331 465 l 1
48 122 m 1
 470 122 l 1
 470 0 l 1
 48 0 l 1
 48 122 l 1
EndSplineSet
Substitution2: "'onum' Oldstyle Figures lookup 22 subtable" plusminus.osf
Substitution2: "'tnum' Tabular Numbers lookup 21 subtable" plusminus.tf
AlternateSubs2: "'aalt' Access All Alternates lookup 1 subtable" plusminus.tf plusminus.osf
EndChar
StartChar: acute
Encoding: 180 180 2511
Width: 340
Flags: MW
HStem: 622 213<74 248>
VStem: 30 280<703 717>
LayerCount: 2
Back
Fore
SplineSet
248 835 m 1
 310 717 l 1
 74 622 l 1
 30 703 l 1
 248 835 l 1
EndSplineSet
Substitution2: "Single Substitution lookup 41 subtable" acute.case
Substitution2: "'case' Case-Sensitive Forms lookup 28 subtable" acute.case
Substitution2: "'smcp' Lowercase to Small Capitals lookup 27 subtable" acute.sc
Substitution2: "'c2sc' Capitals to Small Capitals lookup 26 subtable" acute.sc
Substitution2: "'locl' Localized Forms in Latin lookup 7 subtable" acute.loclPLK
AlternateSubs2: "'aalt' Access All Alternates lookup 1 subtable" acute.loclPLK acute.sc acute.case
EndChar

StartChar: uni00B5
Encoding: 181 181 1104
Width: 582
Flags: MW
HStem: -220 21G<62 62> -205 21G<212 212> -17 21G<392 392> -8 114<256 283> 0 21G<537 537> 511 20G<62 220 220 220 355 513 513 513>
VStem: 62 158<143.5 167 167 531> 355 158<169 182 182 531>
LayerCount: 2
Fore
SplineSet
392 -17 m 1x67
 379 11 375 32 369 68 c 1
 341 22 305 -8 261 -8 c 0
 228 -8 195 0 172 34 c 1
 195 -8 212 -43 212 -113 c 2
 212 -205 l 1x57
 62 -220 l 1
 62 531 l 1
 220 531 l 1
 220 167 l 2
 220 120 242 106 270 106 c 0
 299 106 330 124 355 169 c 1x97
 355 531 l 1
 513 531 l 1
 513 182 l 2
 513 102 525 42 537 0 c 1x4f
 392 -17 l 1x67
EndSplineSet
EndChar
StartChar: paragraph
Encoding: 182 182 2374
Width: 788
GlyphClass: 2
Flags: MW
HStem: -223 21G<304 304 534 534> -205 21G<442 442 672 672> 583 110<442 534 442 442>
VStem: 304 138<-205 263 263 263> 534 138<-205 583 583 583>
LayerCount: 2
Back
Fore
SplineSet
334 693 m 1x78
 672 693 l 1
 672 -205 l 1x78
 534 -223 l 1xb8
 534 583 l 1
 442 583 l 1
 442 -205 l 1x78
 304 -223 l 1xb8
 304 263 l 1
 144 267 65 355 65 478 c 0
 65 612 162 697 334 693 c 1x78
EndSplineSet
EndChar
StartChar: cedilla
Encoding: 184 184 2527
Width: 321
Flags: MW
HStem: -262 86<118.5 144 117.5 187.5> -112 128<100 117>
VStem: 177 114<-157 -134>
LayerCount: 2
Back
Fore
SplineSet
187 16 m 1
 187 -48 l 1
 259 -56 291 -93 291 -147 c 0
 291 -215 233 -262 142 -262 c 0
 95 -262 55 -249 30 -232 c 1
 66 -159 l 1
 86 -169 105 -176 130 -176 c 0
 158 -176 177 -168 177 -146 c 0
 177 -122 149 -112 85 -112 c 1
 100 16 l 1
 187 16 l 1
EndSplineSet
Substitution2: "Single Substitution lookup 41 subtable" cedilla.case
Substitution2: "'case' Case-Sensitive Forms lookup 28 subtable" cedilla.case
Substitution2: "'smcp' Lowercase to Small Capitals lookup 27 subtable" cedilla.sc
Substitution2: "'c2sc' Capitals to Small Capitals lookup 26 subtable" cedilla.sc
AlternateSubs2: "'aalt' Access All Alternates lookup 1 subtable" cedilla.sc cedilla.case
EndChar

StartChar: onesuperior
Encoding: 185 185 969
Width: 400
Flags: MW
HStem: 722 20G<193 300 300 300>
VStem: 183 117<321 632 632 632>
LayerCount: 2
Fore
SplineSet
300 321 m 1
 183 321 l 1
 183 632 l 1
 92 575 l 1
 39 653 l 1
 193 742 l 1
 300 742 l 1
 300 321 l 1
EndSplineSet
EndChar

StartChar: Agrave
Encoding: 192 192 6
Width: 590
GlyphClass: 2
Flags: MW
HStem: 0 21G<-13 157 -13 -13 430 430 430 604> 149 119<220 366 220 394 192 366> 574 119<293 293> 673 20G<196 395 395 395>
VStem: -13 617<0 0>
AnchorPoint: "Anchor-11" 0 0 basechar 0
AnchorPoint: "Anchor-10" 146 693 basechar 0
AnchorPoint: "Anchor-9" 296 693 basechar 0
AnchorPoint: "Anchor-8" 530 0 basechar 0
LayerCount: 2
Fore
SplineSet
389 751 m 1xd8
 149 838 l 1
 209 956 l 1
 429 831 l 1
 389 751 l 1xd8
394 149 m 1
 192 149 l 1
 157 0 l 1
 -13 0 l 1
 196 693 l 1
 395 693 l 1
 604 0 l 1
 430 0 l 1
 394 149 l 1
366 268 m 1
 293 574 l 1xe8
 220 268 l 1
 366 268 l 1
EndSplineSet
Substitution2: "'c2sc' Capitals to Small Capitals lookup 23 subtable" agrave.sc
Substitution2: "'aalt' Access All Alternates lookup 0 subtable" agrave.sc
Position2: "'cpsp' Capital Spacing lookup 0 subtable" dx=5 dy=0 dh=10 dv=0
EndChar
StartChar: Acircumflex
Encoding: 194 194 11
Width: 590
GlyphClass: 2
Flags: MW
HStem: 0 21G<-13 157 -13 -13 430 604 430 430> 149 119<220 366 220 395 192 366> 574 119<293 293> 673 20G<196 395 395 395>
VStem: -13 617<0 0>
AnchorPoint: "Anchor-14" 0 0 basechar 0
AnchorPoint: "Anchor-13" 403 830 basechar 0
AnchorPoint: "Anchor-12" 296 949 basechar 0
AnchorPoint: "Anchor-11" 530 0 basechar 0
AnchorPoint: "Anchor-10" 296 0 basechar 0
LayerCount: 2
Back
Fore
SplineSet
296 839 m 1xd8
 163 755 l 1
 106 820 l 1
 248 949 l 1
 344 949 l 1
 485 820 l 1
 429 755 l 1
 296 839 l 1xd8
430 0 m 1
 395 149 l 1
 192 149 l 1
 157 0 l 1
 -13 0 l 1
 196 693 l 1
 395 693 l 1
 604 0 l 1
 430 0 l 1
220 268 m 1
 366 268 l 1
 293 574 l 1xe8
 220 268 l 1
EndSplineSet
Substitution2: "'c2sc' Capitals to Small Capitals lookup 26 subtable" acircumflex.sc
Substitution2: "'aalt' Access All Alternates lookup 0 subtable" acircumflex.sc
Position2: "'cpsp' Capital Spacing lookup 0 subtable" dx=5 dy=0 dh=10 dv=0
EndChar

StartChar: Atilde
Encoding: 195 195 10
Width: 590
GlyphClass: 2
Flags: MW
HStem: 0 21G<-13 157 -13 -13 430 430 430 604> 149 119<220 366 220 394 192 366> 574 119<293 293> 673 20G<196 395 395 395> 761 112<336.5 364 336.5 385> 806 112<228 256.5>
VStem: -13 617<0 0>
AnchorPoint: "Anchor-11" 0 0 basechar 0
AnchorPoint: "Anchor-10" 146 693 basechar 0
AnchorPoint: "Anchor-9" 296 693 basechar 0
AnchorPoint: "Anchor-8" 530 0 basechar 0
LayerCount: 2
Fore
SplineSet
240 806 m 0xd6
 216 806 203 790 187 762 c 1
 108 800 l 1
 133 864 177 918 237 918 c 0xd6
 299 918 320 873 353 873 c 0
 375 873 389 888 405 917 c 1
 484 878 l 1
 458 811 413 761 357 761 c 0xda
 293 761 273 806 240 806 c 0xd6
394 149 m 1
 192 149 l 1
 157 0 l 1
 -13 0 l 1
 196 693 l 1
 395 693 l 1
 604 0 l 1
 430 0 l 1
 394 149 l 1
366 268 m 1
 293 574 l 1xe6
 220 268 l 1
 366 268 l 1
EndSplineSet
Substitution2: "'c2sc' Capitals to Small Capitals lookup 23 subtable" atilde.sc
Substitution2: "'aalt' Access All Alternates lookup 0 subtable" atilde.sc
Position2: "'cpsp' Capital Spacing lookup 0 subtable" dx=5 dy=0 dh=10 dv=0
EndChar

StartChar: Adieresis
Encoding: 196 196 5
Width: 590
GlyphClass: 2
Flags: MW
HStem: 0 21G<-13 157 -13 -13 430 430 430 604> 149 119<220 366 220 394 192 366> 574 119<293 293> 673 20G<196 395 395 395> 767 158<156.5 202 388.5 434>
VStem: 98 162<824 868> 330 162<824 868>
AnchorPoint: "Anchor-11" 0 0 basechar 0
AnchorPoint: "Anchor-10" 146 693 basechar 0
AnchorPoint: "Anchor-9" 293 843 basechar 0
AnchorPoint: "Anchor-8" 530 0 basechar 0
LayerCount: 2
Fore
SplineSet
179 767 m 0xde
 134 767 98 802 98 846 c 0
 98 890 134 925 179 925 c 0
 225 925 260 890 260 846 c 0
 260 802 225 767 179 767 c 0xde
411 767 m 0
 366 767 330 802 330 846 c 0
 330 890 366 925 411 925 c 0
 457 925 492 890 492 846 c 0
 492 802 457 767 411 767 c 0
394 149 m 1
 192 149 l 1
 157 0 l 1
 -13 0 l 1
 196 693 l 1
 395 693 l 1
 604 0 l 1
 430 0 l 1
 394 149 l 1
366 268 m 1
 293 574 l 1xee
 220 268 l 1
 366 268 l 1
EndSplineSet
Substitution2: "'c2sc' Capitals to Small Capitals lookup 23 subtable" adieresis.sc
Substitution2: "'aalt' Access All Alternates lookup 0 subtable" adieresis.sc
Position2: "'cpsp' Capital Spacing lookup 0 subtable" dx=5 dy=0 dh=10 dv=0
EndChar

StartChar: Aring
Encoding: 197 197 9
Width: 590
GlyphClass: 2
Flags: MW
HStem: 0 21G<-13 157 -13 -13 430 430 430 604> 149 119<220 366 220 394 192 366> 574 119<293 293> 673 20G<196 395 395 395> 731 81<282.5 309 282.5 339> 912 81<282.5 309.5>
VStem: 157 94<845.5 878.5 845.5 897.5> 341 94<845.5 878.5>
AnchorPoint: "Anchor-11" 0 0 basechar 0
AnchorPoint: "Anchor-10" 146 693 basechar 0
AnchorPoint: "Anchor-9" 296 693 basechar 0
AnchorPoint: "Anchor-8" 530 0 basechar 0
LayerCount: 2
Fore
SplineSet
296 731 m 0xdf
 210 731 157 791 157 862 c 0
 157 933 210 993 296 993 c 0
 382 993 435 933 435 862 c 0
 435 791 382 731 296 731 c 0xdf
296 912 m 0
 269 912 251 895 251 862 c 0
 251 829 269 812 296 812 c 0
 322 812 341 829 341 862 c 0
 341 895 323 912 296 912 c 0
394 149 m 1
 192 149 l 1
 157 0 l 1
 -13 0 l 1
 196 693 l 1
 395 693 l 1
 604 0 l 1
 430 0 l 1
 394 149 l 1
366 268 m 1
 293 574 l 1xef
 220 268 l 1
 366 268 l 1
EndSplineSet
Substitution2: "'c2sc' Capitals to Small Capitals lookup 23 subtable" aring.sc
Substitution2: "'aalt' Access All Alternates lookup 0 subtable" aring.sc
Position2: "'cpsp' Capital Spacing lookup 0 subtable" dx=5 dy=0 dh=10 dv=0
EndChar
StartChar: Ccedilla
Encoding: 199 199 47
Width: 575
GlyphClass: 2
Flags: MW
HStem: -262 86<314.5 340 313.5 383.5> -15 21G<383 383> -15 125<383 383> -13 21G<293 293> 589 121<311 379>
VStem: 33 172<264.5 433 264.5 464> 287 96 373 114<-157 -134>
AnchorPoint: "Anchor-14" 362 351 basechar 0
AnchorPoint: "Anchor-13" 0 0 basechar 0
AnchorPoint: "Anchor-12" 354 693 basechar 0
AnchorPoint: "Anchor-11" 0 0 basechar 0
AnchorPoint: "Anchor-10" 359 -262 basechar 0
LayerCount: 2
Back
Fore
SplineSet
567 72 m 1xac
 527 31 463 -7 383 -15 c 1
 383 -48 l 1xce
 455 -56 487 -93 487 -147 c 0
 487 -215 429 -262 338 -262 c 0
 291 -262 251 -249 226 -232 c 1
 262 -159 l 1
 282 -169 301 -176 326 -176 c 0
 354 -176 373 -168 373 -146 c 0x9d
 373 -122 345 -112 281 -112 c 1
 293 -13 l 1x9e
 135 11 33 135 33 348 c 0
 33 580 167 710 345 710 c 0
 439 710 502 682 559 634 c 1
 479 539 l 1
 442 571 403 589 355 589 c 0
 267 589 205 518 205 348 c 0
 205 181 266 110 358 110 c 0
 413 110 453 137 493 168 c 1
 567 72 l 1xac
EndSplineSet
Substitution2: "'c2sc' Capitals to Small Capitals lookup 26 subtable" ccedilla.sc
Substitution2: "'aalt' Access All Alternates lookup 0 subtable" ccedilla.sc
Position2: "'cpsp' Capital Spacing lookup 0 subtable" dx=5 dy=0 dh=10 dv=0
EndChar
StartChar: Eacute
Encoding: 201 201 68
Width: 526
GlyphClass: 2
Flags: MW
HStem: 0 118<229 490 229 490> 295 115<229 442 229 442> 576 117<229 473 229 229>
VStem: 65 164<118 295 410 576>
AnchorPoint: "Anchor-14" 0 0 basechar 0
AnchorPoint: "Anchor-13" 0 0 basechar 0
AnchorPoint: "Anchor-12" 281 956 basechar 0
AnchorPoint: "Anchor-11" 460 0 basechar 0
AnchorPoint: "Anchor-10" 277 0 basechar 0
LayerCount: 2
Back
Fore
SplineSet
358 956 m 1
 419 838 l 1
 179 751 l 1
 139 831 l 1
 358 956 l 1
490 693 m 1
 473 576 l 1
 229 576 l 1
 229 410 l 1
 442 410 l 1
 442 295 l 1
 229 295 l 1
 229 118 l 1
 490 118 l 1
 490 0 l 1
 65 0 l 1
 65 693 l 1
 490 693 l 1
EndSplineSet
Substitution2: "'c2sc' Capitals to Small Capitals lookup 26 subtable" eacute.sc
Substitution2: "'aalt' Access All Alternates lookup 0 subtable" eacute.sc
Position2: "'cpsp' Capital Spacing lookup 0 subtable" dx=5 dy=0 dh=10 dv=0
EndChar

StartChar: Ecircumflex
Encoding: 202 202 28
Width: 526
GlyphClass: 2
Flags: MW
HStem: 0 118<229 490 229 490> 295 115<229 442 229 442> 576 117<229 473 229 229>
VStem: 65 164<118 295 410 576>
AnchorPoint: "Anchor-11" 277 0 basechar 0
AnchorPoint: "Anchor-10" 61 693 basechar 0
AnchorPoint: "Anchor-9" 279 693 basechar 0
AnchorPoint: "Anchor-8" 460 0 basechar 0
LayerCount: 2
Fore
SplineSet
279 839 m 1
 146 755 l 1
 89 820 l 1
 231 949 l 1
 327 949 l 1
 468 820 l 1
 412 755 l 1
 279 839 l 1
473 576 m 1
 229 576 l 1
 229 410 l 1
 442 410 l 1
 442 295 l 1
 229 295 l 1
 229 118 l 1
 490 118 l 1
 490 0 l 1
 65 0 l 1
 65 693 l 1
 490 693 l 1
 473 576 l 1
EndSplineSet
Substitution2: "'c2sc' Capitals to Small Capitals lookup 23 subtable" ecircumflex.sc
Substitution2: "'aalt' Access All Alternates lookup 0 subtable" ecircumflex.sc
Position2: "'cpsp' Capital Spacing lookup 0 subtable" dx=5 dy=0 dh=10 dv=0
EndChar
StartChar: Edieresis
Encoding: 203 203 79
Width: 526
GlyphClass: 2
Flags: MW
HStem: 0 118<229 490 229 490> 295 115<229 442 229 442> 576 117<229 473 229 229> 767 158<139.5 185 371.5 417>
VStem: 65 164<118 295 410 576> 81 162<824 868> 313 162<824 868>
AnchorPoint: "Anchor-14" 0 0 basechar 0
AnchorPoint: "Anchor-13" 0 0 basechar 0
AnchorPoint: "Anchor-12" 280 925 basechar 0
AnchorPoint: "Anchor-11" 460 0 basechar 0
AnchorPoint: "Anchor-10" 277 0 basechar 0
LayerCount: 2
Back
Fore
SplineSet
162 925 m 0xf6
 208 925 243 890 243 846 c 0
 243 802 208 767 162 767 c 0
 117 767 81 802 81 846 c 0
 81 890 117 925 162 925 c 0xf6
394 925 m 0
 440 925 475 890 475 846 c 0
 475 802 440 767 394 767 c 0
 349 767 313 802 313 846 c 0
 313 890 349 925 394 925 c 0
490 693 m 1
 473 576 l 1
 229 576 l 1
 229 410 l 1
 442 410 l 1
 442 295 l 1
 229 295 l 1
 229 118 l 1
 490 118 l 1
 490 0 l 1
 65 0 l 1
 65 693 l 1xe8
 490 693 l 1
EndSplineSet
Substitution2: "'c2sc' Capitals to Small Capitals lookup 26 subtable" edieresis.sc
Substitution2: "'aalt' Access All Alternates lookup 0 subtable" edieresis.sc
Position2: "'cpsp' Capital Spacing lookup 0 subtable" dx=5 dy=0 dh=10 dv=0
EndChar

StartChar: Igrave
Encoding: 204 204 50
Width: 294
GlyphClass: 2
Flags: MW
HStem: 0 21G<65 229 65 65> 673 20G<65 229 229 229>
VStem: 65 164<0 693>
AnchorPoint: "Anchor-11" 0 0 basechar 0
AnchorPoint: "Anchor-10" 61 693 basechar 0
AnchorPoint: "Anchor-9" 147 693 basechar 0
AnchorPoint: "Anchor-8" 210 0 basechar 0
LayerCount: 2
Fore
SplineSet
280 831 m 1
 240 751 l 1
 0 838 l 1
 60 956 l 1
 280 831 l 1
229 0 m 1
 65 0 l 1
 65 693 l 1
 229 693 l 1
 229 0 l 1
EndSplineSet
Substitution2: "'c2sc' Capitals to Small Capitals lookup 23 subtable" igrave.sc
Substitution2: "'aalt' Access All Alternates lookup 0 subtable" igrave.sc
Position2: "'cpsp' Capital Spacing lookup 0 subtable" dx=5 dy=0 dh=10 dv=0
EndChar

StartChar: Iacute
Encoding: 205 205 45
Width: 294
GlyphClass: 2
Flags: MW
HStem: 0 21G<65 229 65 65> 673 20G<65 229 229 229>
VStem: 65 164<0 693>
AnchorPoint: "Anchor-11" 0 0 basechar 0
AnchorPoint: "Anchor-10" 61 693 basechar 0
AnchorPoint: "Anchor-9" 147 693 basechar 0
AnchorPoint: "Anchor-8" 210 0 basechar 0
LayerCount: 2
Fore
SplineSet
284 838 m 1
 44 751 l 1
 4 831 l 1
 223 956 l 1
 284 838 l 1
229 0 m 1
 65 0 l 1
 65 693 l 1
 229 693 l 1
 229 0 l 1
EndSplineSet
Substitution2: "'c2sc' Capitals to Small Capitals lookup 23 subtable" iacute.sc
Substitution2: "'aalt' Access All Alternates lookup 0 subtable" iacute.sc
Position2: "'cpsp' Capital Spacing lookup 0 subtable" dx=5 dy=0 dh=10 dv=0
EndChar
StartChar: Icircumflex
Encoding: 206 206 123
Width: 293
GlyphClass: 2
Flags: MW
HStem: 0 21G<65 229 65 65> 673 20G<65 229 229 229>
VStem: 65 164<0 693 0 693>
AnchorPoint: "Anchor-14" 0 0 basechar 0
AnchorPoint: "Anchor-13" 253 830 basechar 0
AnchorPoint: "Anchor-12" 146 949 basechar 0
AnchorPoint: "Anchor-11" 210 0 basechar 0
AnchorPoint: "Anchor-10" 146 0 basechar 0
LayerCount: 2
Back
Fore
SplineSet
279 755 m 1
 146 839 l 1
 13 755 l 1
 -44 820 l 1
 98 949 l 1
 194 949 l 1
 335 820 l 1
 279 755 l 1
229 693 m 1
 229 0 l 1
 65 0 l 1
 65 693 l 1
 229 693 l 1
EndSplineSet
Substitution2: "'c2sc' Capitals to Small Capitals lookup 26 subtable" icircumflex.sc
Substitution2: "'aalt' Access All Alternates lookup 0 subtable" icircumflex.sc
Position2: "'cpsp' Capital Spacing lookup 0 subtable" dx=5 dy=0 dh=10 dv=0
EndChar
StartChar: Idieresis
Encoding: 207 207 125
Width: 293
GlyphClass: 2
Flags: MW
HStem: 0 21G<65 229 65 65> 673 20G<65 229 229 229> 767 158<7.5 53 239.5 285>
VStem: -51 162<824 868> 65 164<0 693 0 693> 181 162<824 868>
AnchorPoint: "Anchor-14" 0 0 basechar 0
AnchorPoint: "Anchor-13" 0 0 basechar 0
AnchorPoint: "Anchor-12" 148 925 basechar 0
AnchorPoint: "Anchor-11" 210 0 basechar 0
AnchorPoint: "Anchor-10" 146 0 basechar 0
LayerCount: 2
Back
Fore
SplineSet
30 925 m 0xf4
 76 925 111 890 111 846 c 0
 111 802 76 767 30 767 c 0
 -15 767 -51 802 -51 846 c 0
 -51 890 -15 925 30 925 c 0xf4
262 925 m 0
 308 925 343 890 343 846 c 0
 343 802 308 767 262 767 c 0
 217 767 181 802 181 846 c 0
 181 890 217 925 262 925 c 0
229 693 m 1xe8
 229 0 l 1
 65 0 l 1
 65 693 l 1
 229 693 l 1xe8
EndSplineSet
Substitution2: "'c2sc' Capitals to Small Capitals lookup 26 subtable" idieresis.sc
Substitution2: "'aalt' Access All Alternates lookup 0 subtable" idieresis.sc
Position2: "'cpsp' Capital Spacing lookup 0 subtable" dx=5 dy=0 dh=10 dv=0
EndChar

StartChar: Ntilde
Encoding: 209 209 70
Width: 663
GlyphClass: 2
Flags: MW
HStem: 0 21G<65 211 65 65 390 599 390 390> 0 155<474 474 474 599 390 474> 537 156<190 190> 673 20G<65 269 269 269 452 599 599 599> 761 112<376.5 404 376.5 425> 806 112<268 296.5>
VStem: 65 146<0 254 0 693> 452 147<413 693>
AnchorPoint: "Anchor-11" 332 0 basechar 0
AnchorPoint: "Anchor-10" 0 0 basechar 0
AnchorPoint: "Anchor-9" 336 693 basechar 0
AnchorPoint: "Anchor-8" 0 0 basechar 0
LayerCount: 2
Fore
SplineSet
397 761 m 0x9b
 333 761 313 806 280 806 c 0
 256 806 243 790 227 762 c 1
 148 800 l 1
 173 864 217 918 277 918 c 0x97
 339 918 360 873 393 873 c 0
 415 873 429 888 445 917 c 1
 524 878 l 1
 498 811 453 761 397 761 c 0x9b
599 0 m 1x97
 390 0 l 1
 190 537 l 1xa7
 198 474 211 382 211 254 c 2
 211 0 l 1
 65 0 l 1
 65 693 l 1
 269 693 l 1
 474 155 l 1x57
 465 211 452 302 452 413 c 2
 452 693 l 1
 599 693 l 1
 599 0 l 1x97
EndSplineSet
Substitution2: "'c2sc' Capitals to Small Capitals lookup 23 subtable" ntilde.sc
Substitution2: "'aalt' Access All Alternates lookup 0 subtable" ntilde.sc
Position2: "'cpsp' Capital Spacing lookup 0 subtable" dx=5 dy=0 dh=10 dv=0
EndChar
StartChar: Ograve
Encoding: 210 210 195
Width: 691
GlyphClass: 2
Flags: MW
HStem: -17 120<300 392 300 443> 590 120<299 391.5>
VStem: 33 172<259 434.5 259 460> 486 172<259 434.5>
AnchorPoint: "Anchor-14" 0 0 basechar 0
AnchorPoint: "Anchor-13" 574 693 basechar 0
AnchorPoint: "Anchor-12" 347 956 basechar 0
AnchorPoint: "Anchor-11" 468 0 basechar 0
AnchorPoint: "Anchor-10" 345 0 basechar 0
LayerCount: 2
Back
Fore
SplineSet
262 956 m 1
 482 831 l 1
 442 751 l 1
 202 838 l 1
 262 956 l 1
345 710 m 0
 541 710 658 578 658 347 c 0
 658 120 541 -17 345 -17 c 0
 150 -17 33 116 33 347 c 0
 33 573 150 710 345 710 c 0
345 590 m 0
 253 590 205 522 205 347 c 0
 205 171 255 103 345 103 c 0
 439 103 486 171 486 347 c 0
 486 522 438 590 345 590 c 0
EndSplineSet
Substitution2: "'c2sc' Capitals to Small Capitals lookup 26 subtable" ograve.sc
Substitution2: "'aalt' Access All Alternates lookup 0 subtable" ograve.sc
Position2: "'cpsp' Capital Spacing lookup 0 subtable" dx=5 dy=0 dh=10 dv=0
EndChar
StartChar: Oacute
Encoding: 211 211 178
Width: 691
GlyphClass: 2
Flags: MW
HStem: -17 120<300 392 300 443> 590 120<299 391.5>
VStem: 33 172<259 434.5 259 460> 486 172<259 434.5>
AnchorPoint: "Anchor-14" 0 0 basechar 0
AnchorPoint: "Anchor-13" 574 693 basechar 0
AnchorPoint: "Anchor-12" 347 956 basechar 0
AnchorPoint: "Anchor-11" 468 0 basechar 0
AnchorPoint: "Anchor-10" 345 0 basechar 0
LayerCount: 2
Back
Fore
SplineSet
424 956 m 1
 485 838 l 1
 245 751 l 1
 205 831 l 1
 424 956 l 1
345 710 m 0
 541 710 658 578 658 347 c 0
 658 120 541 -17 345 -17 c 0
 150 -17 33 116 33 347 c 0
 33 573 150 710 345 710 c 0
345 590 m 0
 253 590 205 522 205 347 c 0
 205 171 255 103 345 103 c 0
 439 103 486 171 486 347 c 0
 486 522 438 590 345 590 c 0
EndSplineSet
Substitution2: "'c2sc' Capitals to Small Capitals lookup 26 subtable" oacute.sc
Substitution2: "'locl' Localized Forms in Latin lookup 7 subtable" Oacute.loclPLK
AlternateSubs2: "'aalt' Access All Alternates lookup 1 subtable" Oacute.loclPLK oacute.sc
Position2: "'cpsp' Capital Spacing lookup 0 subtable" dx=5 dy=0 dh=10 dv=0
EndChar

StartChar: Ocircumflex
Encoding: 212 212 74
Width: 691
GlyphClass: 2
Flags: MW
HStem: -17 120<300 392 300 443> 590 120<299 391.5>
VStem: 33 172<259 434.5 259 460> 486 172<259 434.5>
AnchorPoint: "Anchor-11" 0 0 basechar 0
AnchorPoint: "Anchor-10" 107 693 basechar 0
AnchorPoint: "Anchor-9" 347 693 basechar 0
AnchorPoint: "Anchor-8" 0 0 basechar 0
LayerCount: 2
Fore
SplineSet
347 839 m 1
 214 755 l 1
 157 820 l 1
 299 949 l 1
 395 949 l 1
 536 820 l 1
 480 755 l 1
 347 839 l 1
345 710 m 0
 541 710 658 578 658 347 c 0
 658 120 541 -17 345 -17 c 0
 150 -17 33 116 33 347 c 0
 33 573 150 710 345 710 c 0
345 590 m 0
 253 590 205 522 205 347 c 0
 205 171 255 103 345 103 c 0
 439 103 486 171 486 347 c 0
 486 522 438 590 345 590 c 0
EndSplineSet
Substitution2: "'c2sc' Capitals to Small Capitals lookup 23 subtable" ocircumflex.sc
Substitution2: "'aalt' Access All Alternates lookup 0 subtable" ocircumflex.sc
Position2: "'cpsp' Capital Spacing lookup 0 subtable" dx=5 dy=0 dh=10 dv=0
EndChar
StartChar: Otilde
Encoding: 213 213 214
Width: 691
GlyphClass: 2
Flags: MW
HStem: -17 120<300 392 300 443> 590 120<299 391.5> 761 112<385.5 413 385.5 432.5> 806 112<277 305.5>
VStem: 33 172<259 434.5 259 460> 486 172<259 434.5>
AnchorPoint: "Anchor-14" 0 0 basechar 0
AnchorPoint: "Anchor-13" 574 693 basechar 0
AnchorPoint: "Anchor-12" 347 918 basechar 0
AnchorPoint: "Anchor-11" 468 0 basechar 0
AnchorPoint: "Anchor-10" 345 0 basechar 0
LayerCount: 2
Back
Fore
SplineSet
403 761 m 0xec
 345 761 322 806 289 806 c 0
 265 806 252 790 236 762 c 1
 157 800 l 1
 182 864 226 918 286 918 c 0xdc
 347 918 369 873 402 873 c 0
 424 873 438 888 454 917 c 1
 533 878 l 1
 507 811 462 761 403 761 c 0xec
345 710 m 0xdc
 541 710 658 578 658 347 c 0
 658 120 541 -17 345 -17 c 0
 150 -17 33 116 33 347 c 0
 33 573 150 710 345 710 c 0xdc
345 590 m 0
 253 590 205 522 205 347 c 0
 205 171 255 103 345 103 c 0
 439 103 486 171 486 347 c 0
 486 522 438 590 345 590 c 0
EndSplineSet
Substitution2: "'c2sc' Capitals to Small Capitals lookup 26 subtable" otilde.sc
Substitution2: "'aalt' Access All Alternates lookup 0 subtable" otilde.sc
Position2: "'cpsp' Capital Spacing lookup 0 subtable" dx=5 dy=0 dh=10 dv=0
EndChar
StartChar: Odieresis
Encoding: 214 214 190
Width: 691
GlyphClass: 2
Flags: MW
HStem: -17 120<300 392 300 443> 590 120<299 391.5> 767 158<206.5 252 438.5 484>
VStem: 33 172<259 434.5 259 460> 148 162<824 868> 380 162<824 868> 486 172<259 434.5>
AnchorPoint: "Anchor-14" 0 0 basechar 0
AnchorPoint: "Anchor-13" 574 693 basechar 0
AnchorPoint: "Anchor-12" 347 925 basechar 0
AnchorPoint: "Anchor-11" 468 0 basechar 0
AnchorPoint: "Anchor-10" 345 0 basechar 0
LayerCount: 2
Back
Fore
SplineSet
229 925 m 0xec
 275 925 310 890 310 846 c 0
 310 802 275 767 229 767 c 0
 184 767 148 802 148 846 c 0
 148 890 184 925 229 925 c 0xec
461 925 m 0
 507 925 542 890 542 846 c 0
 542 802 507 767 461 767 c 0
 416 767 380 802 380 846 c 0
 380 890 416 925 461 925 c 0
345 710 m 0xf2
 541 710 658 578 658 347 c 0
 658 120 541 -17 345 -17 c 0
 150 -17 33 116 33 347 c 0
 33 573 150 710 345 710 c 0xf2
345 590 m 0
 253 590 205 522 205 347 c 0
 205 171 255 103 345 103 c 0
 439 103 486 171 486 347 c 0
 486 522 438 590 345 590 c 0
EndSplineSet
Substitution2: "'c2sc' Capitals to Small Capitals lookup 26 subtable" odieresis.sc
Substitution2: "'aalt' Access All Alternates lookup 0 subtable" odieresis.sc
Position2: "'cpsp' Capital Spacing lookup 0 subtable" dx=5 dy=0 dh=10 dv=0
EndChar
StartChar: multiply
Encoding: 215 215 2266
Width: 519
GlyphClass: 2
Flags: MW
HStem: 103 407<143 143 143 376>
VStem: 56 407<190 190 190 423>
LayerCount: 2
Back
Fore
SplineSet
376 510 m 1
 463 423 l 1
 345 306 l 1
 463 190 l 1
 376 103 l 1
 259 221 l 1
 143 103 l 1
 56 190 l 1
 174 306 l 1
 56 423 l 1
 143 510 l 1
 259 392 l 1
 376 510 l 1
EndSplineSet
Substitution2: "'onum' Oldstyle Figures lookup 25 subtable" multiply.osf
Substitution2: "'tnum' Tabular Numbers lookup 24 subtable" multiply.tf
AlternateSubs2: "'aalt' Access All Alternates lookup 1 subtable" multiply.tf multiply.osf
EndChar

StartChar: Uacute
Encoding: 218 218 102
Width: 651
GlyphClass: 2
Flags: MW
HStem: -17 122<288 362.5 288 415.5> 673 20G<55 219 219 219 432 596 596 596>
VStem: 55 164<230 237 237 693> 432 164<237 693>
AnchorPoint: "Anchor-11" 0 0 basechar 0
AnchorPoint: "Anchor-10" 0 0 basechar 0
AnchorPoint: "Anchor-9" 325 693 basechar 0
AnchorPoint: "Anchor-8" 448 0 basechar 0
LayerCount: 2
Fore
SplineSet
463 838 m 1
 223 751 l 1
 183 831 l 1
 402 956 l 1
 463 838 l 1
596 230 m 2
 596 90 506 -17 325 -17 c 0
 144 -17 55 84 55 230 c 2
 55 693 l 1
 219 693 l 1
 219 237 l 2
 219 148 251 105 325 105 c 0
 400 105 432 148 432 237 c 2
 432 693 l 1
 596 693 l 1
 596 230 l 2
EndSplineSet
Substitution2: "'c2sc' Capitals to Small Capitals lookup 23 subtable" uacute.sc
Substitution2: "'aalt' Access All Alternates lookup 0 subtable" uacute.sc
Position2: "'cpsp' Capital Spacing lookup 0 subtable" dx=5 dy=0 dh=10 dv=0
EndChar

StartChar: Udieresis
Encoding: 220 220 105
Width: 651
GlyphClass: 2
Flags: MW
HStem: -17 122<288 362.5 288 415.5> 673 20G<55 219 219 219 432 596 596 596> 767 158<186.5 232 418.5 464>
VStem: 55 164<230 237 237 693> 128 162<824 868> 360 162<824 868> 432 164<237 693>
AnchorPoint: "Anchor-11" 0 0 basechar 0
AnchorPoint: "Anchor-10" 0 0 basechar 0
AnchorPoint: "Anchor-9" 323 843 basechar 0
AnchorPoint: "Anchor-8" 448 0 basechar 0
LayerCount: 2
Fore
SplineSet
209 925 m 0xf2
 255 925 290 890 290 846 c 0xea
 290 802 255 767 209 767 c 0
 164 767 128 802 128 846 c 0
 128 890 164 925 209 925 c 0xf2
441 925 m 0
 487 925 522 890 522 846 c 0xf2
 522 802 487 767 441 767 c 0
 396 767 360 802 360 846 c 0xf4
 360 890 396 925 441 925 c 0
596 230 m 2
 596 90 506 -17 325 -17 c 0
 144 -17 55 84 55 230 c 2
 55 693 l 1
 219 693 l 1
 219 237 l 2
 219 148 251 105 325 105 c 0
 400 105 432 148 432 237 c 2
 432 693 l 1
 596 693 l 1
 596 230 l 2
EndSplineSet
Substitution2: "'c2sc' Capitals to Small Capitals lookup 23 subtable" udieresis.sc
Substitution2: "'aalt' Access All Alternates lookup 0 subtable" udieresis.sc
Position2: "'cpsp' Capital Spacing lookup 0 subtable" dx=5 dy=0 dh=10 dv=0
EndChar
StartChar: Yacute
Encoding: 221 221 303
Width: 594
GlyphClass: 2
Flags: MW
HStem: 0 21G<215 379 215 215> 673 20G<-7 172 172 172 428 601 601 601>
VStem: 215 164<0 259 259 259>
AnchorPoint: "Anchor-14" 0 0 basechar 0
AnchorPoint: "Anchor-13" 0 0 basechar 0
AnchorPoint: "Anchor-12" 299 956 basechar 0
AnchorPoint: "Anchor-11" 0 0 basechar 0
AnchorPoint: "Anchor-10" 297 0 basechar 0
LayerCount: 2
Back
Fore
SplineSet
376 956 m 1
 437 838 l 1
 197 751 l 1
 157 831 l 1
 376 956 l 1
601 693 m 1
 379 260 l 1
 379 0 l 1
 215 0 l 1
 215 259 l 1
 -7 693 l 1
 172 693 l 1
 300 388 l 1
 428 693 l 1
 601 693 l 1
EndSplineSet
Substitution2: "'c2sc' Capitals to Small Capitals lookup 26 subtable" yacute.sc
Substitution2: "'aalt' Access All Alternates lookup 0 subtable" yacute.sc
Position2: "'cpsp' Capital Spacing lookup 0 subtable" dx=5 dy=0 dh=10 dv=0
EndChar

StartChar: Thorn
Encoding: 222 222 84
Width: 600
GlyphClass: 2
Flags: MW
HStem: 0 21G<65 229 65 65> 114 119<229 290 290 304 229 290> 468 117<229 287 229 289> 673 20G<65 229 229 229>
VStem: 65 164<0 114 0 233 233 468 585 693> 409 169<310 394.5>
AnchorPoint: "Anchor-11" 0 0 basechar 0
AnchorPoint: "Anchor-10" 0 0 basechar 0
AnchorPoint: "Anchor-9" 91 433 basechar 0
AnchorPoint: "Anchor-8" 0 0 basechar 0
LayerCount: 2
Fore
SplineSet
289 585 m 2
 468 585 578 510 578 356 c 0
 578 190 464 114 304 114 c 2
 229 114 l 1
 229 0 l 1
 65 0 l 1
 65 693 l 1
 229 693 l 1
 229 585 l 1
 289 585 l 2
290 233 m 2
 364 233 409 264 409 356 c 0
 409 433 368 468 287 468 c 2
 229 468 l 1
 229 233 l 1
 290 233 l 2
EndSplineSet
Substitution2: "'c2sc' Capitals to Small Capitals lookup 23 subtable" thorn.sc
Substitution2: "'aalt' Access All Alternates lookup 0 subtable" thorn.sc
Position2: "'cpsp' Capital Spacing lookup 0 subtable" dx=5 dy=0 dh=10 dv=0
EndChar
StartChar: germandbls
Encoding: 223 223 634
Width: 606
GlyphClass: 2
Flags: MW
HStem: -17 122<362.5 384 355.5 442.5> 0 21G<62 220 62 62> 647 112<269 312.5>
VStem: 62 158<0 533 533 538 0 603> 267 137<393.5 457.5> 356 149<559 608> 425 163<147.5 223.5>
LayerCount: 2
Back
Fore
SplineSet
298 759 m 0x74
 432 759 505 689 505 609 c 0
 505 509 404 490 404 431 c 0
 404 356 588 342 588 166 c 0
 588 51 499 -17 386 -17 c 0
 339 -17 298 -6 267 10 c 1
 314 117 l 1
 329 109 345 105 366 105 c 0
 402 105 425 126 425 169 c 0xb2
 425 278 267 275 267 405 c 0x7a
 267 510 356 506 356 590 c 0
 356 626 331 647 294 647 c 0
 244 647 220 610 220 538 c 2
 220 0 l 1
 62 0 l 1
 62 533 l 2
 62 673 145 759 298 759 c 0x74
EndSplineSet
Substitution2: "'smcp' Lowercase to Small Capitals lookup 27 subtable" germandbls.sc
Substitution2: "'aalt' Access All Alternates lookup 0 subtable" germandbls.sc
EndChar
StartChar: aacute
Encoding: 225 225 336
Width: 548
GlyphClass: 2
Flags: MW
HStem: -17 113<225.5 230.5> -14 21G<487 487> 241 87<275 290 290 329> 433 115<234 271.5>
VStem: 26 157<142 189.5 142 207> 329 155<146 154 154 241 241 241 328 351 351 360>
AnchorPoint: "Anchor-14" 0 0 basechar 0
AnchorPoint: "Anchor-13" 0 0 basechar 0
AnchorPoint: "Anchor-12" 272 835 basechar 0
AnchorPoint: "Anchor-11" 497 -14 basechar 0
AnchorPoint: "Anchor-10" 271 0 basechar 0
LayerCount: 2
Back
Fore
SplineSet
405 717 m 1x7c
 169 622 l 1
 125 703 l 1
 343 835 l 1
 405 717 l 1x7c
484 154 m 2
 484 113 495 98 520 89 c 1
 487 -14 l 1x7c
 425 -9 384 10 359 62 c 1
 321 4 262 -17 199 -17 c 0xbc
 93 -17 26 52 26 149 c 0
 26 265 114 328 275 328 c 2
 329 328 l 1
 329 351 l 2
 329 414 304 433 239 433 c 0
 205 433 153 423 100 405 c 1
 64 509 l 1
 131 534 204 548 264 548 c 0
 418 548 484 483 484 360 c 2
 484 154 l 2
245 96 m 0xbc
 281 96 310 115 329 146 c 1
 329 241 l 1
 290 241 l 2
 218 241 183 216 183 163 c 0
 183 121 206 96 245 96 c 0xbc
EndSplineSet
Substitution2: "'smcp' Lowercase to Small Capitals lookup 27 subtable" aacute.sc
Substitution2: "'aalt' Access All Alternates lookup 0 subtable" aacute.sc
EndChar
StartChar: atilde
Encoding: 227 227 366
Width: 548
GlyphClass: 2
Flags: MW
HStem: -17 113<225.5 230.5> -14 21G<487 487> 241 87<275 290 290 329> 433 115<234 271.5> 635 112<311.5 339 311.5 358.5> 680 112<203 231.5> 732 20G<459 459>
VStem: 26 157<142 189.5 142 207> 329 155<146 154 154 241 241 241 328 351 351 360>
AnchorPoint: "Anchor-14" 0 0 basechar 0
AnchorPoint: "Anchor-13" 0 0 basechar 0
AnchorPoint: "Anchor-12" 271 749 basechar 0
AnchorPoint: "Anchor-11" 497 -14 basechar 0
AnchorPoint: "Anchor-10" 271 0 basechar 0
LayerCount: 2
Back
Fore
SplineSet
215 680 m 0x7480
 191 680 178 664 162 636 c 1
 83 674 l 1x7480
 108 738 152 792 212 792 c 0
 273 792 295 747 328 747 c 0
 350 747 364 762 380 791 c 1x7880
 459 752 l 1x7280
 433 685 388 635 329 635 c 0x7880
 271 635 248 680 215 680 c 0x7480
484 154 m 2xb380
 484 113 495 98 520 89 c 1
 487 -14 l 1x7280
 425 -9 384 10 359 62 c 1
 321 4 262 -17 199 -17 c 0
 93 -17 26 52 26 149 c 0
 26 265 114 328 275 328 c 2
 329 328 l 1
 329 351 l 2
 329 414 304 433 239 433 c 0
 205 433 153 423 100 405 c 1
 64 509 l 1
 131 534 204 548 264 548 c 0
 418 548 484 483 484 360 c 2
 484 154 l 2xb380
245 96 m 0
 281 96 310 115 329 146 c 1
 329 241 l 1
 290 241 l 2
 218 241 183 216 183 163 c 0
 183 121 206 96 245 96 c 0
EndSplineSet
Substitution2: "'smcp' Lowercase to Small Capitals lookup 27 subtable" atilde.sc
Substitution2: "'aalt' Access All Alternates lookup 0 subtable" atilde.sc
EndChar

StartChar: igrave
Encoding: 236 236 183
Width: 282
GlyphClass: 2
Flags: MW
HStem: 0 21G<62 220 62 62> 511 20G<62 220 220 220> 683 20G<291 291>
VStem: 62 158<0 531>
AnchorPoint: "Anchor-11" 0 0 basechar 0
AnchorPoint: "Anchor-10" 0 0 basechar 0
AnchorPoint: "Anchor-9" 141 531 basechar 0
AnchorPoint: "Anchor-8" 205 0 basechar 0
LayerCount: 2
Fore
SplineSet
291 703 m 1
 247 622 l 1
 11 717 l 1
 73 835 l 1
 291 703 l 1
220 0 m 1
 62 0 l 1
 62 531 l 1
 220 531 l 1
 220 0 l 1
EndSplineSet
Substitution2: "'smcp' Lowercase to Small Capitals lookup 24 subtable" igrave.sc
Substitution2: "'aalt' Access All Alternates lookup 0 subtable" igrave.sc
EndChar

StartChar: iacute
Encoding: 237 237 178
Width: 282
GlyphClass: 2
Flags: MW
HStem: 0 21G<62 220 62 62> 511 20G<62 220 220 220>
VStem: 62 158<0 531>
AnchorPoint: "Anchor-11" 0 0 basechar 0
AnchorPoint: "Anchor-10" 0 0 basechar 0
AnchorPoint: "Anchor-9" 141 531 basechar 0
AnchorPoint: "Anchor-8" 205 0 basechar 0
LayerCount: 2
Fore
SplineSet
271 717 m 1
 35 622 l 1
 -9 703 l 1
 209 835 l 1
 271 717 l 1
220 0 m 1
 62 0 l 1
 62 531 l 1
 220 531 l 1
 220 0 l 1
EndSplineSet
Substitution2: "'smcp' Lowercase to Small Capitals lookup 24 subtable" iacute.sc
Substitution2: "'aalt' Access All Alternates lookup 0 subtable" iacute.sc
EndChar
StartChar: icircumflex
Encoding: 238 238 483
Width: 282
GlyphClass: 2
Flags: MW
HStem: 0 21G<62 220 62 62> 511 20G<62 220 220 220>
VStem: 62 158<0 531 0 531>
AnchorPoint: "Anchor-14" 0 0 basechar 0
AnchorPoint: "Anchor-13" 0 0 basechar 0
AnchorPoint: "Anchor-12" 143 822 basechar 0
AnchorPoint: "Anchor-11" 205 0 basechar 0
AnchorPoint: "Anchor-10" 141 0 basechar 0
LayerCount: 2
Back
Fore
SplineSet
7 620 m 1
 -49 685 l 1
 92 822 l 1
 189 822 l 1
 330 685 l 1
 274 620 l 1
 141 712 l 1
 7 620 l 1
220 531 m 1
 220 0 l 1
 62 0 l 1
 62 531 l 1
 220 531 l 1
EndSplineSet
Substitution2: "'smcp' Lowercase to Small Capitals lookup 27 subtable" icircumflex.sc
Substitution2: "'aalt' Access All Alternates lookup 0 subtable" icircumflex.sc
EndChar

StartChar: idieresis
Encoding: 239 239 181
Width: 282
GlyphClass: 2
Flags: MW
HStem: 0 21G<62 220 62 62> 511 20G<62 220 220 220> 641 158<2.5 48 234.5 280>
VStem: -56 162<698 742> 62 158<0 531> 176 162<698 742>
AnchorPoint: "Anchor-11" 0 0 basechar 0
AnchorPoint: "Anchor-10" 0 0 basechar 0
AnchorPoint: "Anchor-9" 139 717 basechar 0
AnchorPoint: "Anchor-8" 205 0 basechar 0
LayerCount: 2
Fore
SplineSet
25 799 m 0xf4
 71 799 106 764 106 720 c 0
 106 676 71 641 25 641 c 0
 -20 641 -56 676 -56 720 c 0
 -56 764 -20 799 25 799 c 0xf4
257 799 m 0
 303 799 338 764 338 720 c 0
 338 676 303 641 257 641 c 0
 212 641 176 676 176 720 c 0
 176 764 212 799 257 799 c 0
220 0 m 1xe8
 62 0 l 1
 62 531 l 1
 220 531 l 1
 220 0 l 1xe8
EndSplineSet
Substitution2: "'smcp' Lowercase to Small Capitals lookup 24 subtable" idieresis.sc
Substitution2: "'aalt' Access All Alternates lookup 0 subtable" idieresis.sc
EndChar
StartChar: eth
Encoding: 240 240 392
Width: 579
GlyphClass: 2
Flags: MW
HStem: -17 115<257 317.5 257 365.5> 369 110<250 268 179.5 303> 553 20G<116 116> 738 20G<113 113>
VStem: 32 161<188 276.5 188 302> 381 161<203 268.5>
AnchorPoint: "Anchor-14" 0 0 basechar 0
AnchorPoint: "Anchor-13" 0 0 basechar 0
AnchorPoint: "Anchor-12" 307 742 basechar 0
AnchorPoint: "Anchor-11" 0 0 basechar 0
AnchorPoint: "Anchor-10" 284 0 basechar 0
LayerCount: 2
Back
Fore
SplineSet
357 670 m 1
 495 572 542 445 542 277 c 0
 542 113 448 -17 283 -17 c 0
 141 -17 32 75 32 234 c 0
 32 370 119 479 240 479 c 0
 296 479 337 462 372 432 c 1
 354 492 326 538 270 582 c 1
 215 527 l 1
 116 573 l 1
 172 633 l 1
 139 643 108 650 81 654 c 1
 113 758 l 1
 160 750 202 741 258 721 c 1
 332 798 l 1
 412 727 l 1
 357 670 l 1
285 98 m 0
 350 98 381 150 381 256 c 0
 381 281 380 304 380 327 c 1
 355 354 323 369 283 369 c 0
 217 369 193 316 193 237 c 0
 193 139 229 98 285 98 c 0
EndSplineSet
Substitution2: "'smcp' Lowercase to Small Capitals lookup 27 subtable" eth.sc
Substitution2: "'aalt' Access All Alternates lookup 0 subtable" eth.sc
EndChar

StartChar: ntilde
Encoding: 241 241 207
Width: 577
GlyphClass: 2
Flags: MW
HStem: 0 21G<62 220 62 62 362 520 362 362> 432 116<294.5 419> 511 20G<62 200 200 200> 635 112<333.5 361 333.5 382> 680 112<225 253.5> 732 20G<481 481>
VStem: 62 158<0 363 0 531> 362 158<0 361 361 388 0 389>
AnchorPoint: "Anchor-11" 289 0 basechar 0
AnchorPoint: "Anchor-10" 0 0 basechar 0
AnchorPoint: "Anchor-9" 294 531 basechar 0
AnchorPoint: "Anchor-8" 0 0 basechar 0
LayerCount: 2
Fore
SplineSet
237 680 m 0xab
 213 680 200 664 184 636 c 1
 105 674 l 1xab
 130 738 174 792 234 792 c 0
 296 792 317 747 350 747 c 0
 372 747 386 762 402 791 c 1xb3
 481 752 l 1xa7
 455 685 410 635 354 635 c 0xb3
 290 635 270 680 237 680 c 0xab
373 548 m 0xc7
 465 548 520 489 520 388 c 2
 520 0 l 1
 362 0 l 1
 362 361 l 2
 362 417 343 432 312 432 c 0
 277 432 248 407 220 363 c 1xc7
 220 0 l 1
 62 0 l 1
 62 531 l 1
 200 531 l 1xa7
 211 468 l 1
 256 521 307 548 373 548 c 0xc7
EndSplineSet
Substitution2: "'smcp' Lowercase to Small Capitals lookup 24 subtable" ntilde.sc
Substitution2: "'aalt' Access All Alternates lookup 0 subtable" ntilde.sc
EndChar
StartChar: ograve
Encoding: 242 242 571
Width: 584
GlyphClass: 2
Flags: MW
HStem: -17 116<260 324 260 373> 432 116<260 324> 683 20G<442 442>
VStem: 32 164<207 323.5 207 351> 388 164<207.5 324>
AnchorPoint: "Anchor-14" 0 0 basechar 0
AnchorPoint: "Anchor-13" 497 531 basechar 0
AnchorPoint: "Anchor-12" 304 835 basechar 0
AnchorPoint: "Anchor-11" 402 0 basechar 0
AnchorPoint: "Anchor-10" 292 0 basechar 0
LayerCount: 2
Back
Fore
SplineSet
224 835 m 1
 442 703 l 1
 398 622 l 1
 162 717 l 1
 224 835 l 1
292 548 m 0
 454 548 552 444 552 265 c 0
 552 95 454 -17 292 -17 c 0
 131 -17 32 87 32 266 c 0
 32 436 130 548 292 548 c 0
292 432 m 0
 228 432 196 381 196 266 c 0
 196 148 228 99 292 99 c 0
 356 99 388 150 388 265 c 0
 388 383 356 432 292 432 c 0
EndSplineSet
Substitution2: "'smcp' Lowercase to Small Capitals lookup 27 subtable" ograve.sc
Substitution2: "'aalt' Access All Alternates lookup 0 subtable" ograve.sc
EndChar
StartChar: ocircumflex
Encoding: 244 244 559
Width: 584
GlyphClass: 2
Flags: MW
HStem: -17 116<260 324 260 373> 432 116<260 324>
VStem: 32 164<207 323.5 207 351> 388 164<207.5 324>
AnchorPoint: "Anchor-14" 0 0 basechar 0
AnchorPoint: "Anchor-13" 497 531 basechar 0
AnchorPoint: "Anchor-12" 294 822 basechar 0
AnchorPoint: "Anchor-11" 402 0 basechar 0
AnchorPoint: "Anchor-10" 292 0 basechar 0
LayerCount: 2
Back
Fore
SplineSet
158 620 m 1
 102 685 l 1
 243 822 l 1
 340 822 l 1
 481 685 l 1
 425 620 l 1
 292 712 l 1
 158 620 l 1
292 548 m 0
 454 548 552 444 552 265 c 0
 552 95 454 -17 292 -17 c 0
 131 -17 32 87 32 266 c 0
 32 436 130 548 292 548 c 0
292 432 m 0
 228 432 196 381 196 266 c 0
 196 148 228 99 292 99 c 0
 356 99 388 150 388 265 c 0
 388 383 356 432 292 432 c 0
EndSplineSet
Substitution2: "'smcp' Lowercase to Small Capitals lookup 27 subtable" ocircumflex.sc
Substitution2: "'aalt' Access All Alternates lookup 0 subtable" ocircumflex.sc
EndChar
StartChar: odieresis
Encoding: 246 246 566
Width: 584
GlyphClass: 2
Flags: MW
HStem: -17 116<260 324 260 373> 432 116<260 324> 641 158<153.5 199 385.5 431>
VStem: 32 164<207 323.5 207 351> 95 162<698 742> 327 162<698 742> 388 164<207.5 324>
AnchorPoint: "Anchor-14" 0 0 basechar 0
AnchorPoint: "Anchor-13" 497 531 basechar 0
AnchorPoint: "Anchor-12" 294 799 basechar 0
AnchorPoint: "Anchor-11" 402 0 basechar 0
AnchorPoint: "Anchor-10" 292 0 basechar 0
LayerCount: 2
Back
Fore
SplineSet
176 799 m 0xec
 222 799 257 764 257 720 c 0
 257 676 222 641 176 641 c 0
 131 641 95 676 95 720 c 0
 95 764 131 799 176 799 c 0xec
408 799 m 0
 454 799 489 764 489 720 c 0
 489 676 454 641 408 641 c 0
 363 641 327 676 327 720 c 0
 327 764 363 799 408 799 c 0
292 548 m 0xf2
 454 548 552 444 552 265 c 0
 552 95 454 -17 292 -17 c 0
 131 -17 32 87 32 266 c 0
 32 436 130 548 292 548 c 0xf2
292 432 m 0
 228 432 196 381 196 266 c 0
 196 148 228 99 292 99 c 0
 356 99 388 150 388 265 c 0
 388 383 356 432 292 432 c 0
EndSplineSet
Substitution2: "'smcp' Lowercase to Small Capitals lookup 27 subtable" odieresis.sc
Substitution2: "'aalt' Access All Alternates lookup 0 subtable" odieresis.sc
EndChar
StartChar: divide
Encoding: 247 247 2244
Width: 519
GlyphClass: 2
Flags: MW
HStem: 1 180<234 284.5> 271 122<48 470 48 470> 483 181<234 284.5>
VStem: 169 181<66.5 116 549 598.5>
LayerCount: 2
Back
Fore
SplineSet
259 664 m 0
 310 664 350 623 350 574 c 0
 350 524 310 483 259 483 c 0
 209 483 169 524 169 574 c 0
 169 623 209 664 259 664 c 0
48 271 m 1
 48 393 l 1
 470 393 l 1
 470 271 l 1
 48 271 l 1
259 181 m 0
 310 181 350 141 350 91 c 0
 350 42 310 1 259 1 c 0
 209 1 169 42 169 91 c 0
 169 141 209 181 259 181 c 0
EndSplineSet
Substitution2: "'onum' Oldstyle Figures lookup 25 subtable" divide.osf
Substitution2: "'tnum' Tabular Numbers lookup 24 subtable" divide.tf
AlternateSubs2: "'aalt' Access All Alternates lookup 1 subtable" divide.tf divide.osf
EndChar

StartChar: oslash
Encoding: 248 248 216
Width: 584
GlyphClass: 2
Flags: MW
HStem: -17 116<292 324 292 373> 432 116<260 292>
VStem: 32 158<234.5 323.5 234.5 351> 394 158<207.5 296>
AnchorPoint: "Anchor-11" 0 0 basechar 0
AnchorPoint: "Anchor-10" 0 0 basechar 0
AnchorPoint: "Anchor-9" 293 531 basechar 0
AnchorPoint: "Anchor-8" 0 0 basechar 0
LayerCount: 2
Fore
SplineSet
438 510 m 1
 511 465 552 381 552 265 c 0
 552 95 454 -17 292 -17 c 0
 280 -17 269 -16 258 -15 c 1
 221 -135 l 1
 106 -101 l 1
 145 21 l 1
 73 67 32 151 32 266 c 0
 32 436 130 548 292 548 c 0
 303 548 314 547 325 546 c 1
 364 667 l 1
 480 633 l 1
 438 510 l 1
292 432 m 1
 228 432 190 381 190 266 c 0
 190 203 197 164 211 139 c 1
 309 431 l 1
 292 432 l 1
292 99 m 1
 356 99 394 150 394 265 c 0
 394 327 387 366 374 391 c 1
 372 388 l 1
 276 100 l 1
 292 99 l 1
EndSplineSet
Substitution2: "'smcp' Lowercase to Small Capitals lookup 24 subtable" oslash.sc
Substitution2: "'aalt' Access All Alternates lookup 0 subtable" oslash.sc
EndChar

StartChar: ugrave
Encoding: 249 249 244
Width: 572
GlyphClass: 2
Flags: MW
HStem: -17 117<155.5 282.5> 0 21G<373 510 373 373> 511 20G<57 215 215 215 352 510 510 510> 683 20G<434 434>
VStem: 57 158<150 170 170 531> 352 158<162 531>
AnchorPoint: "Anchor-11" 0 0 basechar 0
AnchorPoint: "Anchor-10" 0 0 basechar 0
AnchorPoint: "Anchor-9" 284 531 basechar 0
AnchorPoint: "Anchor-8" 520 0 basechar 0
LayerCount: 2
Fore
SplineSet
434 703 m 1x7c
 390 622 l 1
 154 717 l 1
 216 835 l 1
 434 703 l 1x7c
510 0 m 1
 373 0 l 1x7c
 366 67 l 1
 327 11 275 -17 205 -17 c 0
 106 -17 57 47 57 150 c 2
 57 531 l 1
 215 531 l 1
 215 170 l 2
 215 116 233 100 266 100 c 0
 299 100 329 122 352 162 c 1xbc
 352 531 l 1
 510 531 l 1
 510 0 l 1
EndSplineSet
Substitution2: "'smcp' Lowercase to Small Capitals lookup 24 subtable" ugrave.sc
Substitution2: "'aalt' Access All Alternates lookup 0 subtable" ugrave.sc
EndChar

StartChar: uacute
Encoding: 250 250 240
Width: 572
GlyphClass: 2
Flags: MW
HStem: -17 117<155.5 282.5> 0 21G<373 510 373 373> 511 20G<57 215 215 215 352 510 510 510>
VStem: 57 158<150 170 170 531> 352 158<162 531>
AnchorPoint: "Anchor-11" 0 0 basechar 0
AnchorPoint: "Anchor-10" 0 0 basechar 0
AnchorPoint: "Anchor-9" 284 531 basechar 0
AnchorPoint: "Anchor-8" 520 0 basechar 0
LayerCount: 2
Fore
SplineSet
414 717 m 1x78
 178 622 l 1
 134 703 l 1
 352 835 l 1
 414 717 l 1x78
510 0 m 1
 373 0 l 1x78
 366 67 l 1
 327 11 275 -17 205 -17 c 0
 106 -17 57 47 57 150 c 2
 57 531 l 1
 215 531 l 1
 215 170 l 2
 215 116 233 100 266 100 c 0
 299 100 329 122 352 162 c 1xb8
 352 531 l 1
 510 531 l 1
 510 0 l 1
EndSplineSet
Substitution2: "'smcp' Lowercase to Small Capitals lookup 24 subtable" uacute.sc
Substitution2: "'aalt' Access All Alternates lookup 0 subtable" uacute.sc
EndChar
StartChar: ucircumflex
Encoding: 251 251 666
Width: 572
GlyphClass: 2
Flags: MW
HStem: -17 117<155.5 282.5> 0 21G<373 510 373 373> 511 20G<57 215 215 215 352 510 510 510>
VStem: 57 158<150 170 170 531> 352 158<162 531 0 531>
AnchorPoint: "Anchor-14" 0 0 basechar 0
AnchorPoint: "Anchor-13" 520 531 basechar 0
AnchorPoint: "Anchor-12" 286 822 basechar 0
AnchorPoint: "Anchor-11" 520 0 basechar 0
AnchorPoint: "Anchor-10" 284 0 basechar 0
LayerCount: 2
Back
Fore
SplineSet
150 620 m 1x78
 94 685 l 1
 235 822 l 1
 332 822 l 1
 473 685 l 1
 417 620 l 1
 284 712 l 1
 150 620 l 1x78
510 531 m 1
 510 0 l 1
 373 0 l 1x78
 366 67 l 1
 327 11 275 -17 205 -17 c 0
 106 -17 57 47 57 150 c 2
 57 531 l 1
 215 531 l 1
 215 170 l 2
 215 116 233 100 266 100 c 0
 299 100 329 122 352 162 c 1xb8
 352 531 l 1
 510 531 l 1
EndSplineSet
Substitution2: "'smcp' Lowercase to Small Capitals lookup 27 subtable" ucircumflex.sc
Substitution2: "'aalt' Access All Alternates lookup 0 subtable" ucircumflex.sc
EndChar
StartChar: udieresis
Encoding: 252 252 668
Width: 572
GlyphClass: 2
Flags: MW
HStem: -17 117<155.5 282.5> 0 21G<373 510 373 373> 511 20G<57 215 215 215 352 510 510 510> 641 158<145.5 191 377.5 423>
VStem: 57 158<150 170 170 531> 87 162<698 742> 319 162<698 742> 352 158<162 531 0 531>
AnchorPoint: "Anchor-14" 0 0 basechar 0
AnchorPoint: "Anchor-13" 520 531 basechar 0
AnchorPoint: "Anchor-12" 286 799 basechar 0
AnchorPoint: "Anchor-11" 520 0 basechar 0
AnchorPoint: "Anchor-10" 284 0 basechar 0
LayerCount: 2
Back
Fore
SplineSet
168 799 m 0x76
 214 799 249 764 249 720 c 0
 249 676 214 641 168 641 c 0
 123 641 87 676 87 720 c 0
 87 764 123 799 168 799 c 0x76
400 799 m 0
 446 799 481 764 481 720 c 0
 481 676 446 641 400 641 c 0
 355 641 319 676 319 720 c 0
 319 764 355 799 400 799 c 0
510 531 m 1xb9
 510 0 l 1
 373 0 l 1x79
 366 67 l 1
 327 11 275 -17 205 -17 c 0
 106 -17 57 47 57 150 c 2
 57 531 l 1
 215 531 l 1
 215 170 l 2
 215 116 233 100 266 100 c 0
 299 100 329 122 352 162 c 1
 352 531 l 1
 510 531 l 1xb9
EndSplineSet
Substitution2: "'smcp' Lowercase to Small Capitals lookup 27 subtable" udieresis.sc
Substitution2: "'aalt' Access All Alternates lookup 0 subtable" udieresis.sc
EndChar
StartChar: thorn
Encoding: 254 254 602
Width: 597
GlyphClass: 2
Flags: MW
HStem: -222 21G<62 62> -17 116<323 330.5 284.5 414.5> 432 116<292 429> 722 20G<62 62> 739 20G<220 220>
VStem: 62 158<-204 39 -204 146 146 370 481 742 742 742> 396 164<205.5 331>
LayerCount: 2
Back
Fore
SplineSet
359 548 m 0xee
 499 548 560 439 560 267 c 0
 560 103 480 -17 349 -17 c 0
 297 -17 253 1 220 39 c 1
 220 -204 l 1
 62 -222 l 1
 62 742 l 1xf6
 220 759 l 1
 220 481 l 1
 262 531 314 548 359 548 c 0xee
301 99 m 0
 360 99 396 146 396 265 c 0
 396 397 364 432 309 432 c 0
 275 432 243 409 220 370 c 1
 220 146 l 1
 242 114 268 99 301 99 c 0
EndSplineSet
Substitution2: "'smcp' Lowercase to Small Capitals lookup 27 subtable" thorn.sc
Substitution2: "'aalt' Access All Alternates lookup 0 subtable" thorn.sc
EndChar
StartChar: ydieresis
Encoding: 255 255 706
Width: 518
GlyphClass: 2
Flags: MW
HStem: -222 21G<56 56> 0 21G<156 210 156 156> 511 20G<-6 162 162 162 361 524 524 524> 641 158<120.5 166 352.5 398>
VStem: 62 162<698 742> 294 162<698 742>
AnchorPoint: "Anchor-14" 0 0 basechar 0
AnchorPoint: "Anchor-13" 0 0 basechar 0
AnchorPoint: "Anchor-12" 261 799 basechar 0
AnchorPoint: "Anchor-11" 0 0 basechar 0
AnchorPoint: "Anchor-10" 257 -210 basechar 0
LayerCount: 2
Back
Fore
SplineSet
143 799 m 0
 189 799 224 764 224 720 c 0
 224 676 189 641 143 641 c 0
 98 641 62 676 62 720 c 0
 62 764 98 799 143 799 c 0
375 799 m 0
 421 799 456 764 456 720 c 0
 456 676 421 641 375 641 c 0
 330 641 294 676 294 720 c 0
 294 764 330 799 375 799 c 0
524 531 m 1
 355 -1 l 2
 313 -135 223 -213 56 -222 c 1
 39 -111 l 1
 143 -98 181 -68 210 0 c 1
 156 0 l 1
 -6 531 l 1
 162 531 l 1
 257 101 l 1
 361 531 l 1
 524 531 l 1
EndSplineSet
Substitution2: "'smcp' Lowercase to Small Capitals lookup 27 subtable" ydieresis.sc
Substitution2: "'aalt' Access All Alternates lookup 0 subtable" ydieresis.sc
EndChar
StartChar: Amacron
Encoding: 256 256 27
Width: 590
GlyphClass: 2
Flags: MW
HStem: 0 21G<-13 157 -13 -13 430 604 430 430> 149 119<220 366 220 395 192 366> 574 119<293 293> 673 20G<196 395 395 395> 781 110<143 448 143 448>
VStem: 143 305<781 891 781 891>
AnchorPoint: "Anchor-14" 0 0 basechar 0
AnchorPoint: "Anchor-13" 0 0 basechar 0
AnchorPoint: "Anchor-12" 298 891 basechar 0
AnchorPoint: "Anchor-11" 530 0 basechar 0
AnchorPoint: "Anchor-10" 296 0 basechar 0
LayerCount: 2
Back
Fore
SplineSet
448 891 m 1xdc
 448 781 l 1
 143 781 l 1
 143 891 l 1
 448 891 l 1xdc
430 0 m 1
 395 149 l 1
 192 149 l 1
 157 0 l 1
 -13 0 l 1
 196 693 l 1
 395 693 l 1
 604 0 l 1
 430 0 l 1
220 268 m 1
 366 268 l 1
 293 574 l 1xec
 220 268 l 1
EndSplineSet
Substitution2: "'c2sc' Capitals to Small Capitals lookup 26 subtable" amacron.sc
Substitution2: "'aalt' Access All Alternates lookup 0 subtable" amacron.sc
Position2: "'cpsp' Capital Spacing lookup 0 subtable" dx=5 dy=0 dh=10 dv=0
EndChar
StartChar: Abreve
Encoding: 258 258 4
Width: 590
GlyphClass: 2
Flags: MW
HStem: 0 21G<-13 157 -13 -13 430 604 430 430> 149 119<220 366 220 395 192 366> 574 119<293 293> 673 20G<196 395 395 395> 751 109<272 318 272 347.5>
VStem: -13 617<0 0>
AnchorPoint: "Anchor-14" 0 0 basechar 0
AnchorPoint: "Anchor-13" 0 0 basechar 0
AnchorPoint: "Anchor-12" 298 928 basechar 0
AnchorPoint: "Anchor-11" 530 0 basechar 0
AnchorPoint: "Anchor-10" 296 0 basechar 0
LayerCount: 2
Back
Fore
SplineSet
295 751 m 0xdc
 190 751 131 828 123 913 c 1
 210 928 l 1
 222 890 249 860 295 860 c 0
 341 860 368 890 381 928 c 1
 468 913 l 1
 460 828 400 751 295 751 c 0xdc
430 0 m 1
 395 149 l 1
 192 149 l 1
 157 0 l 1
 -13 0 l 1
 196 693 l 1
 395 693 l 1
 604 0 l 1
 430 0 l 1
220 268 m 1
 366 268 l 1
 293 574 l 1xec
 220 268 l 1
EndSplineSet
Substitution2: "'c2sc' Capitals to Small Capitals lookup 26 subtable" abreve.sc
Substitution2: "'aalt' Access All Alternates lookup 0 subtable" abreve.sc
Position2: "'cpsp' Capital Spacing lookup 0 subtable" dx=5 dy=0 dh=10 dv=0
EndChar
StartChar: Aogonek
Encoding: 260 260 28
Width: 590
GlyphClass: 2
Flags: MW
HStem: -246 98<437 448.5> 0 21G<-13 157 -13 -13 520 604 520 520> 149 119<220 366 220 395 192 366> 574 119<293 293> 673 20G<196 395 395 395>
VStem: 288 114<-117 -92>
AnchorPoint: "Anchor-14" 0 0 basechar 0
AnchorPoint: "Anchor-13" 0 0 basechar 0
AnchorPoint: "Anchor-12" 296 693 basechar 0
AnchorPoint: "Anchor-11" 530 0 basechar 0
AnchorPoint: "Anchor-10" 296 0 basechar 0
LayerCount: 2
Back
Fore
SplineSet
520 0 m 1xec
 422 -37 402 -74 402 -102 c 0
 402 -132 419 -148 455 -148 c 0
 475 -148 493 -145 516 -140 c 1
 505 -238 l 1
 484 -243 462 -246 435 -246 c 0
 350 -246 288 -201 288 -129 c 0
 288 -55 340 -7 424 26 c 1
 395 149 l 1
 192 149 l 1
 157 0 l 1
 -13 0 l 1
 196 693 l 1
 395 693 l 1
 604 0 l 1
 520 0 l 1xec
220 268 m 1
 366 268 l 1
 293 574 l 1xf4
 220 268 l 1
EndSplineSet
Substitution2: "'c2sc' Capitals to Small Capitals lookup 26 subtable" aogonek.sc
Substitution2: "'aalt' Access All Alternates lookup 0 subtable" aogonek.sc
Position2: "'cpsp' Capital Spacing lookup 0 subtable" dx=5 dy=0 dh=10 dv=0
EndChar
StartChar: aogonek
Encoding: 261 261 362
Width: 548
GlyphClass: 2
Flags: MW
HStem: -260 98<404 415.5> -17 113<225.5 230.5> -14 21G<486 486 486 487> 241 87<275 290 290 329> 433 115<234 271.5>
VStem: 26 157<142 189.5 142 207> 255 114<-131 -105.5> 329 155<146 154 154 241 241 241 328 351 351 360>
AnchorPoint: "Anchor-14" 0 0 basechar 0
AnchorPoint: "Anchor-13" 0 0 basechar 0
AnchorPoint: "Anchor-12" 271 531 basechar 0
AnchorPoint: "Anchor-11" 497 -14 basechar 0
AnchorPoint: "Anchor-10" 271 0 basechar 0
LayerCount: 2
Back
Fore
SplineSet
486 -14 m 1xbd
 389 -51 369 -88 369 -116 c 0
 369 -146 386 -162 422 -162 c 0
 442 -162 460 -159 483 -154 c 1
 472 -252 l 1
 451 -257 429 -260 402 -260 c 0
 317 -260 255 -215 255 -143 c 0
 255 -68 309 -19 396 15 c 1
 381 26 369 41 359 62 c 1
 321 4 262 -17 199 -17 c 0xde
 93 -17 26 52 26 149 c 0
 26 265 114 328 275 328 c 2
 329 328 l 1
 329 351 l 2
 329 414 304 433 239 433 c 0
 205 433 153 423 100 405 c 1
 64 509 l 1
 131 534 204 548 264 548 c 0
 418 548 484 483 484 360 c 2
 484 154 l 2
 484 113 495 98 520 89 c 1
 487 -14 l 1
 487 -14 486 -14 486 -14 c 1xbd
245 96 m 0xdd
 281 96 310 115 329 146 c 1
 329 241 l 1
 290 241 l 2
 218 241 183 216 183 163 c 0
 183 121 206 96 245 96 c 0xdd
EndSplineSet
Substitution2: "'smcp' Lowercase to Small Capitals lookup 27 subtable" aogonek.sc
Substitution2: "'aalt' Access All Alternates lookup 0 subtable" aogonek.sc
EndChar
StartChar: Cacute
Encoding: 262 262 44
Width: 575
GlyphClass: 2
Flags: MW
HStem: -17 127<312 385.5 312 398> 589 121<311 379>
VStem: 33 172<264.5 433 264.5 464>
AnchorPoint: "Anchor-14" 362 351 basechar 0
AnchorPoint: "Anchor-13" 0 0 basechar 0
AnchorPoint: "Anchor-12" 356 956 basechar 0
AnchorPoint: "Anchor-11" 0 0 basechar 0
AnchorPoint: "Anchor-10" 342 0 basechar 0
LayerCount: 2
Back
Fore
SplineSet
433 956 m 1
 494 838 l 1
 254 751 l 1
 214 831 l 1
 433 956 l 1
345 710 m 0
 439 710 502 682 559 634 c 1
 479 539 l 1
 442 571 403 589 355 589 c 0
 267 589 205 518 205 348 c 0
 205 181 266 110 358 110 c 0
 413 110 453 137 493 168 c 1
 567 72 l 1
 522 26 446 -17 350 -17 c 0
 160 -17 33 111 33 348 c 0
 33 580 167 710 345 710 c 0
EndSplineSet
Substitution2: "'c2sc' Capitals to Small Capitals lookup 26 subtable" cacute.sc
Substitution2: "'locl' Localized Forms in Latin lookup 7 subtable" Cacute.loclPLK
AlternateSubs2: "'aalt' Access All Alternates lookup 1 subtable" Cacute.loclPLK cacute.sc
Position2: "'cpsp' Capital Spacing lookup 0 subtable" dx=5 dy=0 dh=10 dv=0
EndChar

StartChar: cacute
Encoding: 263 263 148
Width: 479
GlyphClass: 2
Flags: MW
HStem: -17 125<271.5 322 271.5 331.5> 427 121<271 323>
VStem: 32 166<203 321.5 203 345.5>
AnchorPoint: "Anchor-11" 280 0 basechar 0
AnchorPoint: "Anchor-10" 0 0 basechar 0
AnchorPoint: "Anchor-9" 291 531 basechar 0
AnchorPoint: "Anchor-8" 0 0 basechar 0
LayerCount: 2
Fore
SplineSet
421 717 m 1
 185 622 l 1
 141 703 l 1
 359 835 l 1
 421 717 l 1
292 548 m 0
 366 548 423 526 474 483 c 1
 405 388 l 1
 372 415 341 427 305 427 c 0
 237 427 198 381 198 262 c 0
 198 144 240 108 303 108 c 0
 341 108 367 120 402 147 c 1
 474 46 l 1
 425 7 368 -17 295 -17 c 0
 132 -17 32 93 32 261 c 0
 32 430 133 548 292 548 c 0
EndSplineSet
Substitution2: "'smcp' Lowercase to Small Capitals lookup 24 subtable" cacute.sc
Substitution2: "'locl' Localized Forms in Latin lookup 7 subtable" cacute.loclPLK
AlternateSubs2: "'aalt' Access All Alternates lookup 1 subtable" cacute.loclPLK cacute.sc
EndChar

StartChar: Ccircumflex
Encoding: 264 264 18
Width: 575
GlyphClass: 2
Flags: MW
HStem: -17 127<312 385.5 312 398> 589 121<311 379>
VStem: 33 172<264.5 433 264.5 464>
AnchorPoint: "Anchor-11" 342 0 basechar 0
AnchorPoint: "Anchor-10" 0 0 basechar 0
AnchorPoint: "Anchor-9" 354 693 basechar 0
AnchorPoint: "Anchor-8" 0 0 basechar 0
LayerCount: 2
Fore
SplineSet
354 839 m 1
 221 755 l 1
 164 820 l 1
 306 949 l 1
 402 949 l 1
 543 820 l 1
 487 755 l 1
 354 839 l 1
345 710 m 0
 439 710 502 682 559 634 c 1
 479 539 l 1
 442 571 403 589 355 589 c 0
 267 589 205 518 205 348 c 0
 205 181 266 110 358 110 c 0
 413 110 453 137 493 168 c 1
 567 72 l 1
 522 26 446 -17 350 -17 c 0
 160 -17 33 111 33 348 c 0
 33 580 167 710 345 710 c 0
EndSplineSet
Substitution2: "'c2sc' Capitals to Small Capitals lookup 23 subtable" ccircumflex.sc
Substitution2: "'aalt' Access All Alternates lookup 0 subtable" ccircumflex.sc
Position2: "'cpsp' Capital Spacing lookup 0 subtable" dx=5 dy=0 dh=10 dv=0
EndChar

StartChar: cdotaccent
Encoding: 267 267 152
Width: 479
GlyphClass: 2
Flags: MW
HStem: -17 125<271.5 322 271.5 331.5> 427 121<271 323> 631 180<262.5 317.5>
VStem: 32 166<203 321.5 203 345.5> 197 187<695.5 746.5>
AnchorPoint: "Anchor-11" 280 0 basechar 0
AnchorPoint: "Anchor-10" 0 0 basechar 0
AnchorPoint: "Anchor-9" 291 531 basechar 0
AnchorPoint: "Anchor-8" 0 0 basechar 0
LayerCount: 2
Fore
SplineSet
290 811 m 0xe8
 345 811 384 772 384 721 c 0
 384 670 345 631 290 631 c 0
 235 631 197 670 197 721 c 0
 197 772 235 811 290 811 c 0xe8
292 548 m 0
 366 548 423 526 474 483 c 1
 405 388 l 1
 372 415 341 427 305 427 c 0
 237 427 198 381 198 262 c 0
 198 144 240 108 303 108 c 0
 341 108 367 120 402 147 c 1
 474 46 l 1
 425 7 368 -17 295 -17 c 0
 132 -17 32 93 32 261 c 0xf0
 32 430 133 548 292 548 c 0
EndSplineSet
Substitution2: "'smcp' Lowercase to Small Capitals lookup 24 subtable" cdotaccent.sc
Substitution2: "'aalt' Access All Alternates lookup 0 subtable" cdotaccent.sc
EndChar

StartChar: dcaron
Encoding: 271 271 155
Width: 748
GlyphClass: 2
Flags: MW
HStem: -17 116<263 275> 0 21G<398 538 398 398> 433 115<269.5 281.5 188.5 315.5> 515 20G<601 601> 528 20G<188.5 281.5> 722 20G<538 538 729 729> 736 20G<610 610> 739 20G<380 380>
VStem: 37 164<200 325.5 200 349> 380 158<159 388 388 388 498 742 0 759 0 759>
LayerCount: 2
Fore
SplineSet
380 759 m 1x61c0
 538 742 l 1
 538 0 l 1
 398 0 l 1x64c0
 390 62 l 1
 359 18 311 -17 239 -17 c 0xa1c0
 104 -17 37 95 37 267 c 0
 37 431 120 548 257 548 c 0
 306 548 349 529 380 498 c 1
 380 759 l 1x61c0
729 742 m 1
 682 527 l 1x89c0
 601 535 l 1
 610 756 l 1x52c0
 729 742 l 1
289 99 m 0
 326 99 355 119 380 159 c 1
 380 388 l 1
 356 416 333 433 298 433 c 0xa1c0
 241 433 201 385 201 266 c 0
 201 134 237 99 289 99 c 0
EndSplineSet
Substitution2: "'smcp' Lowercase to Small Capitals lookup 24 subtable" dcaron.sc
Substitution2: "'aalt' Access All Alternates lookup 0 subtable" dcaron.sc
EndChar
StartChar: Dcroat
Encoding: 272 272 59
Width: 665
GlyphClass: 2
Flags: MW
HStem: 0 119<242 287> 304 98<14 78 14 78 242 377> 574 119<242 272 272 295 242 242>
VStem: 78 164<119 304 119 304 119 304 402 574> 462 170<258 443>
AnchorPoint: "Anchor-14" 340 347 basechar 0
AnchorPoint: "Anchor-13" 0 0 basechar 0
AnchorPoint: "Anchor-12" 309 693 basechar 0
AnchorPoint: "Anchor-11" 0 0 basechar 0
AnchorPoint: "Anchor-10" 320 0 basechar 0
LayerCount: 2
Back
Fore
SplineSet
272 693 m 2
 457 693 632 636 632 350 c 0
 632 71 464 0 287 0 c 2
 78 0 l 1
 78 304 l 1
 14 304 l 1
 14 402 l 1
 78 402 l 1
 78 693 l 1
 272 693 l 2
297 119 m 2
 396 119 462 166 462 350 c 0
 462 536 391 574 295 574 c 2
 242 574 l 1
 242 402 l 1
 377 402 l 1
 377 304 l 1
 242 304 l 1
 242 119 l 1
 297 119 l 2
EndSplineSet
Substitution2: "'c2sc' Capitals to Small Capitals lookup 26 subtable" dcroat.sc
Substitution2: "'aalt' Access All Alternates lookup 0 subtable" dcroat.sc
Position2: "'cpsp' Capital Spacing lookup 0 subtable" dx=5 dy=0 dh=10 dv=0
EndChar

StartChar: dcroat
Encoding: 273 273 156
Width: 603
GlyphClass: 2
Flags: MW
HStem: -17 116<263 275> 0 21G<398 538 398 398> 433 115<269.5 281.5 188.5 315.5> 596 92<250 380 250 250 538 600> 722 20G<538 538> 739 20G<380 380>
VStem: 37 164<200 325.5 200 349> 380 158<159 388 388 388 498 596 0 596 688 742 0 759>
LayerCount: 2
Fore
SplineSet
600 688 m 1x77
 600 596 l 1
 538 596 l 1
 538 0 l 1
 398 0 l 1x77
 390 62 l 1
 359 18 311 -17 239 -17 c 0
 104 -17 37 95 37 267 c 0
 37 431 120 548 257 548 c 0
 306 548 349 529 380 498 c 1
 380 596 l 1
 250 596 l 1
 237 688 l 1
 380 688 l 1
 380 759 l 1xb7
 538 742 l 1x7b
 538 688 l 1
 600 688 l 1x77
289 99 m 0xb7
 326 99 355 119 380 159 c 1
 380 388 l 1
 356 416 333 433 298 433 c 0
 241 433 201 385 201 266 c 0
 201 134 237 99 289 99 c 0xb7
EndSplineSet
Substitution2: "'smcp' Lowercase to Small Capitals lookup 24 subtable" dcroat.sc
Substitution2: "'aalt' Access All Alternates lookup 0 subtable" dcroat.sc
EndChar

StartChar: Emacron
Encoding: 274 274 32
Width: 526
GlyphClass: 2
Flags: MW
HStem: 0 118<229 490 229 490> 295 115<229 442 229 442> 576 117<229 473 229 229> 779 110<126 431 126 431>
VStem: 65 164<118 295 410 576> 126 305<779 889 779 889>
AnchorPoint: "Anchor-11" 277 0 basechar 0
AnchorPoint: "Anchor-10" 61 693 basechar 0
AnchorPoint: "Anchor-9" 279 693 basechar 0
AnchorPoint: "Anchor-8" 460 0 basechar 0
LayerCount: 2
Fore
SplineSet
126 779 m 1xf4
 126 889 l 1
 431 889 l 1
 431 779 l 1
 126 779 l 1xf4
473 576 m 1
 229 576 l 1
 229 410 l 1
 442 410 l 1
 442 295 l 1
 229 295 l 1
 229 118 l 1
 490 118 l 1
 490 0 l 1
 65 0 l 1
 65 693 l 1xf8
 490 693 l 1
 473 576 l 1
EndSplineSet
Substitution2: "'c2sc' Capitals to Small Capitals lookup 23 subtable" emacron.sc
Substitution2: "'aalt' Access All Alternates lookup 0 subtable" emacron.sc
Position2: "'cpsp' Capital Spacing lookup 0 subtable" dx=5 dy=0 dh=10 dv=0
EndChar
StartChar: Ebreve
Encoding: 276 276 69
Width: 526
GlyphClass: 2
Flags: MW
HStem: 0 118<229 490 229 490> 295 115<229 442 229 442> 576 117<229 473 229 229> 751 109<255 301 255 330.5>
VStem: 65 164<118 295 410 576>
AnchorPoint: "Anchor-14" 0 0 basechar 0
AnchorPoint: "Anchor-13" 0 0 basechar 0
AnchorPoint: "Anchor-12" 281 928 basechar 0
AnchorPoint: "Anchor-11" 460 0 basechar 0
AnchorPoint: "Anchor-10" 277 0 basechar 0
LayerCount: 2
Back
Fore
SplineSet
278 751 m 0
 173 751 114 828 106 913 c 1
 193 928 l 1
 205 890 232 860 278 860 c 0
 324 860 351 890 364 928 c 1
 451 913 l 1
 443 828 383 751 278 751 c 0
490 693 m 1
 473 576 l 1
 229 576 l 1
 229 410 l 1
 442 410 l 1
 442 295 l 1
 229 295 l 1
 229 118 l 1
 490 118 l 1
 490 0 l 1
 65 0 l 1
 65 693 l 1
 490 693 l 1
EndSplineSet
Substitution2: "'c2sc' Capitals to Small Capitals lookup 26 subtable" ebreve.sc
Substitution2: "'aalt' Access All Alternates lookup 0 subtable" ebreve.sc
Position2: "'cpsp' Capital Spacing lookup 0 subtable" dx=5 dy=0 dh=10 dv=0
EndChar
StartChar: ebreve
Encoding: 277 277 412
Width: 554
GlyphClass: 2
Flags: MW
HStem: -17 115<281.5 335.5 281.5 342> 219 95<194 370 193 522 194 194> 443 105<257.5 315.5> 632 110<259 305 259 334.5>
VStem: 32 161<314 314 314 342.5> 370 155<314 321 321 321>
AnchorPoint: "Anchor-14" 0 0 basechar 0
AnchorPoint: "Anchor-13" 0 0 basechar 0
AnchorPoint: "Anchor-12" 285 820 basechar 0
AnchorPoint: "Anchor-11" 434 9 basechar 0
AnchorPoint: "Anchor-10" 294 0 basechar 0
LayerCount: 2
Back
Fore
SplineSet
282 632 m 0
 177 632 118 709 110 805 c 1
 197 820 l 1
 209 772 236 742 282 742 c 0
 328 742 355 772 368 820 c 1
 455 805 l 1
 447 709 387 632 282 632 c 0
525 276 m 0
 525 259 524 235 522 219 c 1
 194 219 l 1
 204 124 249 98 314 98 c 0
 357 98 395 113 441 145 c 1
 506 57 l 1
 453 15 385 -17 299 -17 c 0
 122 -17 32 97 32 263 c 0
 32 422 119 548 280 548 c 0
 432 548 525 448 525 276 c 0
370 314 m 1
 370 321 l 2
 369 393 347 443 284 443 c 0
 231 443 201 410 193 314 c 1
 370 314 l 1
EndSplineSet
Substitution2: "'smcp' Lowercase to Small Capitals lookup 27 subtable" ebreve.sc
Substitution2: "'aalt' Access All Alternates lookup 0 subtable" ebreve.sc
EndChar
StartChar: Edotaccent
Encoding: 278 278 80
Width: 526
GlyphClass: 2
Flags: MW
HStem: 0 118<229 490 229 490> 295 115<229 442 229 442> 576 117<229 473 229 229> 757 180<250.5 305.5>
VStem: 65 164<118 295 410 576> 185 187<821.5 872.5>
AnchorPoint: "Anchor-14" 0 0 basechar 0
AnchorPoint: "Anchor-13" 0 0 basechar 0
AnchorPoint: "Anchor-12" 281 937 basechar 0
AnchorPoint: "Anchor-11" 460 0 basechar 0
AnchorPoint: "Anchor-10" 277 0 basechar 0
LayerCount: 2
Back
Fore
SplineSet
278 937 m 0xf4
 333 937 372 898 372 847 c 0
 372 796 333 757 278 757 c 0
 223 757 185 796 185 847 c 0
 185 898 223 937 278 937 c 0xf4
490 693 m 1
 473 576 l 1
 229 576 l 1
 229 410 l 1
 442 410 l 1
 442 295 l 1
 229 295 l 1
 229 118 l 1
 490 118 l 1
 490 0 l 1
 65 0 l 1
 65 693 l 1xe8
 490 693 l 1
EndSplineSet
Substitution2: "'c2sc' Capitals to Small Capitals lookup 26 subtable" edotaccent.sc
Substitution2: "'aalt' Access All Alternates lookup 0 subtable" edotaccent.sc
Position2: "'cpsp' Capital Spacing lookup 0 subtable" dx=5 dy=0 dh=10 dv=0
EndChar

StartChar: Eogonek
Encoding: 280 280 33
Width: 526
GlyphClass: 2
Flags: MW
HStem: -246 98<367 378.5> 0 118<229 300 450 490 450 450> 295 115<229 442 229 442> 576 117<229 473 229 229>
VStem: 65 164<118 118 118 295 410 576> 218 114<-117 -101>
AnchorPoint: "Anchor-11" 277 0 basechar 0
AnchorPoint: "Anchor-10" 61 693 basechar 0
AnchorPoint: "Anchor-9" 279 693 basechar 0
AnchorPoint: "Anchor-8" 460 0 basechar 0
LayerCount: 2
Fore
SplineSet
229 118 m 1x78
 490 118 l 1
 490 0 l 1
 450 0 l 1
 352 -37 332 -74 332 -102 c 0
 332 -132 349 -148 385 -148 c 0
 405 -148 423 -145 446 -140 c 1
 435 -238 l 1
 414 -243 392 -246 365 -246 c 0
 280 -246 218 -201 218 -129 c 0
 218 -73 248 -31 300 0 c 1xf4
 65 0 l 1
 65 693 l 1
 490 693 l 1
 473 576 l 1
 229 576 l 1
 229 410 l 1
 442 410 l 1
 442 295 l 1
 229 295 l 1
 229 118 l 1x78
EndSplineSet
Substitution2: "'c2sc' Capitals to Small Capitals lookup 23 subtable" eogonek.sc
Substitution2: "'aalt' Access All Alternates lookup 0 subtable" eogonek.sc
Position2: "'cpsp' Capital Spacing lookup 0 subtable" dx=5 dy=0 dh=10 dv=0
EndChar

StartChar: eogonek
Encoding: 281 281 166
Width: 554
GlyphClass: 2
Flags: MW
HStem: -237 98<341 352.5> -15 21G 219 95<193 370 193 522 193 370> 443 105<257.5 315.5>
VStem: 32 161<219 219 219 314 219 342.5> 192 114<-108 -97> 370 155<314 321 321 321>
AnchorPoint: "Anchor-11" 294 0 basechar 0
AnchorPoint: "Anchor-10" 0 0 basechar 0
AnchorPoint: "Anchor-9" 283 531 basechar 0
AnchorPoint: "Anchor-8" 434 9 basechar 0
LayerCount: 2
Fore
SplineSet
525 276 m 0xfa
 525 259 524 235 522 219 c 1
 193 219 l 1xfa
 204 124 249 98 314 98 c 0
 357 98 395 113 441 145 c 1
 506 57 l 1
 475 32 439 11 397 -2 c 1
 322 -35 306 -68 306 -93 c 0
 306 -123 323 -139 359 -139 c 0
 379 -139 397 -136 420 -131 c 1
 409 -229 l 1
 388 -234 366 -237 339 -237 c 0
 254 -237 192 -192 192 -120 c 0xf6
 192 -74 218 -39 260 -15 c 1
 109 1 32 110 32 263 c 0
 32 422 119 548 280 548 c 0
 432 548 525 448 525 276 c 0xfa
370 314 m 1
 370 321 l 1
 369 393 347 443 284 443 c 0
 231 443 200 409 193 314 c 1
 370 314 l 1
EndSplineSet
Substitution2: "'smcp' Lowercase to Small Capitals lookup 24 subtable" eogonek.sc
Substitution2: "'aalt' Access All Alternates lookup 0 subtable" eogonek.sc
EndChar

StartChar: Gcircumflex
Encoding: 284 284 37
Width: 645
GlyphClass: 2
Flags: MW
HStem: -17 120<299 364 299 393.5> 283 116<351 441 351 351> 591 119<323.5 400>
VStem: 33 170<256 433 256 464.5> 441 159<126 283 283 283>
AnchorPoint: "Anchor-11" 347 0 basechar 0
AnchorPoint: "Anchor-10" 0 0 basechar 0
AnchorPoint: "Anchor-9" 352 693 basechar 0
AnchorPoint: "Anchor-8" 0 0 basechar 0
LayerCount: 2
Fore
SplineSet
352 839 m 1
 219 755 l 1
 162 820 l 1
 304 949 l 1
 400 949 l 1
 541 820 l 1
 485 755 l 1
 352 839 l 1
364 710 m 0
 464 710 539 675 596 625 c 1
 511 536 l 1
 466 574 428 591 372 591 c 0
 275 591 203 519 203 347 c 0
 203 165 251 103 347 103 c 0
 381 103 412 110 441 126 c 1
 441 283 l 1
 351 283 l 1
 335 399 l 1
 600 399 l 1
 600 56 l 1
 529 10 439 -17 348 -17 c 0
 139 -17 33 110 33 347 c 0
 33 582 180 710 364 710 c 0
EndSplineSet
Substitution2: "'c2sc' Capitals to Small Capitals lookup 23 subtable" gcircumflex.sc
Substitution2: "'aalt' Access All Alternates lookup 0 subtable" gcircumflex.sc
Position2: "'cpsp' Capital Spacing lookup 0 subtable" dx=5 dy=0 dh=10 dv=0
EndChar

StartChar: Gbreve
Encoding: 286 286 36
Width: 645
GlyphClass: 2
Flags: MW
HStem: -17 120<299 364 299 393.5> 283 116<351 441 351 351> 591 119<323.5 400> 751 109<328 374 328 403.5>
VStem: 33 170<256 433 256 464.5> 441 159<126 283 283 283>
AnchorPoint: "Anchor-11" 347 0 basechar 0
AnchorPoint: "Anchor-10" 0 0 basechar 0
AnchorPoint: "Anchor-9" 352 693 basechar 0
AnchorPoint: "Anchor-8" 0 0 basechar 0
LayerCount: 2
Fore
SplineSet
351 751 m 0
 246 751 187 828 179 913 c 1
 266 928 l 1
 278 890 305 860 351 860 c 0
 397 860 424 890 437 928 c 1
 524 913 l 1
 516 828 456 751 351 751 c 0
364 710 m 0
 464 710 539 675 596 625 c 1
 511 536 l 1
 466 574 428 591 372 591 c 0
 275 591 203 519 203 347 c 0
 203 165 251 103 347 103 c 0
 381 103 412 110 441 126 c 1
 441 283 l 1
 351 283 l 1
 335 399 l 1
 600 399 l 1
 600 56 l 1
 529 10 439 -17 348 -17 c 0
 139 -17 33 110 33 347 c 0
 33 582 180 710 364 710 c 0
EndSplineSet
Substitution2: "'c2sc' Capitals to Small Capitals lookup 23 subtable" gbreve.sc
Substitution2: "'aalt' Access All Alternates lookup 0 subtable" gbreve.sc
Position2: "'cpsp' Capital Spacing lookup 0 subtable" dx=5 dy=0 dh=10 dv=0
EndChar
StartChar: Gdotaccent
Encoding: 288 288 105
Width: 645
GlyphClass: 2
Flags: MW
HStem: -17 120<299 364 299 393.5> 283 116<351 441 351 351> 591 119<323.5 400> 757 180<323.5 378.5>
VStem: 33 170<256 433 256 464.5> 258 187<821.5 872.5> 441 159<126 283 283 283>
AnchorPoint: "Anchor-14" 0 0 basechar 0
AnchorPoint: "Anchor-13" 0 0 basechar 0
AnchorPoint: "Anchor-12" 354 937 basechar 0
AnchorPoint: "Anchor-11" 0 0 basechar 0
AnchorPoint: "Anchor-10" 347 0 basechar 0
LayerCount: 2
Back
Fore
SplineSet
351 937 m 0xfc
 406 937 445 898 445 847 c 0
 445 796 406 757 351 757 c 0
 296 757 258 796 258 847 c 0
 258 898 296 937 351 937 c 0xfc
364 710 m 0
 464 710 539 675 596 625 c 1
 511 536 l 1
 466 574 428 591 372 591 c 0
 275 591 203 519 203 347 c 0
 203 165 251 103 347 103 c 0
 381 103 412 110 441 126 c 1
 441 283 l 1
 351 283 l 1
 335 399 l 1
 600 399 l 1
 600 56 l 1xea
 529 10 439 -17 348 -17 c 0
 139 -17 33 110 33 347 c 0
 33 582 180 710 364 710 c 0
EndSplineSet
Substitution2: "'c2sc' Capitals to Small Capitals lookup 26 subtable" gdotaccent.sc
Substitution2: "'aalt' Access All Alternates lookup 0 subtable" gdotaccent.sc
Position2: "'cpsp' Capital Spacing lookup 0 subtable" dx=5 dy=0 dh=10 dv=0
EndChar

StartChar: gdotaccent
Encoding: 289 289 172
Width: 551
GlyphClass: 2
Flags: MW
HStem: -222 105<216 310.5 216 351> -5 113<168 335 255 303> 164 102<264 294 244 344> 444 104<243.5 264 194.5 294.5> 479 69 631 180<246.5 301.5>
VStem: 6 142<-74 -51 -74 -51> 31 157<327 383.5 327 414> 63 134<71.5 146> 181 187<695.5 746.5> 348 150<327.5 376.5 290.5 387.5> 379 159<-74 -41.5>
AnchorPoint: "Anchor-11" 0 0 basechar 0
AnchorPoint: "Anchor-10" 0 0 basechar 0
AnchorPoint: "Anchor-9" 275 531 basechar 0
AnchorPoint: "Anchor-8" 0 0 basechar 0
LayerCount: 2
Fore
SplineSet
274 811 m 0xf440
 329 811 368 772 368 721 c 0
 368 670 329 631 274 631 c 0
 219 631 181 670 181 721 c 0
 181 772 219 811 274 811 c 0xf440
551 500 m 1
 514 485 465 479 398 479 c 1
 465 450 498 411 498 342 c 0
 498 239 413 164 275 164 c 0
 253 164 233 166 214 170 c 1
 203 164 197 152 197 140 c 0
 197 124 204 108 255 108 c 2xeca0
 335 108 l 2
 459 108 538 43 538 -46 c 0
 538 -155 442 -222 260 -222 c 0
 59 -222 6 -156 6 -51 c 1
 148 -51 l 1xf610
 148 -97 168 -117 264 -117 c 0
 357 -117 379 -91 379 -57 c 0
 379 -26 356 -5 303 -5 c 2
 226 -5 l 2
 110 -5 63 43 63 100 c 0xf490
 63 139 88 178 126 202 c 1
 58 238 31 285 31 354 c 0xf520
 31 474 125 548 264 548 c 1
 382 545 450 579 514 617 c 1
 551 500 l 1
268 444 m 0xf520
 219 444 188 411 188 356 c 0
 188 298 220 266 268 266 c 0
 320 266 348 297 348 358 c 0
 348 417 321 444 268 444 c 0xf520
EndSplineSet
Substitution2: "'smcp' Lowercase to Small Capitals lookup 24 subtable" gdotaccent.sc
Substitution2: "'aalt' Access All Alternates lookup 0 subtable" gdotaccent.sc
EndChar
StartChar: Gcommaaccent
Encoding: 290 290 104
Width: 645
GlyphClass: 2
Flags: MW
HStem: -210 21G<302 302> -17 120<299 364 299 393.5> 283 116<351 441 351 351> 591 119<323.5 400>
VStem: 33 170<256 433 256 464.5> 269 158<-158 -124> 441 159<126 283 283 283>
AnchorPoint: "Anchor-14" 0 0 basechar 0
AnchorPoint: "Anchor-13" 0 0 basechar 0
AnchorPoint: "Anchor-12" 352 693 basechar 0
AnchorPoint: "Anchor-11" 0 0 basechar 0
AnchorPoint: "Anchor-10" 347 0 basechar 0
LayerCount: 2
Back
Fore
SplineSet
364 710 m 0
 464 710 539 675 596 625 c 1
 511 536 l 1
 466 574 428 591 372 591 c 0
 275 591 203 519 203 347 c 0
 203 165 251 103 347 103 c 0
 381 103 412 110 441 126 c 1
 441 283 l 1
 351 283 l 1
 335 399 l 1
 600 399 l 1
 600 56 l 1
 529 10 439 -17 348 -17 c 0
 139 -17 33 110 33 347 c 0
 33 582 180 710 364 710 c 0
348 -68 m 0xfe
 394 -68 427 -101 427 -145 c 0
 427 -171 419 -191 400 -229 c 2
 354 -325 l 1
 275 -325 l 1
 302 -210 l 1
 283 -195 269 -174 269 -145 c 0
 269 -103 302 -68 348 -68 c 0xfe
EndSplineSet
Substitution2: "'c2sc' Capitals to Small Capitals lookup 26 subtable" gcommaaccent.sc
Substitution2: "'aalt' Access All Alternates lookup 0 subtable" gcommaaccent.sc
Position2: "'cpsp' Capital Spacing lookup 0 subtable" dx=5 dy=0 dh=10 dv=0
EndChar

StartChar: gcommaaccent
Encoding: 291 291 171
Width: 551
GlyphClass: 2
Flags: MW
HStem: -222 105<216 310.5 216 351> -5 113<168 335 255 303> 164 102<264 294 244 344> 444 104<243.5 264 194.5 294.5> 479 69
VStem: 6 142<-74 -51 -74 -51> 31 157<327 383.5 327 414> 63 134<71.5 146> 195 158<655 689> 348 150<327.5 376.5 290.5 387.5> 379 159<-74 -41.5>
AnchorPoint: "Anchor-11" 0 0 basechar 0
AnchorPoint: "Anchor-10" 0 0 basechar 0
AnchorPoint: "Anchor-9" 275 531 basechar 0
AnchorPoint: "Anchor-8" 0 0 basechar 0
LayerCount: 2
Fore
SplineSet
274 599 m 0xf480
 229 599 195 632 195 676 c 0
 195 702 203 722 222 760 c 2
 268 856 l 1
 347 856 l 1
 320 741 l 1
 339 726 353 705 353 676 c 0
 353 634 319 599 274 599 c 0xf480
551 500 m 1
 514 485 465 479 398 479 c 1
 465 450 498 411 498 342 c 0
 498 239 413 164 275 164 c 0
 253 164 233 166 214 170 c 1
 203 164 197 152 197 140 c 0
 197 124 204 108 255 108 c 2xe940
 335 108 l 2
 459 108 538 43 538 -46 c 0
 538 -155 442 -222 260 -222 c 0
 59 -222 6 -156 6 -51 c 1
 148 -51 l 1xf4a0
 148 -97 168 -117 264 -117 c 0
 357 -117 379 -91 379 -57 c 0
 379 -26 356 -5 303 -5 c 2
 226 -5 l 2
 110 -5 63 43 63 100 c 0xf120
 63 139 88 178 126 202 c 1
 58 238 31 285 31 354 c 0xf2
 31 474 125 548 264 548 c 1
 382 545 450 579 514 617 c 1
 551 500 l 1
268 444 m 0xf240
 219 444 188 411 188 356 c 0
 188 298 220 266 268 266 c 0
 320 266 348 297 348 358 c 0
 348 417 321 444 268 444 c 0xf240
EndSplineSet
Substitution2: "'smcp' Lowercase to Small Capitals lookup 24 subtable" gcommaaccent.sc
Substitution2: "'aalt' Access All Alternates lookup 0 subtable" gcommaaccent.sc
EndChar
StartChar: Hcircumflex
Encoding: 292 292 112
Width: 666
GlyphClass: 2
Flags: MW
HStem: 0 21G<65 229 65 65 437 601 437 437> 297 128<229 437 229 437> 673 20G<65 229 229 229 437 601 601 601>
VStem: 65 164<0 297 0 425 425 693> 437 164<0 297 297 297 425 693 0 693>
AnchorPoint: "Anchor-14" 333 347 basechar 0
AnchorPoint: "Anchor-13" 440 830 basechar 0
AnchorPoint: "Anchor-12" 333 949 basechar 0
AnchorPoint: "Anchor-11" 0 0 basechar 0
AnchorPoint: "Anchor-10" 333 0 basechar 0
LayerCount: 2
Back
Fore
SplineSet
466 755 m 1
 333 839 l 1
 200 755 l 1
 143 820 l 1
 285 949 l 1
 381 949 l 1
 522 820 l 1
 466 755 l 1
437 0 m 1
 437 297 l 1
 229 297 l 1
 229 0 l 1
 65 0 l 1
 65 693 l 1
 229 693 l 1
 229 425 l 1
 437 425 l 1
 437 693 l 1
 601 693 l 1
 601 0 l 1
 437 0 l 1
EndSplineSet
Substitution2: "'c2sc' Capitals to Small Capitals lookup 26 subtable" hcircumflex.sc
Substitution2: "'aalt' Access All Alternates lookup 0 subtable" hcircumflex.sc
Position2: "'cpsp' Capital Spacing lookup 0 subtable" dx=5 dy=0 dh=10 dv=0
EndChar
StartChar: hcircumflex
Encoding: 293 293 472
Width: 577
GlyphClass: 2
Flags: MW
HStem: 0 21G<62 220 62 62 362 520 362 362> 432 116<294.5 419> 722 20G<62 62> 738 20G<220 220>
VStem: 62 158<0 364 0 475 475 742 742 742> 362 158<0 361 361 388 0 389>
AnchorPoint: "Anchor-14" 288 266 basechar 0
AnchorPoint: "Anchor-13" 395 879 basechar 0
AnchorPoint: "Anchor-12" 288 998 basechar 0
AnchorPoint: "Anchor-11" 0 0 basechar 0
AnchorPoint: "Anchor-10" 292 0 basechar 0
LayerCount: 2
Back
Fore
SplineSet
288 888 m 1xdc
 155 804 l 1
 98 869 l 1
 240 998 l 1
 336 998 l 1
 477 869 l 1
 421 804 l 1
 288 888 l 1xdc
373 548 m 0
 465 548 520 489 520 388 c 2
 520 0 l 1
 362 0 l 1
 362 361 l 2
 362 417 342 432 312 432 c 0
 277 432 248 407 220 364 c 1
 220 0 l 1
 62 0 l 1
 62 742 l 1xec
 220 758 l 1
 220 475 l 1
 263 523 311 548 373 548 c 0
EndSplineSet
Substitution2: "'smcp' Lowercase to Small Capitals lookup 27 subtable" hcircumflex.sc
Substitution2: "'aalt' Access All Alternates lookup 0 subtable" hcircumflex.sc
EndChar
StartChar: Hbar
Encoding: 294 294 110
Width: 677
GlyphClass: 2
Flags: MW
HStem: 0 21G<70 234 70 70 443 607 443 443> 297 128<234 443 234 443> 500 92<13 70 13 70 234 443 607 664> 500 193<13 234 13 234 70 234 70 443>
VStem: 70 164<0 297 0 425 425 500 592 693> 443 164<0 297 297 297 425 500 0 500 592 693>
AnchorPoint: "Anchor-14" 339 347 basechar 0
AnchorPoint: "Anchor-13" 0 0 basechar 0
AnchorPoint: "Anchor-12" 339 693 basechar 0
AnchorPoint: "Anchor-11" 0 0 basechar 0
AnchorPoint: "Anchor-10" 339 0 basechar 0
LayerCount: 2
Back
Fore
SplineSet
664 592 m 1xec
 664 500 l 1
 607 500 l 1
 607 0 l 1
 443 0 l 1
 443 297 l 1
 234 297 l 1
 234 0 l 1
 70 0 l 1
 70 500 l 1
 13 500 l 1xdc
 13 592 l 1
 70 592 l 1xec
 70 693 l 1
 234 693 l 1xdc
 234 592 l 1
 443 592 l 1xec
 443 693 l 1
 607 693 l 1xdc
 607 592 l 1
 664 592 l 1xec
443 425 m 1
 443 500 l 1
 234 500 l 1
 234 425 l 1
 443 425 l 1
EndSplineSet
Substitution2: "'c2sc' Capitals to Small Capitals lookup 26 subtable" hbar.sc
Substitution2: "'aalt' Access All Alternates lookup 0 subtable" hbar.sc
Position2: "'cpsp' Capital Spacing lookup 0 subtable" dx=5 dy=0 dh=10 dv=0
EndChar

StartChar: Itilde
Encoding: 296 296 53
Width: 294
GlyphClass: 2
Flags: MW
HStem: 0 21G<65 229 65 65> 673 20G<65 229 229 229> 761 112<187.5 215 187.5 236> 806 112<79 107.5>
VStem: 65 164<0 693>
AnchorPoint: "Anchor-11" 0 0 basechar 0
AnchorPoint: "Anchor-10" 61 693 basechar 0
AnchorPoint: "Anchor-9" 147 693 basechar 0
AnchorPoint: "Anchor-8" 210 0 basechar 0
LayerCount: 2
Fore
SplineSet
208 761 m 0xe8
 144 761 124 806 91 806 c 0
 67 806 54 790 38 762 c 1
 -41 800 l 1
 -16 864 28 918 88 918 c 0xd8
 150 918 171 873 204 873 c 0
 226 873 240 888 256 917 c 1
 335 878 l 1
 309 811 264 761 208 761 c 0xe8
229 0 m 1xd8
 65 0 l 1
 65 693 l 1
 229 693 l 1
 229 0 l 1xd8
EndSplineSet
Substitution2: "'c2sc' Capitals to Small Capitals lookup 23 subtable" itilde.sc
Substitution2: "'aalt' Access All Alternates lookup 0 subtable" itilde.sc
Position2: "'cpsp' Capital Spacing lookup 0 subtable" dx=5 dy=0 dh=10 dv=0
EndChar
StartChar: itilde
Encoding: 297 297 497
Width: 282
GlyphClass: 2
Flags: MW
HStem: 0 21G<62 220 62 62> 511 20G<62 220 220 220> 635 112<181.5 209 181.5 228.5> 680 112<73 101.5> 732 20G<329 329>
VStem: 62 158<0 531 0 531>
AnchorPoint: "Anchor-14" 0 0 basechar 0
AnchorPoint: "Anchor-13" 0 0 basechar 0
AnchorPoint: "Anchor-12" 141 749 basechar 0
AnchorPoint: "Anchor-11" 205 0 basechar 0
AnchorPoint: "Anchor-10" 141 0 basechar 0
LayerCount: 2
Back
Fore
SplineSet
199 635 m 0xe4
 141 635 118 680 85 680 c 0
 61 680 48 664 32 636 c 1
 -47 674 l 1xd4
 -22 738 22 792 82 792 c 0
 143 792 165 747 198 747 c 0
 220 747 234 762 250 791 c 1xe4
 329 752 l 1xcc
 303 685 258 635 199 635 c 0xe4
220 531 m 1xcc
 220 0 l 1
 62 0 l 1
 62 531 l 1
 220 531 l 1xcc
EndSplineSet
Substitution2: "'smcp' Lowercase to Small Capitals lookup 27 subtable" itilde.sc
Substitution2: "'aalt' Access All Alternates lookup 0 subtable" itilde.sc
EndChar
StartChar: Imacron
Encoding: 298 298 132
Width: 293
GlyphClass: 2
Flags: MW
HStem: 0 21G<65 229 65 65> 673 20G<65 229 229 229> 781 110<-7 298 -7 298>
VStem: 65 164<0 693 0 693>
AnchorPoint: "Anchor-14" 0 0 basechar 0
AnchorPoint: "Anchor-13" 0 0 basechar 0
AnchorPoint: "Anchor-12" 148 891 basechar 0
AnchorPoint: "Anchor-11" 210 0 basechar 0
AnchorPoint: "Anchor-10" 146 0 basechar 0
LayerCount: 2
Back
Fore
SplineSet
298 781 m 1
 -7 781 l 1
 -7 891 l 1
 298 891 l 1
 298 781 l 1
229 693 m 1
 229 0 l 1
 65 0 l 1
 65 693 l 1
 229 693 l 1
EndSplineSet
Substitution2: "'c2sc' Capitals to Small Capitals lookup 26 subtable" imacron.sc
Substitution2: "'aalt' Access All Alternates lookup 0 subtable" imacron.sc
Position2: "'cpsp' Capital Spacing lookup 0 subtable" dx=5 dy=0 dh=10 dv=0
EndChar

StartChar: imacron
Encoding: 299 299 185
Width: 282
GlyphClass: 2
Flags: MW
HStem: 0 21G<62 220 62 62> 511 20G<62 220 220 220> 655 110<-12 293 -12 293>
VStem: 62 158<0 531>
AnchorPoint: "Anchor-11" 0 0 basechar 0
AnchorPoint: "Anchor-10" 0 0 basechar 0
AnchorPoint: "Anchor-9" 141 531 basechar 0
AnchorPoint: "Anchor-8" 205 0 basechar 0
LayerCount: 2
Fore
SplineSet
-12 655 m 1
 -12 765 l 1
 293 765 l 1
 293 655 l 1
 -12 655 l 1
220 0 m 1
 62 0 l 1
 62 531 l 1
 220 531 l 1
 220 0 l 1
EndSplineSet
Substitution2: "'smcp' Lowercase to Small Capitals lookup 24 subtable" imacron.sc
Substitution2: "'aalt' Access All Alternates lookup 0 subtable" imacron.sc
EndChar

StartChar: Ibreve
Encoding: 300 300 46
Width: 294
GlyphClass: 2
Flags: MW
HStem: 0 21G<65 229 65 65> 673 20G<65 229 229 229> 751 109<123 169 123 198.5>
VStem: 65 164<0 693>
AnchorPoint: "Anchor-11" 0 0 basechar 0
AnchorPoint: "Anchor-10" 61 693 basechar 0
AnchorPoint: "Anchor-9" 147 693 basechar 0
AnchorPoint: "Anchor-8" 210 0 basechar 0
LayerCount: 2
Fore
SplineSet
146 751 m 0
 41 751 -18 828 -26 913 c 1
 61 928 l 1
 73 890 100 860 146 860 c 0
 192 860 219 890 232 928 c 1
 319 913 l 1
 311 828 251 751 146 751 c 0
229 0 m 1
 65 0 l 1
 65 693 l 1
 229 693 l 1
 229 0 l 1
EndSplineSet
Substitution2: "'c2sc' Capitals to Small Capitals lookup 23 subtable" ibreve.sc
Substitution2: "'aalt' Access All Alternates lookup 0 subtable" ibreve.sc
Position2: "'cpsp' Capital Spacing lookup 0 subtable" dx=5 dy=0 dh=10 dv=0
EndChar

StartChar: ibreve
Encoding: 301 301 179
Width: 282
GlyphClass: 2
Flags: MW
HStem: 0 21G<62 220 62 62> 511 20G<62 220 220 220> 632 110<117 163 117 192.5>
VStem: 62 158<0 531>
AnchorPoint: "Anchor-11" 0 0 basechar 0
AnchorPoint: "Anchor-10" 0 0 basechar 0
AnchorPoint: "Anchor-9" 141 531 basechar 0
AnchorPoint: "Anchor-8" 205 0 basechar 0
LayerCount: 2
Fore
SplineSet
140 632 m 0
 35 632 -24 709 -32 805 c 1
 55 820 l 1
 67 772 94 742 140 742 c 0
 186 742 213 772 226 820 c 1
 313 805 l 1
 305 709 245 632 140 632 c 0
220 0 m 1
 62 0 l 1
 62 531 l 1
 220 531 l 1
 220 0 l 1
EndSplineSet
Substitution2: "'smcp' Lowercase to Small Capitals lookup 24 subtable" ibreve.sc
Substitution2: "'aalt' Access All Alternates lookup 0 subtable" ibreve.sc
EndChar
StartChar: Iogonek
Encoding: 302 302 133
Width: 293
GlyphClass: 2
Flags: MW
HStem: -246 98<117 128.5> 0 21G<200 229 200 200> 673 20G<65 229 229 229>
VStem: -32 114<-117 -98.5> 65 164<8 693 0 693>
AnchorPoint: "Anchor-14" 0 0 basechar 0
AnchorPoint: "Anchor-13" 0 0 basechar 0
AnchorPoint: "Anchor-12" 146 693 basechar 0
AnchorPoint: "Anchor-11" 210 0 basechar 0
AnchorPoint: "Anchor-10" 146 0 basechar 0
LayerCount: 2
Back
Fore
SplineSet
65 693 m 1xe8
 229 693 l 1
 229 0 l 1xe8
 200 0 l 1
 102 -37 82 -74 82 -102 c 0
 82 -132 99 -148 135 -148 c 0xf0
 155 -148 173 -145 196 -140 c 1
 185 -238 l 1xe8
 164 -243 142 -246 115 -246 c 0
 30 -246 -32 -201 -32 -129 c 0xf0
 -32 -68 4 -24 65 8 c 1
 65 693 l 1xe8
EndSplineSet
Substitution2: "'c2sc' Capitals to Small Capitals lookup 26 subtable" iogonek.sc
Substitution2: "'aalt' Access All Alternates lookup 0 subtable" iogonek.sc
Position2: "'cpsp' Capital Spacing lookup 0 subtable" dx=5 dy=0 dh=10 dv=0
EndChar

StartChar: iogonek
Encoding: 303 303 186
Width: 282
GlyphClass: 2
Flags: MW
HStem: -246 98<112 123.5> 0 21G<195 220 195 195> 511 20G<62 220 220 220> 631 180<112.5 167.5>
VStem: -37 114<-117 -98> 47 187<695.5 746.5> 62 158<10 531 0 531>
AnchorPoint: "Anchor-11" 0 0 basechar 0
AnchorPoint: "Anchor-10" 0 0 basechar 0
AnchorPoint: "Anchor-9" 141 531 basechar 0
AnchorPoint: "Anchor-8" 205 0 basechar 0
LayerCount: 2
Fore
SplineSet
140 631 m 0xf4
 85 631 47 670 47 721 c 0
 47 772 85 811 140 811 c 0
 195 811 234 772 234 721 c 0
 234 670 195 631 140 631 c 0xf4
62 531 m 1xf2
 220 531 l 1
 220 0 l 1xf2
 195 0 l 1
 97 -37 77 -74 77 -102 c 0
 77 -132 94 -148 130 -148 c 0
 150 -148 168 -145 191 -140 c 1
 180 -238 l 1
 159 -243 137 -246 110 -246 c 0
 25 -246 -37 -201 -37 -129 c 0xf8
 -37 -67 0 -23 62 10 c 1
 62 531 l 1xf2
EndSplineSet
Substitution2: "'smcp' Lowercase to Small Capitals lookup 24 subtable" iogonek.sc
Substitution2: "'aalt' Access All Alternates lookup 0 subtable" iogonek.sc
EndChar
StartChar: Idotaccent
Encoding: 304 304 127
Width: 293
GlyphClass: 2
Flags: MW
HStem: 0 21G<65 229 65 65> 673 20G<65 229 229 229> 757 180<118.5 173.5>
VStem: 53 187<821.5 872.5> 65 164<0 693 0 693>
AnchorPoint: "Anchor-14" 0 0 basechar 0
AnchorPoint: "Anchor-13" 0 0 basechar 0
AnchorPoint: "Anchor-12" 149 937 basechar 0
AnchorPoint: "Anchor-11" 210 0 basechar 0
AnchorPoint: "Anchor-10" 146 0 basechar 0
LayerCount: 2
Back
Fore
SplineSet
146 937 m 0xf0
 201 937 240 898 240 847 c 0
 240 796 201 757 146 757 c 0
 91 757 53 796 53 847 c 0
 53 898 91 937 146 937 c 0xf0
229 693 m 1xe8
 229 0 l 1
 65 0 l 1
 65 693 l 1
 229 693 l 1xe8
EndSplineSet
Substitution2: "'c2sc' Capitals to Small Capitals lookup 26 subtable" i.sc.loclTRK
Substitution2: "'aalt' Access All Alternates lookup 0 subtable" i.sc.loclTRK
Position2: "'cpsp' Capital Spacing lookup 0 subtable" dx=5 dy=0 dh=10 dv=0
EndChar
StartChar: dotlessi
Encoding: 305 305 479
Width: 282
GlyphClass: 2
Flags: MW
HStem: 0 21G<62 220 62 62> 511 20G<62 220 220 220>
VStem: 62 158<0 531 0 531>
AnchorPoint: "Anchor-14" 0 0 basechar 0
AnchorPoint: "Anchor-13" 0 0 basechar 0
AnchorPoint: "Anchor-12" 141 531 basechar 0
AnchorPoint: "Anchor-11" 205 0 basechar 0
AnchorPoint: "Anchor-10" 141 0 basechar 0
LayerCount: 2
Back
Fore
SplineSet
220 531 m 1
 220 0 l 1
 62 0 l 1
 62 531 l 1
 220 531 l 1
EndSplineSet
Substitution2: "'smcp' Lowercase to Small Capitals lookup 27 subtable" dotlessi.sc
Substitution2: "'aalt' Access All Alternates lookup 0 subtable" dotlessi.sc
EndChar

StartChar: IJ
Encoding: 306 306 44
Width: 611
GlyphClass: 2
Flags: MW
HStem: 0 21G<65 229 65 65> 673 20G<65 229 229 229 386 550 550 550>
VStem: 65 164<0 693> 386 164<111 693>
AnchorPoint: "Anchor-11" 0 0 basechar 0
AnchorPoint: "Anchor-10" 61 693 basechar 0
AnchorPoint: "Anchor-9" 468 693 basechar 0
AnchorPoint: "Anchor-8" 210 0 basechar 0
LayerCount: 2
Fore
SplineSet
229 0 m 1
 65 0 l 1
 65 693 l 1
 229 693 l 1
 229 0 l 1
550 105 m 2
 550 -70 444 -131 327 -169 c 1
 283 -53 l 1
 373 -18 386 29 386 111 c 2
 386 693 l 1
 550 693 l 1
 550 105 l 2
EndSplineSet
Substitution2: "'c2sc' Capitals to Small Capitals lookup 23 subtable" ij.sc
Substitution2: "'aalt' Access All Alternates lookup 0 subtable" ij.sc
Position2: "'cpsp' Capital Spacing lookup 0 subtable" dx=5 dy=0 dh=10 dv=0
EndChar

StartChar: ij
Encoding: 307 307 184
Width: 563
GlyphClass: 2
Flags: MW
HStem: -221 21G<288 288> 0 21G<62 220 62 62> 511 20G<62 220 220 220 343 501 501 501> 631 180<112.5 167.5 394.5 449.5>
VStem: 47 187<695.5 746.5> 62 158<0 531> 329 187<695.5 746.5> 343 158<50 60 60 531>
AnchorPoint: "Anchor-11" 0 0 basechar 0
AnchorPoint: "Anchor-10" 0 0 basechar 0
AnchorPoint: "Anchor-9" 423 531 basechar 0
AnchorPoint: "Anchor-8" 205 0 basechar 0
LayerCount: 2
Fore
SplineSet
140 811 m 0xfa
 195 811 234 772 234 721 c 0
 234 670 195 631 140 631 c 0
 85 631 47 670 47 721 c 0
 47 772 85 811 140 811 c 0xfa
422 811 m 0
 477 811 516 772 516 721 c 0
 516 670 477 631 422 631 c 0
 367 631 329 670 329 721 c 0
 329 772 367 811 422 811 c 0
220 0 m 1xf5
 62 0 l 1
 62 531 l 1
 220 531 l 1
 220 0 l 1xf5
501 60 m 2
 501 -113 412 -176 288 -221 c 1
 235 -106 l 1
 303 -75 343 -47 343 50 c 2
 343 531 l 1
 501 531 l 1
 501 60 l 2
EndSplineSet
Substitution2: "'smcp' Lowercase to Small Capitals lookup 24 subtable" ij.sc
Substitution2: "'aalt' Access All Alternates lookup 0 subtable" ij.sc
EndChar
StartChar: Jcircumflex
Encoding: 308 308 138
Width: 317
GlyphClass: 2
Flags: MW
HStem: 673 20G<92 256 256 256>
VStem: 92 164<111 693>
AnchorPoint: "Anchor-14" 0 0 basechar 0
AnchorPoint: "Anchor-13" 281 830 basechar 0
AnchorPoint: "Anchor-12" 174 949 basechar 0
AnchorPoint: "Anchor-11" 0 0 basechar 0
AnchorPoint: "Anchor-10" 0 0 basechar 0
LayerCount: 2
Back
Fore
SplineSet
307 755 m 1
 174 839 l 1
 41 755 l 1
 -16 820 l 1
 126 949 l 1
 222 949 l 1
 363 820 l 1
 307 755 l 1
256 693 m 1
 256 105 l 2
 256 -70 150 -131 33 -169 c 1
 -11 -53 l 1
 79 -18 92 29 92 111 c 2
 92 693 l 1
 256 693 l 1
EndSplineSet
Substitution2: "'c2sc' Capitals to Small Capitals lookup 26 subtable" jcircumflex.sc
Substitution2: "'aalt' Access All Alternates lookup 0 subtable" jcircumflex.sc
Position2: "'cpsp' Capital Spacing lookup 0 subtable" dx=5 dy=0 dh=10 dv=0
EndChar

StartChar: Kcommaaccent
Encoding: 310 310 57
Width: 633
GlyphClass: 2
Flags: MW
HStem: -210 21G<279 279> 0 21G<65 229 65 65 455 455 455 645> 673 20G<65 229 229 229 454 627 627 627>
VStem: 65 164<0 693> 246 158<-158 -124>
AnchorPoint: "Anchor-11" 324 0 basechar 0
AnchorPoint: "Anchor-10" 0 0 basechar 0
AnchorPoint: "Anchor-9" 329 693 basechar 0
AnchorPoint: "Anchor-8" 0 0 basechar 0
LayerCount: 2
Fore
SplineSet
229 0 m 1
 65 0 l 1
 65 693 l 1
 229 693 l 1
 229 0 l 1
406 382 m 1
 645 0 l 1
 455 0 l 1
 234 370 l 1
 454 693 l 1
 627 693 l 1
 406 382 l 1
325 -68 m 0xf8
 370 -68 404 -101 404 -145 c 0
 404 -171 396 -191 377 -229 c 2
 331 -325 l 1
 252 -325 l 1
 279 -210 l 1
 260 -195 246 -174 246 -145 c 0
 246 -103 280 -68 325 -68 c 0xf8
EndSplineSet
Substitution2: "'c2sc' Capitals to Small Capitals lookup 23 subtable" kcommaaccent.sc
Substitution2: "'aalt' Access All Alternates lookup 0 subtable" kcommaaccent.sc
Position2: "'cpsp' Capital Spacing lookup 0 subtable" dx=5 dy=0 dh=10 dv=0
EndChar

StartChar: kcommaaccent
Encoding: 311 311 192
Width: 552
GlyphClass: 2
Flags: MW
HStem: -210 21G<231 231> 0 21G<62 220 62 62 383 383 383 561> 511 20G<387 548 548 548> 722 20G<62 62> 739 20G<220 220>
VStem: 62 158<0 742 742 742> 198 158<-158 -124>
AnchorPoint: "Anchor-11" 276 0 basechar 0
AnchorPoint: "Anchor-10" 0 0 basechar 0
AnchorPoint: "Anchor-9" 0 0 basechar 0
AnchorPoint: "Anchor-8" 0 0 basechar 0
LayerCount: 2
Fore
SplineSet
220 0 m 1xec
 62 0 l 1
 62 742 l 1xf4
 220 759 l 1
 220 0 l 1xec
387 298 m 1
 561 0 l 1
 383 0 l 1
 225 290 l 1
 387 531 l 1
 548 531 l 1
 387 298 l 1
277 -68 m 0xea
 322 -68 356 -101 356 -145 c 0
 356 -171 348 -191 329 -229 c 2
 283 -325 l 1
 204 -325 l 1
 231 -210 l 1
 212 -195 198 -174 198 -145 c 0
 198 -103 232 -68 277 -68 c 0xea
EndSplineSet
Substitution2: "'smcp' Lowercase to Small Capitals lookup 24 subtable" kcommaaccent.sc
Substitution2: "'aalt' Access All Alternates lookup 0 subtable" kcommaaccent.sc
EndChar
StartChar: kgreenlandic
Encoding: 312 312 509
Width: 551
GlyphClass: 2
Flags: MW
HStem: 0 21G<62 220 62 62 382 382 382 560> 511 20G<62 220 220 220 386 547 547 547>
VStem: 62 158<0 531 0 531>
LayerCount: 2
Back
Fore
SplineSet
220 531 m 1
 220 0 l 1
 62 0 l 1
 62 531 l 1
 220 531 l 1
547 531 m 1
 386 288 l 1
 560 0 l 1
 382 0 l 1
 224 280 l 1
 386 531 l 1
 547 531 l 1
EndSplineSet
Substitution2: "'smcp' Lowercase to Small Capitals lookup 27 subtable" kgreenlandic.sc
Substitution2: "'aalt' Access All Alternates lookup 0 subtable" kgreenlandic.sc
EndChar
StartChar: Lacute
Encoding: 313 313 146
Width: 513
GlyphClass: 2
Flags: MW
HStem: 0 130<229 482> 673 20G<65 229 229 229>
VStem: 65 164<130 693 130 693 130 693>
AnchorPoint: "Anchor-14" 398 399 basechar 0
AnchorPoint: "Anchor-13" 242 693 basechar 0
AnchorPoint: "Anchor-12" 149 956 basechar 0
AnchorPoint: "Anchor-11" 0 0 basechar 0
AnchorPoint: "Anchor-10" 273 0 basechar 0
LayerCount: 2
Back
Fore
SplineSet
226 956 m 1
 287 838 l 1
 47 751 l 1
 7 831 l 1
 226 956 l 1
229 693 m 1
 229 130 l 1
 499 130 l 1
 482 0 l 1
 65 0 l 1
 65 693 l 1
 229 693 l 1
EndSplineSet
Substitution2: "'c2sc' Capitals to Small Capitals lookup 26 subtable" lacute.sc
Substitution2: "'aalt' Access All Alternates lookup 0 subtable" lacute.sc
Position2: "'cpsp' Capital Spacing lookup 0 subtable" dx=5 dy=0 dh=10 dv=0
EndChar
StartChar: lacute
Encoding: 314 314 513
Width: 297
GlyphClass: 2
Flags: MW
HStem: -17 21G<157 222> -17 125<157 247.5> 722 20G<57 57> 739 20G<215 215>
VStem: 57 158<135 141 141 742 742 742>
AnchorPoint: "Anchor-14" 354 376 basechar 0
AnchorPoint: "Anchor-13" 225 742 basechar 0
AnchorPoint: "Anchor-12" 138 1005 basechar 0
AnchorPoint: "Anchor-11" 0 0 basechar 0
AnchorPoint: "Anchor-10" 183 0 basechar 0
LayerCount: 2
Back
Fore
SplineSet
215 1005 m 1x98
 276 887 l 1
 36 800 l 1
 -4 880 l 1
 215 1005 l 1x98
203 -17 m 0
 111 -17 57 38 57 135 c 2
 57 742 l 1xa8
 215 759 l 1
 215 141 l 2
 215 119 223 108 242 108 c 0
 253 108 261 110 268 113 c 1x58
 299 1 l 1
 275 -9 241 -17 203 -17 c 0
EndSplineSet
Substitution2: "'smcp' Lowercase to Small Capitals lookup 27 subtable" lacute.sc
Substitution2: "'aalt' Access All Alternates lookup 0 subtable" lacute.sc
EndChar
StartChar: Lcommaaccent
Encoding: 315 315 150
Width: 513
GlyphClass: 2
Flags: MW
HStem: -210 21G<228 228> 0 130<229 482> 673 20G<65 229 229 229>
VStem: 65 164<130 693 130 693 130 693> 195 158<-158 -124>
AnchorPoint: "Anchor-14" 398 399 basechar 0
AnchorPoint: "Anchor-13" 242 693 basechar 0
AnchorPoint: "Anchor-12" 147 693 basechar 0
AnchorPoint: "Anchor-11" 0 0 basechar 0
AnchorPoint: "Anchor-10" 273 0 basechar 0
LayerCount: 2
Back
Fore
SplineSet
229 693 m 1xf0
 229 130 l 1
 499 130 l 1
 482 0 l 1
 65 0 l 1
 65 693 l 1
 229 693 l 1xf0
274 -68 m 0xe8
 320 -68 353 -101 353 -145 c 0
 353 -171 345 -191 326 -229 c 2
 280 -325 l 1
 201 -325 l 1
 228 -210 l 1
 209 -195 195 -174 195 -145 c 0
 195 -103 228 -68 274 -68 c 0xe8
EndSplineSet
Substitution2: "'c2sc' Capitals to Small Capitals lookup 26 subtable" lcommaaccent.sc
Substitution2: "'aalt' Access All Alternates lookup 0 subtable" lcommaaccent.sc
Position2: "'cpsp' Capital Spacing lookup 0 subtable" dx=5 dy=0 dh=10 dv=0
EndChar

StartChar: lcommaaccent
Encoding: 316 316 197
Width: 297
GlyphClass: 2
Flags: MW
HStem: -210 21G<126 126> -17 21G<153 215.5> -17 125<153 246> 1 21G<299 299> 722 20G<57 57> 739 20G<215 215>
VStem: 57 158<134 149 149 742 742 742> 93 158<-158 -124>
AnchorPoint: "Anchor-11" 171 0 basechar 0
AnchorPoint: "Anchor-10" 0 0 basechar 0
AnchorPoint: "Anchor-9" 136 742 basechar 0
AnchorPoint: "Anchor-8" 0 0 basechar 0
LayerCount: 2
Fore
SplineSet
215 149 m 2xa6
 215 119 225 108 242 108 c 0
 250 108 261 110 268 113 c 1xa6
 299 1 l 1
 272 -10 234 -17 197 -17 c 0
 109 -17 57 35 57 133 c 2
 57 742 l 1xca
 215 759 l 1
 215 149 l 2xa6
172 -68 m 0x95
 217 -68 251 -101 251 -145 c 0
 251 -171 243 -191 224 -229 c 2
 178 -325 l 1
 99 -325 l 1
 126 -210 l 1
 107 -195 93 -174 93 -145 c 0
 93 -103 127 -68 172 -68 c 0x95
EndSplineSet
Substitution2: "'smcp' Lowercase to Small Capitals lookup 24 subtable" lcommaaccent.sc
Substitution2: "'aalt' Access All Alternates lookup 0 subtable" lcommaaccent.sc
EndChar
StartChar: Lcaron
Encoding: 317 317 148
Width: 513
GlyphClass: 2
Flags: MW
HStem: 0 130<229 482> 673 20G<65 229 229 229 413 413> 690 20G<293 293>
VStem: 65 164<130 693 130 693 130 693>
AnchorPoint: "Anchor-14" 398 399 basechar 0
AnchorPoint: "Anchor-13" 242 693 basechar 0
AnchorPoint: "Anchor-12" 147 693 basechar 0
AnchorPoint: "Anchor-11" 0 0 basechar 0
AnchorPoint: "Anchor-10" 273 0 basechar 0
LayerCount: 2
Back
Fore
SplineSet
293 710 m 1xb0
 413 693 l 1xd0
 358 478 l 1
 270 491 l 1
 293 710 l 1xb0
229 693 m 1
 229 130 l 1
 499 130 l 1
 482 0 l 1
 65 0 l 1
 65 693 l 1
 229 693 l 1
EndSplineSet
Substitution2: "'c2sc' Capitals to Small Capitals lookup 26 subtable" lcaron.sc
Substitution2: "'aalt' Access All Alternates lookup 0 subtable" lcaron.sc
Position2: "'cpsp' Capital Spacing lookup 0 subtable" dx=5 dy=0 dh=10 dv=0
EndChar
StartChar: lcaron
Encoding: 318 318 517
Width: 369
GlyphClass: 2
Flags: MW
HStem: -17 21G<157 222> -17 125<157 247.5> 520 20G<253 253> 722 20G<57 57 396 396> 739 20G<215 215 276 276>
VStem: 57 158<135 141 141 742 742 742>
AnchorPoint: "Anchor-14" 354 376 basechar 0
AnchorPoint: "Anchor-13" 225 742 basechar 0
AnchorPoint: "Anchor-12" 136 742 basechar 0
AnchorPoint: "Anchor-11" 0 0 basechar 0
AnchorPoint: "Anchor-10" 183 0 basechar 0
LayerCount: 2
Back
Fore
SplineSet
276 759 m 1xac
 396 742 l 1xb4
 341 527 l 1
 253 540 l 1
 276 759 l 1xac
203 -17 m 0
 111 -17 57 38 57 135 c 2
 57 742 l 1xb4
 215 759 l 1
 215 141 l 2
 215 119 223 108 242 108 c 0
 253 108 261 110 268 113 c 1x6c
 299 1 l 1
 275 -9 241 -17 203 -17 c 0
EndSplineSet
Substitution2: "'smcp' Lowercase to Small Capitals lookup 27 subtable" lcaron.sc
Substitution2: "'aalt' Access All Alternates lookup 0 subtable" lcaron.sc
EndChar

StartChar: Ldot
Encoding: 319 319 62
Width: 513
GlyphClass: 2
Flags: MW
HStem: 0 130<229 482> 308 180<370.5 425.5> 673 20G<65 229 229 229>
VStem: 65 164<130 130 130 693> 305 187<372.5 423.5>
AnchorPoint: "Anchor-11" 273 0 basechar 0
AnchorPoint: "Anchor-10" 0 0 basechar 0
AnchorPoint: "Anchor-9" 147 693 basechar 0
AnchorPoint: "Anchor-8" 0 0 basechar 0
LayerCount: 2
Fore
SplineSet
229 130 m 1
 499 130 l 1
 482 0 l 1
 65 0 l 1
 65 693 l 1
 229 693 l 1
 229 130 l 1
398 488 m 0
 453 488 492 449 492 398 c 0
 492 347 453 308 398 308 c 0
 343 308 305 347 305 398 c 0
 305 449 343 488 398 488 c 0
EndSplineSet
Ligature2: "Ligature Substitution lookup 29 subtable" L periodcentered
Substitution2: "'c2sc' Capitals to Small Capitals lookup 23 subtable" ldot.sc
Substitution2: "'aalt' Access All Alternates lookup 0 subtable" ldot.sc
Position2: "'cpsp' Capital Spacing lookup 0 subtable" dx=5 dy=0 dh=10 dv=0
EndChar
StartChar: ldot
Encoding: 320 320 521
Width: 442
GlyphClass: 2
Flags: MW
HStem: -17 21G<157 222> -17 125<157 247.5> 287 180<327.5 382.5> 722 20G<57 57> 739 20G<215 215>
VStem: 57 158<135 141 141 742 742 742> 262 187<351.5 402.5>
AnchorPoint: "Anchor-14" 354 376 basechar 0
AnchorPoint: "Anchor-13" 225 742 basechar 0
AnchorPoint: "Anchor-12" 358 467 basechar 0
AnchorPoint: "Anchor-11" 0 0 basechar 0
AnchorPoint: "Anchor-10" 183 0 basechar 0
LayerCount: 2
Back
Fore
SplineSet
203 -17 m 0xac
 111 -17 57 38 57 135 c 2
 57 742 l 1xb4
 215 759 l 1
 215 141 l 2
 215 119 223 108 242 108 c 0
 253 108 261 110 268 113 c 1x6c
 299 1 l 1
 275 -9 241 -17 203 -17 c 0xac
355 467 m 0xae
 410 467 449 428 449 377 c 0
 449 326 410 287 355 287 c 0
 300 287 262 326 262 377 c 0
 262 428 300 467 355 467 c 0xae
EndSplineSet
Ligature2: "Ligature Substitution lookup 40 subtable" l periodcentered
Substitution2: "'smcp' Lowercase to Small Capitals lookup 27 subtable" ldot.sc
Substitution2: "'aalt' Access All Alternates lookup 0 subtable" ldot.sc
EndChar
StartChar: Lslash
Encoding: 321 321 154
Width: 553
GlyphClass: 2
Flags: MW
HStem: 0 130<268 522> 673 20G<104 268 268 268>
VStem: 104 164<130 130 130 224 224 224 446 693>
AnchorPoint: "Anchor-14" 438 399 basechar 0
AnchorPoint: "Anchor-13" 282 693 basechar 0
AnchorPoint: "Anchor-12" 186 693 basechar 0
AnchorPoint: "Anchor-11" 0 0 basechar 0
AnchorPoint: "Anchor-10" 313 0 basechar 0
LayerCount: 2
Back
Fore
SplineSet
268 130 m 1
 539 130 l 1
 522 0 l 1
 104 0 l 1
 104 224 l 1
 62 198 l 1
 8 285 l 1
 104 344 l 1
 104 693 l 1
 268 693 l 1
 268 446 l 1
 396 525 l 1
 450 439 l 1
 268 326 l 1
 268 130 l 1
EndSplineSet
Substitution2: "'c2sc' Capitals to Small Capitals lookup 26 subtable" lslash.sc
Substitution2: "'aalt' Access All Alternates lookup 0 subtable" lslash.sc
Position2: "'cpsp' Capital Spacing lookup 0 subtable" dx=5 dy=0 dh=10 dv=0
EndChar

StartChar: lslash
Encoding: 322 322 199
Width: 345
GlyphClass: 2
Flags: MW
HStem: -17 21G<178.5 241.5> -17 125<178.5 271.5> 510 20G<303 303> 722 20G<83 83> 739 20G<241 241>
VStem: 83 158<134 149 149 273 273 273 492 742 742 742>
AnchorPoint: "Anchor-11" 197 0 basechar 0
AnchorPoint: "Anchor-10" 0 0 basechar 0
AnchorPoint: "Anchor-9" 162 742 basechar 0
AnchorPoint: "Anchor-8" 0 0 basechar 0
LayerCount: 2
Fore
SplineSet
267 108 m 0x6c
 276 108 286 110 294 113 c 1x6c
 325 1 l 1
 298 -10 260 -17 223 -17 c 0
 134 -17 83 35 83 133 c 2
 83 273 l 1
 37 245 l 1
 -3 342 l 1
 83 395 l 1
 83 742 l 1xb4
 241 759 l 1
 241 492 l 1
 303 530 l 1
 340 431 l 1
 241 370 l 1
 241 149 l 2
 241 119 250 108 267 108 c 0x6c
EndSplineSet
Substitution2: "'smcp' Lowercase to Small Capitals lookup 24 subtable" lslash.sc
Substitution2: "'aalt' Access All Alternates lookup 0 subtable" lslash.sc
EndChar

StartChar: Nacute
Encoding: 323 323 66
Width: 663
GlyphClass: 2
Flags: MW
HStem: 0 21G<65 211 65 65 390 599 390 390> 0 155<474 474 474 599 390 474> 537 156<190 190> 673 20G<65 269 269 269 452 599 599 599>
VStem: 65 146<0 254 0 693> 452 147<413 693>
AnchorPoint: "Anchor-11" 332 0 basechar 0
AnchorPoint: "Anchor-10" 0 0 basechar 0
AnchorPoint: "Anchor-9" 336 693 basechar 0
AnchorPoint: "Anchor-8" 0 0 basechar 0
LayerCount: 2
Fore
SplineSet
474 838 m 1x9c
 234 751 l 1
 194 831 l 1
 413 956 l 1
 474 838 l 1x9c
599 0 m 1
 390 0 l 1
 190 537 l 1xac
 198 474 211 382 211 254 c 2
 211 0 l 1
 65 0 l 1
 65 693 l 1
 269 693 l 1
 474 155 l 1x5c
 465 211 452 302 452 413 c 2
 452 693 l 1
 599 693 l 1
 599 0 l 1
EndSplineSet
Substitution2: "'c2sc' Capitals to Small Capitals lookup 23 subtable" nacute.sc
Substitution2: "'locl' Localized Forms in Latin lookup 7 subtable" Nacute.loclPLK
AlternateSubs2: "'aalt' Access All Alternates lookup 1 subtable" Nacute.loclPLK nacute.sc
Position2: "'cpsp' Capital Spacing lookup 0 subtable" dx=5 dy=0 dh=10 dv=0
EndChar

StartChar: Ncommaaccent
Encoding: 325 325 68
Width: 663
GlyphClass: 2
Flags: MW
HStem: -210 21G<287 287> 0 21G<65 211 65 65 390 599 390 390> 0 155<474 474 474 599 390 474> 537 156<190 190> 673 20G<65 269 269 269 452 599 599 599>
VStem: 65 146<0 254 0 693> 254 158<-158 -124> 452 147<413 693>
AnchorPoint: "Anchor-11" 332 0 basechar 0
AnchorPoint: "Anchor-10" 0 0 basechar 0
AnchorPoint: "Anchor-9" 336 693 basechar 0
AnchorPoint: "Anchor-8" 0 0 basechar 0
LayerCount: 2
Fore
SplineSet
599 0 m 1xcf
 390 0 l 1
 190 537 l 1xd7
 198 474 211 382 211 254 c 2
 211 0 l 1
 65 0 l 1
 65 693 l 1
 269 693 l 1
 474 155 l 1xaf
 465 211 452 302 452 413 c 2
 452 693 l 1
 599 693 l 1
 599 0 l 1xcf
333 -68 m 0
 378 -68 412 -101 412 -145 c 0
 412 -171 404 -191 385 -229 c 2
 339 -325 l 1
 260 -325 l 1
 287 -210 l 1
 268 -195 254 -174 254 -145 c 0
 254 -103 288 -68 333 -68 c 0
EndSplineSet
Substitution2: "'c2sc' Capitals to Small Capitals lookup 23 subtable" ncommaaccent.sc
Substitution2: "'aalt' Access All Alternates lookup 0 subtable" ncommaaccent.sc
Position2: "'cpsp' Capital Spacing lookup 0 subtable" dx=5 dy=0 dh=10 dv=0
EndChar

StartChar: ncommaaccent
Encoding: 326 326 205
Width: 577
GlyphClass: 2
Flags: MW
HStem: -210 21G<244 244> 0 21G<62 220 62 62 362 520 362 362> 432 116<294.5 419> 511 20G<62 200 200 200>
VStem: 62 158<0 363 0 531> 211 158<-158 -124> 362 158<0 361 361 388 0 389>
AnchorPoint: "Anchor-11" 289 0 basechar 0
AnchorPoint: "Anchor-10" 0 0 basechar 0
AnchorPoint: "Anchor-9" 294 531 basechar 0
AnchorPoint: "Anchor-8" 0 0 basechar 0
LayerCount: 2
Fore
SplineSet
373 548 m 0xea
 465 548 520 489 520 388 c 2
 520 0 l 1
 362 0 l 1
 362 361 l 2
 362 417 343 432 312 432 c 0
 277 432 248 407 220 363 c 1xea
 220 0 l 1
 62 0 l 1
 62 531 l 1xda
 200 531 l 1xd4
 211 468 l 1xe4
 256 521 307 548 373 548 c 0xea
290 -68 m 0xd4
 335 -68 369 -101 369 -145 c 0
 369 -171 361 -191 342 -229 c 2
 296 -325 l 1
 217 -325 l 1
 244 -210 l 1
 225 -195 211 -174 211 -145 c 0
 211 -103 245 -68 290 -68 c 0xd4
EndSplineSet
Substitution2: "'smcp' Lowercase to Small Capitals lookup 24 subtable" ncommaaccent.sc
Substitution2: "'aalt' Access All Alternates lookup 0 subtable" ncommaaccent.sc
EndChar
StartChar: Ncaron
Encoding: 327 327 163
Width: 663
GlyphClass: 2
Flags: MW
HStem: 0 21G<65 211 65 65 390 599 390 390> 0 155<474 474 474 599 390 474> 537 156<190 190> 673 20G<65 269 269 269 452 599 599 599>
VStem: 65 146<0 254 0 693> 452 147<413 693 0 693>
AnchorPoint: "Anchor-14" 0 0 basechar 0
AnchorPoint: "Anchor-13" 0 0 basechar 0
AnchorPoint: "Anchor-12" 339 944 basechar 0
AnchorPoint: "Anchor-11" 0 0 basechar 0
AnchorPoint: "Anchor-10" 332 0 basechar 0
LayerCount: 2
Back
Fore
SplineSet
470 944 m 1x9c
 526 879 l 1
 385 750 l 1
 289 750 l 1
 147 879 l 1
 204 944 l 1
 337 860 l 1
 470 944 l 1x9c
599 693 m 1
 599 0 l 1
 390 0 l 1
 190 537 l 1xac
 198 474 211 382 211 254 c 2
 211 0 l 1
 65 0 l 1
 65 693 l 1
 269 693 l 1
 474 155 l 1x5c
 465 211 452 302 452 413 c 2
 452 693 l 1
 599 693 l 1
EndSplineSet
Substitution2: "'c2sc' Capitals to Small Capitals lookup 26 subtable" ncaron.sc
Substitution2: "'aalt' Access All Alternates lookup 0 subtable" ncaron.sc
Position2: "'cpsp' Capital Spacing lookup 0 subtable" dx=5 dy=0 dh=10 dv=0
EndChar
StartChar: ncaron
Encoding: 328 328 540
Width: 577
GlyphClass: 2
Flags: MW
HStem: 0 21G<62 220 62 62 362 520 362 362> 432 116<294.5 419> 511 20G<62 200 200 200> 728 20G<104 104 483 483>
VStem: 62 158<0 363 0 531> 362 158<0 361 361 388 0 389>
AnchorPoint: "Anchor-14" 0 0 basechar 0
AnchorPoint: "Anchor-13" 0 0 basechar 0
AnchorPoint: "Anchor-12" 296 813 basechar 0
AnchorPoint: "Anchor-11" 0 0 basechar 0
AnchorPoint: "Anchor-10" 289 0 basechar 0
LayerCount: 2
Back
Fore
SplineSet
342 611 m 1xbc
 246 611 l 1
 104 748 l 1
 161 813 l 1
 294 722 l 1
 427 813 l 1
 483 748 l 1
 342 611 l 1xbc
373 548 m 0xdc
 465 548 520 489 520 388 c 2
 520 0 l 1
 362 0 l 1
 362 361 l 2
 362 417 343 432 312 432 c 0
 277 432 248 407 220 363 c 1xdc
 220 0 l 1
 62 0 l 1
 62 531 l 1
 200 531 l 1xbc
 211 468 l 1
 256 520 307 548 373 548 c 0xdc
EndSplineSet
Substitution2: "'smcp' Lowercase to Small Capitals lookup 27 subtable" ncaron.sc
Substitution2: "'aalt' Access All Alternates lookup 0 subtable" ncaron.sc
EndChar

StartChar: napostrophe
Encoding: 329 329 203
Width: 683
GlyphClass: 2
Flags: MW
HStem: 0 21G<136 294 136 136 436 594 436 436> 432 116<368.5 493> 511 20G<136 274 274 274> 738 20G<114 153.5>
VStem: 64 139<679 708.5> 136 158<0 363 0 531> 436 158<0 361 361 388 0 389>
AnchorPoint: "Anchor-11" 363 0 basechar 0
AnchorPoint: "Anchor-10" 0 0 basechar 0
AnchorPoint: "Anchor-9" 368 531 basechar 0
AnchorPoint: "Anchor-8" 0 0 basechar 0
LayerCount: 2
Fore
SplineSet
69 533 m 1xb6
 93 633 l 1
 76 647 64 665 64 690 c 0
 64 727 94 758 134 758 c 0
 173 758 203 729 203 690 c 0
 203 668 196 650 179 615 c 2
 138 533 l 1xba
 69 533 l 1xb6
447 548 m 0xd6
 539 548 594 489 594 388 c 2
 594 0 l 1
 436 0 l 1
 436 361 l 2
 436 417 417 432 386 432 c 0
 351 432 322 407 294 363 c 1xd6
 294 0 l 1
 136 0 l 1
 136 531 l 1
 274 531 l 1xb6
 285 468 l 1
 330 521 381 548 447 548 c 0xd6
EndSplineSet
Substitution2: "'smcp' Lowercase to Small Capitals lookup 24 subtable" napostrophe.sc
Substitution2: "'aalt' Access All Alternates lookup 0 subtable" napostrophe.sc
EndChar

StartChar: Eng
Encoding: 330 330 69
Width: 663
GlyphClass: 2
Flags: MW
HStem: -221 21G<385 385> 0 21G<65 211 65 65 389 450 389 389> 510 20G<187 191 187 187> 673 20G<65 270 270 270 452 599 599 599>
VStem: 65 146<0 254 0 693> 452 147<413 693>
AnchorPoint: "Anchor-11" 203 0 basechar 0
AnchorPoint: "Anchor-10" 0 0 basechar 0
AnchorPoint: "Anchor-9" 203 433 basechar 0
AnchorPoint: "Anchor-8" 0 0 basechar 0
LayerCount: 2
Fore
SplineSet
599 693 m 1
 599 60 l 2
 599 -113 509 -176 385 -221 c 1
 337 -116 l 1
 403 -87 439 -64 450 0 c 1
 389 0 l 1
 191 530 l 1
 187 530 l 1
 197 473 211 382 211 254 c 2
 211 0 l 1
 65 0 l 1
 65 693 l 1
 270 693 l 1
 472 162 l 1
 476 162 l 1
 465 211 452 302 452 413 c 2
 452 693 l 1
 599 693 l 1
EndSplineSet
Substitution2: "'c2sc' Capitals to Small Capitals lookup 23 subtable" eng.sc
Substitution2: "'aalt' Access All Alternates lookup 0 subtable" eng.sc
Position2: "'cpsp' Capital Spacing lookup 0 subtable" dx=5 dy=0 dh=10 dv=0
EndChar
StartChar: eng
Encoding: 331 331 547
Width: 577
GlyphClass: 2
Flags: MW
HStem: -222 115<290.5 323 290.5 381.5> 0 21G<62 220 62 62> 432 116<294.5 419> 511 20G<62 200 200 200>
VStem: 62 158<0 363 0 531> 362 158<-46 -31 -31 361 361 388>
AnchorPoint: "Anchor-14" 0 0 basechar 0
AnchorPoint: "Anchor-13" 0 0 basechar 0
AnchorPoint: "Anchor-12" 294 531 basechar 0
AnchorPoint: "Anchor-11" 0 0 basechar 0
AnchorPoint: "Anchor-10" 291 -210 basechar 0
LayerCount: 2
Back
Fore
SplineSet
520 388 m 2xdc
 520 -31 l 2
 520 -158 441 -222 322 -222 c 0
 258 -222 214 -203 182 -179 c 1
 235 -86 l 1
 259 -98 276 -107 305 -107 c 0
 341 -107 362 -87 362 -46 c 2
 362 361 l 2
 362 417 343 432 312 432 c 0
 277 432 248 407 220 363 c 1xec
 220 0 l 1
 62 0 l 1
 62 531 l 1
 200 531 l 1xdc
 211 468 l 1
 256 520 307 548 373 548 c 0xec
 465 548 520 489 520 388 c 2xdc
EndSplineSet
Substitution2: "'smcp' Lowercase to Small Capitals lookup 27 subtable" eng.sc
Substitution2: "'aalt' Access All Alternates lookup 0 subtable" eng.sc
EndChar
StartChar: Omacron
Encoding: 332 332 206
Width: 691
GlyphClass: 2
Flags: MW
HStem: -17 120<300 392 300 443> 590 120<299 391.5> 781 110<192 497 192 497>
VStem: 33 172<259 434.5 259 460> 192 305<781 891 781 891> 486 172<259 434.5>
AnchorPoint: "Anchor-14" 0 0 basechar 0
AnchorPoint: "Anchor-13" 574 693 basechar 0
AnchorPoint: "Anchor-12" 347 891 basechar 0
AnchorPoint: "Anchor-11" 468 0 basechar 0
AnchorPoint: "Anchor-10" 345 0 basechar 0
LayerCount: 2
Back
Fore
SplineSet
497 781 m 1xe8
 192 781 l 1
 192 891 l 1
 497 891 l 1
 497 781 l 1xe8
345 710 m 0xf4
 541 710 658 578 658 347 c 0
 658 120 541 -17 345 -17 c 0
 150 -17 33 116 33 347 c 0
 33 573 150 710 345 710 c 0xf4
345 590 m 0
 253 590 205 522 205 347 c 0
 205 171 255 103 345 103 c 0
 439 103 486 171 486 347 c 0
 486 522 438 590 345 590 c 0
EndSplineSet
Substitution2: "'c2sc' Capitals to Small Capitals lookup 26 subtable" omacron.sc
Substitution2: "'aalt' Access All Alternates lookup 0 subtable" omacron.sc
Position2: "'cpsp' Capital Spacing lookup 0 subtable" dx=5 dy=0 dh=10 dv=0
EndChar
StartChar: omacron
Encoding: 333 333 582
Width: 584
GlyphClass: 2
Flags: MW
HStem: -17 116<260 324 260 373> 432 116<260 324> 655 110<139 444 139 444>
VStem: 32 164<207 323.5 207 351> 139 305<655 765 655 765> 388 164<207.5 324>
AnchorPoint: "Anchor-14" 0 0 basechar 0
AnchorPoint: "Anchor-13" 497 531 basechar 0
AnchorPoint: "Anchor-12" 293 745 basechar 0
AnchorPoint: "Anchor-11" 402 0 basechar 0
AnchorPoint: "Anchor-10" 292 0 basechar 0
LayerCount: 2
Back
Fore
SplineSet
444 655 m 1xe8
 139 655 l 1
 139 765 l 1
 444 765 l 1
 444 655 l 1xe8
292 548 m 0xf4
 454 548 552 444 552 265 c 0
 552 95 454 -17 292 -17 c 0
 131 -17 32 87 32 266 c 0
 32 436 130 548 292 548 c 0xf4
292 432 m 0
 228 432 196 381 196 266 c 0
 196 148 228 99 292 99 c 0
 356 99 388 150 388 265 c 0
 388 383 356 432 292 432 c 0
EndSplineSet
Substitution2: "'smcp' Lowercase to Small Capitals lookup 27 subtable" omacron.sc
Substitution2: "'aalt' Access All Alternates lookup 0 subtable" omacron.sc
EndChar
StartChar: Obreve
Encoding: 334 334 180
Width: 691
GlyphClass: 2
Flags: MW
HStem: -17 120<300 392 300 443> 590 120<299 391.5> 751 109<322 368 322 397.5>
VStem: 33 172<259 434.5 259 460> 486 172<259 434.5>
AnchorPoint: "Anchor-14" 0 0 basechar 0
AnchorPoint: "Anchor-13" 574 693 basechar 0
AnchorPoint: "Anchor-12" 348 928 basechar 0
AnchorPoint: "Anchor-11" 468 0 basechar 0
AnchorPoint: "Anchor-10" 345 0 basechar 0
LayerCount: 2
Back
Fore
SplineSet
345 751 m 0
 240 751 181 828 173 913 c 1
 260 928 l 1
 272 890 299 860 345 860 c 0
 391 860 418 890 431 928 c 1
 518 913 l 1
 510 828 450 751 345 751 c 0
345 710 m 0
 541 710 658 578 658 347 c 0
 658 120 541 -17 345 -17 c 0
 150 -17 33 116 33 347 c 0
 33 573 150 710 345 710 c 0
345 590 m 0
 253 590 205 522 205 347 c 0
 205 171 255 103 345 103 c 0
 439 103 486 171 486 347 c 0
 486 522 438 590 345 590 c 0
EndSplineSet
Substitution2: "'c2sc' Capitals to Small Capitals lookup 26 subtable" obreve.sc
Substitution2: "'aalt' Access All Alternates lookup 0 subtable" obreve.sc
Position2: "'cpsp' Capital Spacing lookup 0 subtable" dx=5 dy=0 dh=10 dv=0
EndChar

StartChar: OE
Encoding: 338 338 82
Width: 909
GlyphClass: 2
Flags: MW
HStem: -17 120<295 346> 0 103<295 869 295 424> 0 118<568 869 568 869> 295 115<635 635 635 821> 576 117<572 852 572 572> 590 103<294 869> 590 120<294 347 239.5 376.5>
VStem: 33 172<259 434.5 259 460> 466 168<410 410 410 434.5>
LayerCount: 2
Fore
SplineSet
635 295 m 1x3980
 627 228 605 166 568 118 c 1
 869 118 l 1
 869 0 l 1
 424 0 l 1x3980
 396 -11 363 -17 329 -17 c 0
 150 -17 33 116 33 347 c 0
 33 573 150 710 329 710 c 0x9380
 365 710 399 704 429 693 c 1
 869 693 l 1
 852 576 l 1
 572 576 l 1
 605 530 626 473 634 410 c 1
 821 410 l 1
 821 295 l 1
 635 295 l 1x3980
335 103 m 0x5580
 419 103 466 171 466 347 c 0
 466 522 418 590 335 590 c 0
 253 590 205 522 205 347 c 0
 205 171 255 103 335 103 c 0x5580
EndSplineSet
Substitution2: "'c2sc' Capitals to Small Capitals lookup 23 subtable" oe.sc
Substitution2: "'aalt' Access All Alternates lookup 0 subtable" oe.sc
Position2: "'cpsp' Capital Spacing lookup 0 subtable" dx=5 dy=0 dh=10 dv=0
EndChar
StartChar: Racute
Encoding: 340 340 226
Width: 617
GlyphClass: 2
Flags: MW
HStem: 0 21G<65 229 65 65 435 620 435 435> 265 113<229 293 229 298> 578 115<229 229 229 288>
VStem: 65 164<0 265 0 378 378 578> 408 169<445.5 515.5>
AnchorPoint: "Anchor-14" 0 0 basechar 0
AnchorPoint: "Anchor-13" 0 0 basechar 0
AnchorPoint: "Anchor-12" 309 956 basechar 0
AnchorPoint: "Anchor-11" 0 0 basechar 0
AnchorPoint: "Anchor-10" 311 0 basechar 0
LayerCount: 2
Back
Fore
SplineSet
447 838 m 1
 207 751 l 1
 167 831 l 1
 386 956 l 1
 447 838 l 1
435 0 m 1
 293 265 l 1
 229 265 l 1
 229 0 l 1
 65 0 l 1
 65 693 l 1
 292 693 l 2
 480 693 577 626 577 482 c 0
 577 391 534 337 444 295 c 1
 620 0 l 1
 435 0 l 1
229 578 m 1
 229 378 l 1
 298 378 l 2
 370 378 408 409 408 482 c 0
 408 549 369 578 288 578 c 2
 229 578 l 1
EndSplineSet
Substitution2: "'c2sc' Capitals to Small Capitals lookup 26 subtable" racute.sc
Substitution2: "'aalt' Access All Alternates lookup 0 subtable" racute.sc
Position2: "'cpsp' Capital Spacing lookup 0 subtable" dx=5 dy=0 dh=10 dv=0
EndChar

StartChar: racute
Encoding: 341 341 224
Width: 401
GlyphClass: 2
Flags: MW
HStem: 0 21G<62 220 62 62> 393 153<319.5 339> 511 20G<62 200 200 200> 526 20G<319.5 360> 539 7
VStem: 62 158<0 263 0 531>
AnchorPoint: "Anchor-11" 141 0 basechar 0
AnchorPoint: "Anchor-10" 0 0 basechar 0
AnchorPoint: "Anchor-9" 234 531 basechar 0
AnchorPoint: "Anchor-8" 0 0 basechar 0
LayerCount: 2
Fore
SplineSet
128 622 m 1x94
 84 703 l 1
 302 835 l 1
 364 717 l 1
 128 622 l 1x94
350 546 m 0
 370 546 386 544 403 539 c 1x8c
 378 386 l 1
 361 390 348 393 330 393 c 0xc4
 264 393 237 344 220 263 c 1
 220 0 l 1
 62 0 l 1
 62 531 l 1
 200 531 l 1xa4
 213 428 l 1
 237 502 289 546 350 546 c 0
EndSplineSet
Substitution2: "'smcp' Lowercase to Small Capitals lookup 24 subtable" racute.sc
Substitution2: "'aalt' Access All Alternates lookup 0 subtable" racute.sc
EndChar

StartChar: Rcommaaccent
Encoding: 342 342 89
Width: 617
GlyphClass: 2
Flags: MW
HStem: -210 21G<266 266> 0 21G<65 229 65 65 435 620 435 435> 265 113<229 293 229 298> 578 115<229 288 229 229>
VStem: 65 164<0 265 378 578> 233 158<-158 -124> 408 169<445.5 515.5>
AnchorPoint: "Anchor-11" 311 0 basechar 0
AnchorPoint: "Anchor-10" 0 0 basechar 0
AnchorPoint: "Anchor-9" 307 693 basechar 0
AnchorPoint: "Anchor-8" 0 0 basechar 0
LayerCount: 2
Fore
SplineSet
620 0 m 1
 435 0 l 1
 293 265 l 1
 229 265 l 1
 229 0 l 1
 65 0 l 1
 65 693 l 1
 292 693 l 2
 480 693 577 626 577 482 c 0
 577 391 534 336 444 295 c 1
 620 0 l 1
229 378 m 1
 298 378 l 2
 370 378 408 409 408 482 c 0
 408 549 369 578 288 578 c 2
 229 578 l 1
 229 378 l 1
312 -68 m 0xf6
 357 -68 391 -101 391 -145 c 0
 391 -171 383 -191 364 -229 c 2
 318 -325 l 1
 239 -325 l 1
 266 -210 l 1
 247 -195 233 -174 233 -145 c 0
 233 -103 267 -68 312 -68 c 0xf6
EndSplineSet
Substitution2: "'c2sc' Capitals to Small Capitals lookup 23 subtable" rcommaaccent.sc
Substitution2: "'aalt' Access All Alternates lookup 0 subtable" rcommaaccent.sc
Position2: "'cpsp' Capital Spacing lookup 0 subtable" dx=5 dy=0 dh=10 dv=0
EndChar

StartChar: rcommaaccent
Encoding: 343 343 226
Width: 401
GlyphClass: 2
Flags: MW
HStem: -210 21G<96 96> 0 21G<62 220 62 62> 393 153<319.5 339> 511 20G<62 200 200 200> 526 20G<319.5 360> 539 7
VStem: 62 158<0 263 0 531>
AnchorPoint: "Anchor-11" 141 0 basechar 0
AnchorPoint: "Anchor-10" 0 0 basechar 0
AnchorPoint: "Anchor-9" 234 531 basechar 0
AnchorPoint: "Anchor-8" 0 0 basechar 0
LayerCount: 2
Fore
SplineSet
350 546 m 0xca
 370 546 386 544 403 539 c 1xc6
 378 386 l 1
 361 390 348 393 330 393 c 0xe2
 264 393 237 344 220 263 c 1
 220 0 l 1
 62 0 l 1
 62 531 l 1
 200 531 l 1xd2
 213 428 l 1
 237 502 289 546 350 546 c 0xca
142 -68 m 0
 187 -68 221 -101 221 -145 c 0
 221 -171 213 -191 194 -229 c 2
 148 -325 l 1
 69 -325 l 1
 96 -210 l 1
 77 -195 63 -174 63 -145 c 0
 63 -103 97 -68 142 -68 c 0
EndSplineSet
Substitution2: "'smcp' Lowercase to Small Capitals lookup 24 subtable" rcommaaccent.sc
Substitution2: "'aalt' Access All Alternates lookup 0 subtable" rcommaaccent.sc
EndChar

StartChar: Rcaron
Encoding: 344 344 88
Width: 617
GlyphClass: 2
Flags: MW
HStem: 0 21G<65 229 65 65 435 435 435 620> 265 113<229 293 229 298> 578 115<229 288 229 229>
VStem: 65 164<0 265 378 578> 408 169<445.5 515.5>
AnchorPoint: "Anchor-11" 311 0 basechar 0
AnchorPoint: "Anchor-10" 0 0 basechar 0
AnchorPoint: "Anchor-9" 307 693 basechar 0
AnchorPoint: "Anchor-8" 0 0 basechar 0
LayerCount: 2
Fore
SplineSet
259 750 m 1
 117 879 l 1
 174 944 l 1
 307 860 l 1
 440 944 l 1
 496 879 l 1
 355 750 l 1
 259 750 l 1
293 265 m 1
 229 265 l 1
 229 0 l 1
 65 0 l 1
 65 693 l 1
 292 693 l 2
 480 693 577 626 577 482 c 0
 577 391 534 336 444 295 c 1
 620 0 l 1
 435 0 l 1
 293 265 l 1
229 378 m 1
 298 378 l 2
 370 378 408 409 408 482 c 0
 408 549 369 578 288 578 c 2
 229 578 l 1
 229 378 l 1
EndSplineSet
Substitution2: "'c2sc' Capitals to Small Capitals lookup 23 subtable" rcaron.sc
Substitution2: "'aalt' Access All Alternates lookup 0 subtable" rcaron.sc
Position2: "'cpsp' Capital Spacing lookup 0 subtable" dx=5 dy=0 dh=10 dv=0
EndChar
StartChar: rcaron
Encoding: 345 345 610
Width: 401
GlyphClass: 2
Flags: MW
HStem: 0 21G<62 220 62 62> 393 153<319.5 339> 511 20G<62 200 200 200> 526 20G<319.5 360> 539 7 728 20G<44 44 423 423>
VStem: 62 158<0 265 0 531>
AnchorPoint: "Anchor-14" 0 0 basechar 0
AnchorPoint: "Anchor-13" 0 0 basechar 0
AnchorPoint: "Anchor-12" 236 813 basechar 0
AnchorPoint: "Anchor-11" 0 0 basechar 0
AnchorPoint: "Anchor-10" 141 0 basechar 0
LayerCount: 2
Back
Fore
SplineSet
282 611 m 1x96
 186 611 l 1
 44 748 l 1
 101 813 l 1
 234 722 l 1
 367 813 l 1
 423 748 l 1
 282 611 l 1x96
213 429 m 1
 237 502 289 546 350 546 c 0
 370 546 386 544 403 539 c 1x8e
 378 386 l 1
 361 390 348 393 330 393 c 0xc6
 265 393 237 345 220 265 c 1
 220 0 l 1
 62 0 l 1
 62 531 l 1
 200 531 l 1xa6
 213 429 l 1
EndSplineSet
Substitution2: "'smcp' Lowercase to Small Capitals lookup 27 subtable" rcaron.sc
Substitution2: "'aalt' Access All Alternates lookup 0 subtable" rcaron.sc
EndChar
StartChar: sacute
Encoding: 347 347 624
Width: 483
GlyphClass: 2
Flags: MW
HStem: -17 113<198 248 198 294> 435 113<233.5 278>
VStem: 32 159<381 407 381 431.5> 301 163<130 164>
AnchorPoint: "Anchor-14" 0 0 basechar 0
AnchorPoint: "Anchor-13" 0 0 basechar 0
AnchorPoint: "Anchor-12" 250 835 basechar 0
AnchorPoint: "Anchor-11" 0 0 basechar 0
AnchorPoint: "Anchor-10" 242 0 basechar 0
LayerCount: 2
Back
Fore
SplineSet
321 835 m 1
 383 717 l 1
 147 622 l 1
 103 703 l 1
 321 835 l 1
249 548 m 0
 326 548 395 523 444 483 c 1
 386 394 l 1
 345 420 301 435 255 435 c 0
 212 435 191 419 191 395 c 0
 191 367 205 355 300 327 c 0
 405 297 464 253 464 158 c 0
 464 48 360 -17 228 -17 c 0
 136 -17 58 15 6 62 c 1
 83 148 l 1
 123 117 172 96 224 96 c 0
 272 96 301 114 301 146 c 0
 301 182 285 193 189 220 c 0
 84 250 32 304 32 386 c 0
 32 477 115 548 249 548 c 0
EndSplineSet
Substitution2: "'smcp' Lowercase to Small Capitals lookup 27 subtable" sacute.sc
Substitution2: "'locl' Localized Forms in Latin lookup 7 subtable" sacute.loclPLK
AlternateSubs2: "'aalt' Access All Alternates lookup 1 subtable" sacute.loclPLK sacute.sc
EndChar

StartChar: Scedilla
Encoding: 350 350 93
Width: 572
GlyphClass: 2
Flags: MW
HStem: -262 86<256.5 282 255.5 325.5> -16 121<234 234> -14 21G<325 325> 590 120<271.5 328>
VStem: 38 169<500 544 500 571> 228.5 96.5 315 114<-157 -134> 377 170<163.5 215.5>
AnchorPoint: "Anchor-11" 283 0 basechar 0
AnchorPoint: "Anchor-10" 0 0 basechar 0
AnchorPoint: "Anchor-9" 295 693 basechar 0
AnchorPoint: "Anchor-8" 0 0 basechar 0
LayerCount: 2
Fore
SplineSet
547 202 m 0xb9
 547 87 466 3 325 -14 c 1
 325 -48 l 1xbd
 397 -56 429 -93 429 -147 c 0
 429 -215 371 -262 280 -262 c 0
 233 -262 193 -249 168 -232 c 1
 204 -159 l 1
 224 -169 243 -176 268 -176 c 0
 296 -176 315 -168 315 -146 c 0xba
 315 -122 287 -112 223 -112 c 1
 234 -16 l 1
 134 -7 60 33 9 82 c 1
 93 174 l 1
 142 130 198 105 267 105 c 0
 335 105 377 137 377 190 c 0xdd
 377 241 351 264 250 295 c 0
 95 343 38 407 38 510 c 0
 38 632 144 710 288 710 c 0
 394 710 467 679 528 621 c 1
 451 532 l 1
 404 571 356 590 300 590 c 0
 243 590 207 566 207 522 c 0
 207 478 233 460 341 426 c 0
 472 384 547 330 547 202 c 0xb9
EndSplineSet
Substitution2: "'c2sc' Capitals to Small Capitals lookup 23 subtable" scedilla.sc
Substitution2: "'locl' Localized Forms in Latin lookup 5 subtable" Scommaaccent
Substitution2: "'locl' Localized Forms in Latin lookup 4 subtable" Scommaaccent
AlternateSubs2: "'aalt' Access All Alternates lookup 1 subtable" Scommaaccent scedilla.sc
Position2: "'cpsp' Capital Spacing lookup 0 subtable" dx=5 dy=0 dh=10 dv=0
EndChar
StartChar: scedilla
Encoding: 351 351 628
Width: 483
GlyphClass: 2
Flags: MW
HStem: -262 86<216.5 242 215.5 285.5> -16 21G<194 194> -16 112<194 248> -13 21G<285 285> 435 113<233.5 278>
VStem: 32 159<381 407 381 431.5> 188.5 96.5 275 114<-157 -134> 301 163<130 164>
AnchorPoint: "Anchor-14" 0 0 basechar 0
AnchorPoint: "Anchor-13" 0 0 basechar 0
AnchorPoint: "Anchor-12" 249 531 basechar 0
AnchorPoint: "Anchor-11" 0 0 basechar 0
AnchorPoint: "Anchor-10" 261 -262 basechar 0
LayerCount: 2
Back
Fore
SplineSet
464 158 m 0x9c80
 464 64 389 3 285 -13 c 1
 285 -48 l 1x9a80
 357 -56 389 -93 389 -147 c 0
 389 -215 331 -262 240 -262 c 0
 193 -262 153 -249 128 -232 c 1
 164 -159 l 1
 184 -169 203 -176 228 -176 c 0
 256 -176 275 -168 275 -146 c 0x9d
 275 -122 247 -112 183 -112 c 1
 194 -16 l 1xca80
 117 -9 52 20 6 62 c 1
 83 148 l 1
 123 117 172 96 224 96 c 0
 272 96 301 114 301 146 c 0xac80
 301 182 285 193 189 220 c 0
 84 250 32 304 32 386 c 0
 32 477 115 548 249 548 c 0
 326 548 395 523 444 483 c 1
 386 394 l 1
 345 420 301 435 255 435 c 0
 212 435 191 419 191 395 c 0
 191 367 205 355 300 327 c 0
 405 297 464 253 464 158 c 0x9c80
EndSplineSet
Substitution2: "'smcp' Lowercase to Small Capitals lookup 27 subtable" scedilla.sc
Substitution2: "'locl' Localized Forms in Latin lookup 5 subtable" scommaaccent
Substitution2: "'locl' Localized Forms in Latin lookup 4 subtable" scommaaccent
AlternateSubs2: "'aalt' Access All Alternates lookup 1 subtable" scommaaccent scedilla.sc
EndChar

StartChar: Tcedilla
Encoding: 354 354 99
Width: 540
GlyphClass: 2
Flags: MW
HStem: -262 86<284 308 281.5 352.5> 0 21G<188 264 188 188> 567 126<9 188 9 539 352 352 352 523>
VStem: 188 164<0 567> 343 114<-156.5 -133.5>
AnchorPoint: "Anchor-11" 270 0 basechar 0
AnchorPoint: "Anchor-10" 0 0 basechar 0
AnchorPoint: "Anchor-9" 270 693 basechar 0
AnchorPoint: "Anchor-8" 0 0 basechar 0
LayerCount: 2
Fore
SplineSet
352 -48 m 1xf0
 423 -56 457 -93 457 -147 c 0
 457 -215 398 -262 307 -262 c 0
 261 -262 220 -248 196 -232 c 1
 232 -159 l 1
 252 -169 270 -176 293 -176 c 0
 323 -176 343 -168 343 -145 c 0
 343 -122 315 -112 251 -112 c 1
 264 0 l 1xe8
 188 0 l 1
 188 567 l 1
 9 567 l 1
 9 693 l 1
 539 693 l 1
 523 567 l 1
 352 567 l 1
 352 -48 l 1xf0
EndSplineSet
Substitution2: "'c2sc' Capitals to Small Capitals lookup 23 subtable" tcedilla.sc
Substitution2: "'locl' Localized Forms in Latin lookup 5 subtable" uni021A
Substitution2: "'locl' Localized Forms in Latin lookup 4 subtable" uni021A
AlternateSubs2: "'aalt' Access All Alternates lookup 1 subtable" uni021A tcedilla.sc
Position2: "'cpsp' Capital Spacing lookup 0 subtable" dx=5 dy=0 dh=10 dv=0
EndChar
StartChar: uni0162
Encoding: 354 354 250
Width: 540
GlyphClass: 2
Flags: MW
HStem: -262 86<284 308 281.5 352.5> 0 21G<188 264 188 188> 567 126<9 188 9 539 352 352 352 523>
VStem: 188 164<0 567> 343 114<-156.5 -133.5>
AnchorPoint: "Anchor-14" 270 347 basechar 0
AnchorPoint: "Anchor-13" 0 0 basechar 0
AnchorPoint: "Anchor-12" 270 693 basechar 0
AnchorPoint: "Anchor-11" 0 0 basechar 0
AnchorPoint: "Anchor-10" 270 0 basechar 0
LayerCount: 2
Back
Fore
SplineSet
352 -48 m 1xf0
 423 -56 457 -93 457 -147 c 0
 457 -215 398 -262 307 -262 c 0
 261 -262 220 -248 196 -232 c 1
 232 -159 l 1
 252 -169 270 -176 293 -176 c 0
 323 -176 343 -168 343 -145 c 0
 343 -122 315 -112 251 -112 c 1
 264 0 l 1xe8
 188 0 l 1
 188 567 l 1
 9 567 l 1
 9 693 l 1
 539 693 l 1
 523 567 l 1
 352 567 l 1
 352 -48 l 1xf0
EndSplineSet
Substitution2: "'c2sc' Capitals to Small Capitals lookup 26 subtable" uni0163.sc
Substitution2: "'locl' Localized Forms in Latin lookup 5 subtable" uni021A
Substitution2: "'locl' Localized Forms in Latin lookup 4 subtable" uni021A
AlternateSubs2: "'aalt' Access All Alternates lookup 1 subtable" uni021A uni0163.sc
Position2: "'cpsp' Capital Spacing lookup 0 subtable" dx=5 dy=0 dh=10 dv=0
EndChar
StartChar: tcaron
Encoding: 357 357 640
Width: 386
GlyphClass: 2
Flags: MW
HStem: -17 21G<251 275> -17 125<268.5 275> 421 110<2 77 2 77 235 340> 557 20G<257 257>
VStem: 77 158<175 177 177 421 531 646 646 646>
AnchorPoint: "Anchor-14" 191 266 basechar 0
AnchorPoint: "Anchor-13" 229 780 basechar 0
AnchorPoint: "Anchor-12" 156 646 basechar 0
AnchorPoint: "Anchor-11" 0 0 basechar 0
AnchorPoint: "Anchor-10" 234 0 basechar 0
LayerCount: 2
Back
Fore
SplineSet
400 779 m 1xb8
 345 564 l 1
 257 577 l 1
 280 796 l 1
 400 779 l 1xb8
285 108 m 0x78
 303 108 321 113 342 126 c 1
 395 25 l 1
 355 -3 299 -17 251 -17 c 0
 134 -16 77 50 77 175 c 2
 77 421 l 1
 2 421 l 1
 2 531 l 1
 77 531 l 1
 77 646 l 1
 235 664 l 1
 235 531 l 1
 357 531 l 1
 340 421 l 1
 235 421 l 1
 235 177 l 2
 235 126 252 108 285 108 c 0x78
EndSplineSet
Substitution2: "'smcp' Lowercase to Small Capitals lookup 27 subtable" tcaron.sc
Substitution2: "'aalt' Access All Alternates lookup 0 subtable" tcaron.sc
EndChar

StartChar: Tbar
Encoding: 358 358 97
Width: 541
GlyphClass: 2
Flags: MW
HStem: -1 21G<188 352 188 188> 297 92<73 188 73 188 352 467> 566 127<9 188 9 539 352 523 352 352>
VStem: 188 164<-1 297 -1 297 389 566>
AnchorPoint: "Anchor-11" 270 -1 basechar 0
AnchorPoint: "Anchor-10" 0 0 basechar 0
AnchorPoint: "Anchor-9" 270 693 basechar 0
AnchorPoint: "Anchor-8" 0 0 basechar 0
LayerCount: 2
Fore
SplineSet
352 566 m 1
 352 389 l 1
 467 389 l 1
 467 297 l 1
 352 297 l 1
 352 -1 l 1
 188 -1 l 1
 188 297 l 1
 73 297 l 1
 73 389 l 1
 188 389 l 1
 188 566 l 1
 9 566 l 1
 9 693 l 1
 539 693 l 1
 523 566 l 1
 352 566 l 1
EndSplineSet
Substitution2: "'c2sc' Capitals to Small Capitals lookup 23 subtable" tbar.sc
Substitution2: "'aalt' Access All Alternates lookup 0 subtable" tbar.sc
Position2: "'cpsp' Capital Spacing lookup 0 subtable" dx=5 dy=0 dh=10 dv=0
EndChar

StartChar: Utilde
Encoding: 360 360 111
Width: 651
GlyphClass: 2
Flags: MW
HStem: -17 122<288 362.5 288 415.5> 673 20G<55 219 219 219 432 596 596 596> 761 112<365.5 393 365.5 414> 806 112<257 285.5>
VStem: 55 164<230 237 237 693> 432 164<237 693>
AnchorPoint: "Anchor-11" 0 0 basechar 0
AnchorPoint: "Anchor-10" 0 0 basechar 0
AnchorPoint: "Anchor-9" 325 693 basechar 0
AnchorPoint: "Anchor-8" 448 0 basechar 0
LayerCount: 2
Fore
SplineSet
386 761 m 0xec
 322 761 302 806 269 806 c 0
 245 806 232 790 216 762 c 1
 137 800 l 1
 162 864 206 918 266 918 c 0xdc
 328 918 349 873 382 873 c 0
 404 873 418 888 434 917 c 1
 513 878 l 1
 487 811 442 761 386 761 c 0xec
596 230 m 2xdc
 596 90 506 -17 325 -17 c 0
 144 -17 55 84 55 230 c 2
 55 693 l 1
 219 693 l 1
 219 237 l 2
 219 148 251 105 325 105 c 0
 400 105 432 148 432 237 c 2
 432 693 l 1
 596 693 l 1
 596 230 l 2xdc
EndSplineSet
Substitution2: "'c2sc' Capitals to Small Capitals lookup 23 subtable" utilde.sc
Substitution2: "'aalt' Access All Alternates lookup 0 subtable" utilde.sc
Position2: "'cpsp' Capital Spacing lookup 0 subtable" dx=5 dy=0 dh=10 dv=0
EndChar

StartChar: utilde
Encoding: 361 361 249
Width: 572
GlyphClass: 2
Flags: MW
HStem: -17 117<155.5 282.5> 0 21G<373 510 373 373> 511 20G<57 215 215 215 352 510 510 510> 635 112<324.5 352 324.5 373> 680 112<216 244.5> 732 20G<472 472>
VStem: 57 158<150 170 170 531> 352 158<162 531>
AnchorPoint: "Anchor-11" 0 0 basechar 0
AnchorPoint: "Anchor-10" 0 0 basechar 0
AnchorPoint: "Anchor-9" 284 531 basechar 0
AnchorPoint: "Anchor-8" 520 0 basechar 0
LayerCount: 2
Fore
SplineSet
345 635 m 0x73
 281 635 261 680 228 680 c 0
 204 680 191 664 175 636 c 1
 96 674 l 1x6b
 121 738 165 792 225 792 c 0
 287 792 308 747 341 747 c 0
 363 747 377 762 393 791 c 1x73
 472 752 l 1x67
 446 685 401 635 345 635 c 0x73
510 0 m 1x67
 373 0 l 1x67
 366 67 l 1
 327 11 275 -17 205 -17 c 0
 106 -17 57 47 57 150 c 2
 57 531 l 1
 215 531 l 1
 215 170 l 2
 215 116 233 100 266 100 c 0
 299 100 329 122 352 162 c 1xa7
 352 531 l 1
 510 531 l 1
 510 0 l 1x67
EndSplineSet
Substitution2: "'smcp' Lowercase to Small Capitals lookup 24 subtable" utilde.sc
Substitution2: "'aalt' Access All Alternates lookup 0 subtable" utilde.sc
EndChar
StartChar: Umacron
Encoding: 362 362 285
Width: 651
GlyphClass: 2
Flags: MW
HStem: -17 122<288 362.5 288 415.5> 673 20G<55 219 219 219 432 596 596 596> 781 110<172 477 172 477>
VStem: 55 164<230 237 237 693> 432 164<237 693>
AnchorPoint: "Anchor-14" 0 0 basechar 0
AnchorPoint: "Anchor-13" 606 693 basechar 0
AnchorPoint: "Anchor-12" 327 891 basechar 0
AnchorPoint: "Anchor-11" 448 0 basechar 0
AnchorPoint: "Anchor-10" 325 0 basechar 0
LayerCount: 2
Back
Fore
SplineSet
477 781 m 1
 172 781 l 1
 172 891 l 1
 477 891 l 1
 477 781 l 1
596 693 m 1
 596 230 l 2
 596 90 506 -17 325 -17 c 0
 144 -17 55 84 55 230 c 2
 55 693 l 1
 219 693 l 1
 219 237 l 2
 219 148 251 105 325 105 c 0
 400 105 432 148 432 237 c 2
 432 693 l 1
 596 693 l 1
EndSplineSet
Substitution2: "'c2sc' Capitals to Small Capitals lookup 26 subtable" umacron.sc
Substitution2: "'aalt' Access All Alternates lookup 0 subtable" umacron.sc
Position2: "'cpsp' Capital Spacing lookup 0 subtable" dx=5 dy=0 dh=10 dv=0
EndChar
StartChar: Ubreve
Encoding: 364 364 265
Width: 651
GlyphClass: 2
Flags: MW
HStem: -17 122<288 362.5 288 415.5> 673 20G<55 219 219 219 432 596 596 596> 751 109<302 348 302 377.5>
VStem: 55 164<230 237 237 693> 432 164<237 693>
AnchorPoint: "Anchor-14" 0 0 basechar 0
AnchorPoint: "Anchor-13" 606 693 basechar 0
AnchorPoint: "Anchor-12" 328 928 basechar 0
AnchorPoint: "Anchor-11" 448 0 basechar 0
AnchorPoint: "Anchor-10" 325 0 basechar 0
LayerCount: 2
Back
Fore
SplineSet
325 751 m 0
 220 751 161 828 153 913 c 1
 240 928 l 1
 252 890 279 860 325 860 c 0
 371 860 398 890 411 928 c 1
 498 913 l 1
 490 828 430 751 325 751 c 0
596 693 m 1
 596 230 l 2
 596 90 506 -17 325 -17 c 0
 144 -17 55 84 55 230 c 2
 55 693 l 1
 219 693 l 1
 219 237 l 2
 219 148 251 105 325 105 c 0
 400 105 432 148 432 237 c 2
 432 693 l 1
 596 693 l 1
EndSplineSet
Substitution2: "'c2sc' Capitals to Small Capitals lookup 26 subtable" ubreve.sc
Substitution2: "'aalt' Access All Alternates lookup 0 subtable" ubreve.sc
Position2: "'cpsp' Capital Spacing lookup 0 subtable" dx=5 dy=0 dh=10 dv=0
EndChar
StartChar: uring
Encoding: 367 367 687
Width: 572
GlyphClass: 2
Flags: MW
HStem: -17 117<155.5 282.5> 0 21G<373 510 373 373> 511 20G<57 215 215 215 352 510 510 510> 605 81<270.5 297 270.5 327> 786 81<270.5 297.5>
VStem: 57 158<150 170 170 531> 145 94<719.5 752.5 719.5 771.5> 329 94<719.5 752.5> 352 158<162 531 0 531>
AnchorPoint: "Anchor-14" 0 0 basechar 0
AnchorPoint: "Anchor-13" 520 531 basechar 0
AnchorPoint: "Anchor-12" 286 867 basechar 0
AnchorPoint: "Anchor-11" 520 0 basechar 0
AnchorPoint: "Anchor-10" 284 0 basechar 0
LayerCount: 2
Back
Fore
SplineSet
284 867 m 0x7b
 370 867 423 807 423 736 c 0
 423 665 370 605 284 605 c 0
 198 605 145 665 145 736 c 0
 145 807 198 867 284 867 c 0x7b
284 786 m 0
 257 786 239 769 239 736 c 0
 239 703 257 686 284 686 c 0
 310 686 329 703 329 736 c 0
 329 769 311 786 284 786 c 0
510 531 m 1xbc80
 510 0 l 1
 373 0 l 1x7c80
 366 67 l 1
 327 11 275 -17 205 -17 c 0
 106 -17 57 47 57 150 c 2
 57 531 l 1
 215 531 l 1
 215 170 l 2
 215 116 233 100 266 100 c 0
 299 100 329 122 352 162 c 1
 352 531 l 1
 510 531 l 1xbc80
EndSplineSet
Substitution2: "'smcp' Lowercase to Small Capitals lookup 27 subtable" uring.sc
Substitution2: "'aalt' Access All Alternates lookup 0 subtable" uring.sc
EndChar

StartChar: Uhungarumlaut
Encoding: 368 368 107
Width: 651
GlyphClass: 2
Flags: MW
HStem: -17 122<288 362.5 288 415.5> 673 20G<55 219 219 219 432 596 596 596>
VStem: 55 164<230 237 237 693> 432 164<237 693>
AnchorPoint: "Anchor-11" 0 0 basechar 0
AnchorPoint: "Anchor-10" 0 0 basechar 0
AnchorPoint: "Anchor-9" 325 693 basechar 0
AnchorPoint: "Anchor-8" 448 0 basechar 0
LayerCount: 2
Fore
SplineSet
388 936 m 1
 275 756 l 1
 192 789 l 1
 280 986 l 1
 388 936 l 1
562 933 m 1
 441 751 l 1
 359 789 l 1
 456 986 l 1
 562 933 l 1
596 230 m 2
 596 90 506 -17 325 -17 c 0
 144 -17 55 84 55 230 c 2
 55 693 l 1
 219 693 l 1
 219 237 l 2
 219 148 251 105 325 105 c 0
 400 105 432 148 432 237 c 2
 432 693 l 1
 596 693 l 1
 596 230 l 2
EndSplineSet
Substitution2: "'c2sc' Capitals to Small Capitals lookup 23 subtable" uhungarumlaut.sc
Substitution2: "'aalt' Access All Alternates lookup 0 subtable" uhungarumlaut.sc
Position2: "'cpsp' Capital Spacing lookup 0 subtable" dx=5 dy=0 dh=10 dv=0
EndChar

StartChar: Uogonek
Encoding: 370 370 109
Width: 651
GlyphClass: 2
Flags: MW
HStem: -246 98<355 366.5> -16 21G -16 121 673 20G<55 219 219 219 432 596 596 596>
VStem: 55 164<230 237 237 693> 206 114<-117 -103> 432 164<237 693>
AnchorPoint: "Anchor-11" 0 0 basechar 0
AnchorPoint: "Anchor-10" 0 0 basechar 0
AnchorPoint: "Anchor-9" 325 693 basechar 0
AnchorPoint: "Anchor-8" 448 0 basechar 0
LayerCount: 2
Fore
SplineSet
596 693 m 1xda
 596 230 l 2
 596 122 543 34 436 -1 c 1
 340 -37 320 -74 320 -102 c 0
 320 -132 337 -148 373 -148 c 0
 393 -148 411 -145 434 -140 c 1
 423 -238 l 1
 402 -243 380 -246 353 -246 c 0
 268 -246 206 -201 206 -129 c 0xd6
 206 -77 239 -40 290 -16 c 1
 132 -3 55 94 55 230 c 2
 55 693 l 1
 219 693 l 1
 219 237 l 2
 219 148 251 105 325 105 c 0xba
 400 105 432 148 432 237 c 2
 432 693 l 1
 596 693 l 1xda
EndSplineSet
Substitution2: "'c2sc' Capitals to Small Capitals lookup 23 subtable" uogonek.sc
Substitution2: "'aalt' Access All Alternates lookup 0 subtable" uogonek.sc
Position2: "'cpsp' Capital Spacing lookup 0 subtable" dx=5 dy=0 dh=10 dv=0
EndChar
StartChar: uogonek
Encoding: 371 371 685
Width: 572
GlyphClass: 2
Flags: MW
HStem: -246 98<427 438.5> -17 117<155.5 282.5> 0 21G<510 510> 511 20G<57 215 215 215 352 510 510 510>
VStem: 57 158<150 170 170 531> 278 114<-117 -99> 352 158<162 531 0 531>
AnchorPoint: "Anchor-14" 0 0 basechar 0
AnchorPoint: "Anchor-13" 520 531 basechar 0
AnchorPoint: "Anchor-12" 284 531 basechar 0
AnchorPoint: "Anchor-11" 520 0 basechar 0
AnchorPoint: "Anchor-10" 284 0 basechar 0
LayerCount: 2
Back
Fore
SplineSet
352 531 m 1xba
 510 531 l 1
 510 0 l 1xba
 412 -37 392 -74 392 -102 c 0
 392 -132 409 -148 445 -148 c 0
 465 -148 483 -145 506 -140 c 1
 495 -238 l 1
 474 -243 452 -246 425 -246 c 0
 340 -246 278 -201 278 -129 c 0xdc
 278 -69 313 -25 372 7 c 1
 366 67 l 1
 327 11 275 -17 205 -17 c 0
 106 -17 57 47 57 150 c 2
 57 531 l 1
 215 531 l 1
 215 170 l 2
 215 116 233 100 266 100 c 0
 299 100 329 122 352 162 c 1xda
 352 531 l 1xba
EndSplineSet
Substitution2: "'smcp' Lowercase to Small Capitals lookup 27 subtable" uogonek.sc
Substitution2: "'aalt' Access All Alternates lookup 0 subtable" uogonek.sc
EndChar
StartChar: Wcircumflex
Encoding: 372 372 296
Width: 847
GlyphClass: 2
Flags: MW
HStem: 0 124<242 242 242 331 123 242> 529 164<422 422> 673 20G<9 173 173 173 338 510 510 510 681 837 837 837>
VStem: 9 828<693 693>
AnchorPoint: "Anchor-14" 0 0 basechar 0
AnchorPoint: "Anchor-13" 532 830 basechar 0
AnchorPoint: "Anchor-12" 425 949 basechar 0
AnchorPoint: "Anchor-11" 0 0 basechar 0
AnchorPoint: "Anchor-10" 0 0 basechar 0
LayerCount: 2
Back
Fore
SplineSet
558 755 m 1xb0
 425 839 l 1
 292 755 l 1
 235 820 l 1
 377 949 l 1
 473 949 l 1
 614 820 l 1
 558 755 l 1xb0
837 693 m 1
 721 0 l 1
 508 0 l 1
 422 529 l 1xd0
 331 0 l 1
 123 0 l 1
 9 693 l 1
 173 693 l 1
 242 124 l 1
 338 693 l 1
 510 693 l 1
 600 124 l 1
 681 693 l 1
 837 693 l 1
EndSplineSet
Substitution2: "'c2sc' Capitals to Small Capitals lookup 26 subtable" wcircumflex.sc
Substitution2: "'aalt' Access All Alternates lookup 0 subtable" wcircumflex.sc
Position2: "'cpsp' Capital Spacing lookup 0 subtable" dx=5 dy=0 dh=10 dv=0
EndChar

StartChar: wcircumflex
Encoding: 373 373 253
Width: 749
GlyphClass: 2
Flags: MW
HStem: 0 118<219 219 219 304 117 219> 390 141<374 374> 511 20G<4 164 164 164 302 456 456 456 593 744 744 744>
VStem: 4 740<531 531>
AnchorPoint: "Anchor-11" 0 0 basechar 0
AnchorPoint: "Anchor-10" 0 0 basechar 0
AnchorPoint: "Anchor-9" 375 531 basechar 0
AnchorPoint: "Anchor-8" 0 0 basechar 0
LayerCount: 2
Fore
SplineSet
185 685 m 1xb0
 326 822 l 1
 423 822 l 1
 564 685 l 1
 508 620 l 1
 375 712 l 1
 241 620 l 1
 185 685 l 1xb0
634 0 m 1
 445 0 l 1
 374 390 l 1xd0
 304 0 l 1
 117 0 l 1
 4 531 l 1
 164 531 l 1
 219 118 l 1
 302 531 l 1
 456 531 l 1
 529 118 l 1
 593 531 l 1
 744 531 l 1
 634 0 l 1
EndSplineSet
Substitution2: "'smcp' Lowercase to Small Capitals lookup 24 subtable" wcircumflex.sc
Substitution2: "'aalt' Access All Alternates lookup 0 subtable" wcircumflex.sc
EndChar
StartChar: Ycircumflex
Encoding: 374 374 304
Width: 594
GlyphClass: 2
Flags: MW
HStem: 0 21G<215 379 215 215> 673 20G<-7 172 172 172 428 601 601 601>
VStem: 215 164<0 259 259 259>
AnchorPoint: "Anchor-14" 0 0 basechar 0
AnchorPoint: "Anchor-13" 404 830 basechar 0
AnchorPoint: "Anchor-12" 297 949 basechar 0
AnchorPoint: "Anchor-11" 0 0 basechar 0
AnchorPoint: "Anchor-10" 297 0 basechar 0
LayerCount: 2
Back
Fore
SplineSet
430 755 m 1
 297 839 l 1
 164 755 l 1
 107 820 l 1
 249 949 l 1
 345 949 l 1
 486 820 l 1
 430 755 l 1
601 693 m 1
 379 260 l 1
 379 0 l 1
 215 0 l 1
 215 259 l 1
 -7 693 l 1
 172 693 l 1
 300 388 l 1
 428 693 l 1
 601 693 l 1
EndSplineSet
Substitution2: "'c2sc' Capitals to Small Capitals lookup 26 subtable" ycircumflex.sc
Substitution2: "'aalt' Access All Alternates lookup 0 subtable" ycircumflex.sc
Position2: "'cpsp' Capital Spacing lookup 0 subtable" dx=5 dy=0 dh=10 dv=0
EndChar
StartChar: ycircumflex
Encoding: 375 375 705
Width: 518
GlyphClass: 2
Flags: MW
HStem: -222 21G<56 56> 0 21G<156 210 156 156> 511 20G<-6 162 162 162 361 524 524 524>
VStem: -6 530<531 531>
AnchorPoint: "Anchor-14" 0 0 basechar 0
AnchorPoint: "Anchor-13" 0 0 basechar 0
AnchorPoint: "Anchor-12" 261 822 basechar 0
AnchorPoint: "Anchor-11" 0 0 basechar 0
AnchorPoint: "Anchor-10" 257 -210 basechar 0
LayerCount: 2
Back
Fore
SplineSet
125 620 m 1
 69 685 l 1
 210 822 l 1
 307 822 l 1
 448 685 l 1
 392 620 l 1
 259 712 l 1
 125 620 l 1
524 531 m 1
 355 -1 l 2
 313 -135 223 -213 56 -222 c 1
 39 -111 l 1
 143 -98 181 -68 210 0 c 1
 156 0 l 1
 -6 531 l 1
 162 531 l 1
 257 101 l 1
 361 531 l 1
 524 531 l 1
EndSplineSet
Substitution2: "'smcp' Lowercase to Small Capitals lookup 27 subtable" ycircumflex.sc
Substitution2: "'aalt' Access All Alternates lookup 0 subtable" ycircumflex.sc
EndChar

StartChar: Ydieresis
Encoding: 376 376 122
Width: 594
GlyphClass: 2
Flags: MW
HStem: 0 21G<215 379 215 215> 673 20G<-7 172 172 172 428 601 601 601> 767 158<158.5 204 390.5 436>
VStem: 100 162<824 868> 215 164<0 259 259 259> 332 162<824 868>
AnchorPoint: "Anchor-11" 0 0 basechar 0
AnchorPoint: "Anchor-10" -4 693 basechar 0
AnchorPoint: "Anchor-9" 295 843 basechar 0
AnchorPoint: "Anchor-8" 0 0 basechar 0
LayerCount: 2
Fore
SplineSet
181 925 m 0xf4
 227 925 262 890 262 846 c 0
 262 802 227 767 181 767 c 0
 136 767 100 802 100 846 c 0
 100 890 136 925 181 925 c 0xf4
413 925 m 0
 459 925 494 890 494 846 c 0
 494 802 459 767 413 767 c 0
 368 767 332 802 332 846 c 0
 332 890 368 925 413 925 c 0
379 260 m 1xe8
 379 0 l 1
 215 0 l 1
 215 259 l 1
 -7 693 l 1
 172 693 l 1
 300 388 l 1
 428 693 l 1
 601 693 l 1
 379 260 l 1xe8
EndSplineSet
Substitution2: "'c2sc' Capitals to Small Capitals lookup 23 subtable" ydieresis.sc
Substitution2: "'aalt' Access All Alternates lookup 0 subtable" ydieresis.sc
Position2: "'cpsp' Capital Spacing lookup 0 subtable" dx=5 dy=0 dh=10 dv=0
EndChar
StartChar: zacute
Encoding: 378 378 717
Width: 459
GlyphClass: 2
Flags: MW
HStem: 0 120<196 427> 412 119<34 254 34 436>
VStem: 13 428<0 120 112 120>
AnchorPoint: "Anchor-14" 0 0 basechar 0
AnchorPoint: "Anchor-13" 0 0 basechar 0
AnchorPoint: "Anchor-12" 234 835 basechar 0
AnchorPoint: "Anchor-11" 0 0 basechar 0
AnchorPoint: "Anchor-10" 222 0 basechar 0
LayerCount: 2
Back
Fore
SplineSet
305 835 m 1
 367 717 l 1
 131 622 l 1
 87 703 l 1
 305 835 l 1
436 531 m 1
 436 420 l 1
 196 120 l 1
 441 120 l 1
 427 0 l 1
 13 0 l 1
 13 112 l 1
 254 412 l 1
 34 412 l 1
 34 531 l 1
 436 531 l 1
EndSplineSet
Substitution2: "'smcp' Lowercase to Small Capitals lookup 27 subtable" zacute.sc
Substitution2: "'locl' Localized Forms in Latin lookup 7 subtable" zacute.loclPLK
AlternateSubs2: "'aalt' Access All Alternates lookup 1 subtable" zacute.loclPLK zacute.sc
EndChar

StartChar: Zdotaccent
Encoding: 379 379 127
Width: 544
GlyphClass: 2
Flags: MW
HStem: 0 131<211 501> 566 127<49 325 49 512> 757 180<248.5 303.5>
VStem: 183 187<821.5 872.5>
AnchorPoint: "Anchor-11" 0 0 basechar 0
AnchorPoint: "Anchor-10" 0 0 basechar 0
AnchorPoint: "Anchor-9" 276 693 basechar 0
AnchorPoint: "Anchor-8" 0 0 basechar 0
LayerCount: 2
Fore
SplineSet
276 937 m 0
 331 937 370 898 370 847 c 0
 370 796 331 757 276 757 c 0
 221 757 183 796 183 847 c 0
 183 898 221 937 276 937 c 0
512 569 m 1
 211 131 l 1
 517 131 l 1
 501 0 l 1
 18 0 l 1
 18 123 l 1
 325 566 l 1
 49 566 l 1
 49 693 l 1
 512 693 l 1
 512 569 l 1
EndSplineSet
Substitution2: "'c2sc' Capitals to Small Capitals lookup 23 subtable" zdotaccent.sc
Substitution2: "'aalt' Access All Alternates lookup 0 subtable" zdotaccent.sc
Position2: "'cpsp' Capital Spacing lookup 0 subtable" dx=5 dy=0 dh=10 dv=0
EndChar

StartChar: zcaron
Encoding: 382 382 264
Width: 459
GlyphClass: 2
Flags: MW
HStem: 0 120<196 427> 412 119<34 254 34 436> 728 20G<43 43 422 422>
VStem: 13 428<0 120 112 120>
AnchorPoint: "Anchor-11" 0 0 basechar 0
AnchorPoint: "Anchor-10" 0 0 basechar 0
AnchorPoint: "Anchor-9" 233 531 basechar 0
AnchorPoint: "Anchor-8" 0 0 basechar 0
LayerCount: 2
Fore
SplineSet
422 748 m 1
 281 611 l 1
 185 611 l 1
 43 748 l 1
 100 813 l 1
 233 722 l 1
 366 813 l 1
 422 748 l 1
436 420 m 1
 196 120 l 1
 441 120 l 1
 427 0 l 1
 13 0 l 1
 13 112 l 1
 254 412 l 1
 34 412 l 1
 34 531 l 1
 436 531 l 1
 436 420 l 1
EndSplineSet
Substitution2: "'smcp' Lowercase to Small Capitals lookup 24 subtable" zcaron.sc
Substitution2: "'aalt' Access All Alternates lookup 0 subtable" zcaron.sc
EndChar
StartChar: uni0180
Encoding: 384 384 378
Width: 607
GlyphClass: 2
Flags: MW
HStem: -17 115<329 341 296.5 424.5> 0 98<72 341> 432 116<342.5 345> 596 92<9 72 9 72 230 361> 722 20G<72 72> 739 20G<230 230>
VStem: 72 158<149 370 477 596 688 742 742 742> 406 164<203 332.5>
AnchorPoint: "Anchor-14" 0 0 basechar 0
AnchorPoint: "Anchor-13" 0 0 basechar 0
AnchorPoint: "Anchor-12" 328 742 basechar 0
AnchorPoint: "Anchor-11" 0 0 basechar 0
AnchorPoint: "Anchor-10" 318 0 basechar 0
LayerCount: 2
Back
Fore
SplineSet
370 548 m 0xb7
 501 548 570 443 570 265 c 0
 570 101 491 -17 358 -17 c 0
 300 -17 252 8 219 50 c 1xb7
 212 0 l 1
 72 0 l 1
 72 596 l 1
 9 596 l 1
 9 688 l 1
 72 688 l 1
 72 742 l 1x7b
 230 759 l 1
 230 688 l 1
 361 688 l 1
 361 596 l 1
 230 596 l 1
 230 477 l 1
 261 521 315 548 370 548 c 0xb7
314 98 m 0
 368 98 406 141 406 265 c 0
 406 400 370 432 320 432 c 0
 283 432 253 409 230 370 c 1
 230 149 l 1
 250 117 279 98 314 98 c 0
EndSplineSet
Substitution2: "'smcp' Lowercase to Small Capitals lookup 27 subtable" uni0180.sc
Substitution2: "'aalt' Access All Alternates lookup 0 subtable" uni0180.sc
EndChar
StartChar: uni0182
Encoding: 386 386 42
Width: 596
GlyphClass: 2
Flags: MW
HStem: 0 119<229 292 292 306> 332 114<229 289 229 303> 569 124<229 480 229 229>
VStem: 65 164<119 332 446 569> 407 171<189.5 261.5>
LayerCount: 2
Back
Fore
SplineSet
303 446 m 2
 476 446 578 374 578 229 c 0
 578 73 464 0 306 0 c 2
 65 0 l 1
 65 693 l 1
 497 693 l 1
 480 569 l 1
 229 569 l 1
 229 446 l 1
 303 446 l 2
292 119 m 2
 365 119 407 152 407 227 c 0
 407 296 369 332 289 332 c 2
 229 332 l 1
 229 119 l 1
 292 119 l 2
EndSplineSet
Substitution2: "'c2sc' Capitals to Small Capitals lookup 26 subtable" uni0183.sc
Substitution2: "'aalt' Access All Alternates lookup 0 subtable" uni0183.sc
Position2: "'cpsp' Capital Spacing lookup 0 subtable" dx=5 dy=0 dh=10 dv=0
EndChar
StartChar: uni0183
Encoding: 387 387 379
Width: 597
GlyphClass: 2
Flags: MW
HStem: -17 115<319.5 331 286.5 415> 0 98<62 331> 420 116<332.5 335.5> 629 113<220 421 220 220>
VStem: 62 158<150 358 464 629> 396 164<200 323>
LayerCount: 2
Back
Fore
SplineSet
360 536 m 0xbc
 491 536 560 431 560 259 c 0
 560 101 481 -17 349 -17 c 0
 290 -17 242 8 210 51 c 1xbc
 202 0 l 1
 62 0 l 1x7c
 62 742 l 1
 438 742 l 1
 421 629 l 1
 220 629 l 1
 220 464 l 1
 251 508 305 536 360 536 c 0xbc
304 98 m 0
 358 98 396 141 396 259 c 0
 396 387 360 420 311 420 c 0
 273 420 243 397 220 358 c 1
 220 150 l 1
 240 117 269 98 304 98 c 0
EndSplineSet
Substitution2: "'smcp' Lowercase to Small Capitals lookup 27 subtable" uni0183.sc
Substitution2: "'aalt' Access All Alternates lookup 0 subtable" uni0183.sc
EndChar
StartChar: uni0184
Encoding: 388 388 259
Width: 615
GlyphClass: 2
Flags: MW
HStem: 0 119<250 314 314 328> 343 114<250 310 250 324> 522 20G<11 11> 673 20G<112 250 250 250>
VStem: 86 164<119 343 457 491 491 491> 428 172<192.5 270>
LayerCount: 2
Back
Fore
SplineSet
324 457 m 2
 497 457 600 385 600 235 c 0
 600 73 486 0 328 0 c 2
 86 0 l 1
 86 491 l 1
 11 542 l 1
 51 583 86 636 112 693 c 1
 250 693 l 1
 250 457 l 1
 324 457 l 2
314 119 m 2
 386 119 428 152 428 233 c 0
 428 307 391 343 310 343 c 2
 250 343 l 1
 250 119 l 1
 314 119 l 2
EndSplineSet
Substitution2: "'c2sc' Capitals to Small Capitals lookup 26 subtable" uni0185.sc
Substitution2: "'aalt' Access All Alternates lookup 0 subtable" uni0185.sc
Position2: "'cpsp' Capital Spacing lookup 0 subtable" dx=5 dy=0 dh=10 dv=0
EndChar
StartChar: uni0186
Encoding: 390 390 211
Width: 575
GlyphClass: 2
Flags: MW
HStem: -17 127<190.5 264.5 190.5 321.5> 589 121<205 273.5>
VStem: 370 172<264.5 433>
AnchorPoint: "Anchor-14" 213 351 basechar 0
AnchorPoint: "Anchor-13" 0 0 basechar 0
AnchorPoint: "Anchor-12" 244 693 basechar 0
AnchorPoint: "Anchor-11" 0 0 basechar 0
AnchorPoint: "Anchor-10" 244 0 basechar 0
LayerCount: 2
Back
Fore
SplineSet
242 710 m 0
 421 710 542 580 542 348 c 0
 542 111 415 -17 228 -17 c 0
 129 -17 56 26 8 72 c 1
 81 167 l 1
 122 136 161 110 220 110 c 0
 309 110 370 181 370 348 c 0
 370 518 315 589 232 589 c 0
 178 589 136 570 95 539 c 1
 16 634 l 1
 76 682 145 710 242 710 c 0
EndSplineSet
Substitution2: "'c2sc' Capitals to Small Capitals lookup 26 subtable" uni0254.sc
Substitution2: "'aalt' Access All Alternates lookup 0 subtable" uni0254.sc
Position2: "'cpsp' Capital Spacing lookup 0 subtable" dx=5 dy=0 dh=10 dv=0
EndChar
StartChar: uni0187
Encoding: 391 391 50
Width: 575
GlyphClass: 2
Flags: MW
HStem: -17 127<312 385.5 312 398> 589 121<311 347 250 382> 674 20G 735 116<594 620 535 624>
VStem: 33 172<264.5 433 264.5 464> 420 139
LayerCount: 2
Back
Fore
SplineSet
590 851 m 0xbc
 650 851 693 834 725 814 c 1
 679 716 l 1
 656 728 637 735 611 735 c 0
 577 735 559 716 559 673 c 2xdc
 559 634 l 1
 489 550 l 1
 449 574 409 589 355 589 c 0
 267 589 205 518 205 348 c 0
 205 181 266 110 358 110 c 0
 413 110 453 137 493 168 c 1
 567 72 l 1
 522 26 446 -17 350 -17 c 0
 160 -17 33 111 33 348 c 0
 33 580 171 710 329 710 c 0xcc
 365 710 395 705 420 694 c 1
 425 792 480 851 590 851 c 0xbc
EndSplineSet
Substitution2: "'c2sc' Capitals to Small Capitals lookup 26 subtable" uni0188.sc
Substitution2: "'aalt' Access All Alternates lookup 0 subtable" uni0188.sc
Position2: "'cpsp' Capital Spacing lookup 0 subtable" dx=5 dy=0 dh=10 dv=0
EndChar
StartChar: uni0188
Encoding: 392 392 388
Width: 479
GlyphClass: 2
Flags: MW
HStem: -17 125<271.5 322 271.5 331.5> 427 121<272 284.5 203.5 329.5> 520 20G<334 334> 642 117<508 534 447.5 538>
VStem: 32 166<203 321.5 203 345.5> 334 140<540 581>
LayerCount: 2
Back
Fore
SplineSet
504 759 m 0xdc
 564 759 608 741 639 721 c 1
 593 623 l 1
 570 635 551 642 525 642 c 0
 491 642 474 624 474 581 c 2
 474 483 l 1
 415 401 l 1
 384 417 352 427 307 427 c 0
 237 427 198 381 198 262 c 0
 198 144 240 108 303 108 c 0
 341 108 367 120 402 147 c 1
 474 46 l 1
 425 7 368 -17 295 -17 c 0
 132 -17 32 93 32 261 c 0
 32 430 134 548 273 548 c 0xdc
 296 548 316 545 334 540 c 1xbc
 334 588 l 2
 334 696 391 759 504 759 c 0xdc
EndSplineSet
Substitution2: "'smcp' Lowercase to Small Capitals lookup 27 subtable" uni0188.sc
Substitution2: "'aalt' Access All Alternates lookup 0 subtable" uni0188.sc
EndChar
StartChar: uni0189
Encoding: 393 393 55
Width: 665
GlyphClass: 2
Flags: MW
HStem: 0 119<243 287> 304 98<14 79 14 79 243 377> 574 119<243 272 272 295 243 243>
VStem: 79 164<119 304 119 304 119 304 402 574> 462 170<258 443>
AnchorPoint: "Anchor-14" 340 347 basechar 0
AnchorPoint: "Anchor-13" 0 0 basechar 0
AnchorPoint: "Anchor-12" 309 693 basechar 0
AnchorPoint: "Anchor-11" 0 0 basechar 0
AnchorPoint: "Anchor-10" 320 0 basechar 0
LayerCount: 2
Back
Fore
SplineSet
272 693 m 2
 457 693 632 636 632 350 c 0
 632 71 464 0 287 0 c 2
 79 0 l 1
 79 304 l 1
 14 304 l 1
 14 402 l 1
 79 402 l 1
 79 693 l 1
 272 693 l 2
297 119 m 2
 396 119 462 166 462 350 c 0
 462 536 391 574 295 574 c 2
 243 574 l 1
 243 402 l 1
 377 402 l 1
 377 304 l 1
 243 304 l 1
 243 119 l 1
 297 119 l 2
EndSplineSet
Substitution2: "'c2sc' Capitals to Small Capitals lookup 26 subtable" uni0189.sc
Substitution2: "'aalt' Access All Alternates lookup 0 subtable" uni0189.sc
Position2: "'cpsp' Capital Spacing lookup 0 subtable" dx=5 dy=0 dh=10 dv=0
EndChar
StartChar: uni018A
Encoding: 394 394 62
Width: 793
GlyphClass: 2
Flags: MW
HStem: 0 119<370 415> 574 119<370 399 399 423 370 370>
VStem: 4 128<523 547.5 523 590> 206 164<119 574 119 576 119 576> 590 170<258 443>
AnchorPoint: "Anchor-14" 468 347 basechar 0
AnchorPoint: "Anchor-13" 0 0 basechar 0
AnchorPoint: "Anchor-12" 437 693 basechar 0
AnchorPoint: "Anchor-11" 0 0 basechar 0
AnchorPoint: "Anchor-10" 448 0 basechar 0
LayerCount: 2
Back
Fore
SplineSet
399 693 m 2
 585 693 760 636 760 350 c 0
 760 71 592 0 415 0 c 2
 206 0 l 1
 206 576 l 1
 178 576 l 2
 148 576 132 561 132 534 c 0
 132 512 139 492 149 469 c 1
 48 424 l 1
 25 458 4 497 4 544 c 0
 4 636 75 693 187 693 c 2
 207 693 l 1
 399 693 l 2
425 119 m 2
 523 119 590 166 590 350 c 0
 590 536 519 574 423 574 c 2
 370 574 l 1
 370 119 l 1
 425 119 l 2
EndSplineSet
Substitution2: "'c2sc' Capitals to Small Capitals lookup 26 subtable" uni0257.sc
Substitution2: "'aalt' Access All Alternates lookup 0 subtable" uni0257.sc
Position2: "'cpsp' Capital Spacing lookup 0 subtable" dx=5 dy=0 dh=10 dv=0
EndChar
StartChar: uni018C
Encoding: 396 396 405
Width: 600
GlyphClass: 2
Flags: MW
HStem: -17 116<263 275> 0 21G<398 538 398 398> 421 115<269.5 281 188.5 315> 629 113<171 380 171 538>
VStem: 37 164<197 316.5 197 339> 380 158<158 376 376 376 485 629 629 629>
LayerCount: 2
Back
Fore
SplineSet
538 742 m 1x7c
 538 0 l 1
 398 0 l 1x7c
 390 62 l 1
 360 18 311 -17 239 -17 c 0xbc
 104 -17 37 95 37 260 c 0
 37 418 120 536 257 536 c 0
 305 536 348 516 380 485 c 1
 380 629 l 1
 171 629 l 1
 171 742 l 1
 538 742 l 1x7c
289 99 m 0xbc
 326 99 355 119 380 158 c 1
 380 376 l 1
 356 404 332 421 298 421 c 0
 241 421 201 373 201 260 c 0
 201 134 237 99 289 99 c 0xbc
EndSplineSet
Substitution2: "'smcp' Lowercase to Small Capitals lookup 27 subtable" uni018C.sc
Substitution2: "'aalt' Access All Alternates lookup 0 subtable" uni018C.sc
EndChar
StartChar: uni018D
Encoding: 397 397 400
Width: 577
GlyphClass: 2
Flags: MW
HStem: -222 110<284.5 332 284.5 341> 432 116<256 318.5>
VStem: 32 163<244.5 334.5 244.5 371> 86 152<-78.5 -51.5 -78.5 -44> 381 164<235 334.5>
LayerCount: 2
Back
Fore
SplineSet
311 -112 m 0xd8
 353 -112 385 -99 420 -77 c 1
 492 -161 l 1
 447 -195 384 -222 298 -222 c 0
 151 -222 86 -150 86 -70 c 0xd8
 86 -18 103 24 185 69 c 1
 86 115 32 189 32 290 c 0xe8
 32 452 130 548 288 548 c 0
 446 548 545 442 545 283 c 0
 545 140 479 70 338 13 c 0
 250 -23 238 -37 238 -66 c 0
 238 -91 258 -112 311 -112 c 0xd8
288 432 m 0xe8
 224 432 195 385 195 284 c 0
 195 205 212 153 267 108 c 1
 362 152 381 187 381 283 c 0
 381 386 349 432 288 432 c 0xe8
EndSplineSet
EndChar
StartChar: uni018E
Encoding: 398 398 88
Width: 523
GlyphClass: 2
Flags: MW
HStem: 0 118<33 294 33 458 33 294> 295 115<81 294 81 294> 576 117<38 294 38 458>
VStem: 294 164<118 295 295 295 410 576 576 576>
LayerCount: 2
Back
Fore
SplineSet
38 693 m 1
 458 693 l 1
 458 0 l 1
 33 0 l 1
 33 118 l 1
 294 118 l 1
 294 295 l 1
 81 295 l 1
 81 410 l 1
 294 410 l 1
 294 576 l 1
 38 576 l 1
 38 693 l 1
EndSplineSet
Substitution2: "'c2sc' Capitals to Small Capitals lookup 26 subtable" uni0258.sc
Substitution2: "'aalt' Access All Alternates lookup 0 subtable" uni0258.sc
Position2: "'cpsp' Capital Spacing lookup 0 subtable" dx=5 dy=0 dh=10 dv=0
EndChar
StartChar: uni018F
Encoding: 399 399 246
Width: 640
GlyphClass: 2
Flags: MW
HStem: -17 120<272 350 272 401.5> 292 113<181 440 181 181> 590 120<259.5 338.5>
VStem: 23 158<292 292 292 349> 440 166<292 292 405 405>
AnchorPoint: "Anchor-14" 0 0 basechar 0
AnchorPoint: "Anchor-13" 0 0 basechar 0
AnchorPoint: "Anchor-12" 309 693 basechar 0
AnchorPoint: "Anchor-11" 0 0 basechar 0
AnchorPoint: "Anchor-10" 0 0 basechar 0
LayerCount: 2
Back
Fore
SplineSet
309 710 m 0
 496 710 606 590 606 352 c 0
 606 107 491 -17 312 -17 c 0
 113 -17 23 121 23 338 c 0
 23 360 25 385 29 405 c 1
 440 405 l 1
 435 535 383 590 294 590 c 0
 225 590 178 564 136 533 c 1
 62 622 l 1
 130 680 207 710 309 710 c 0
311 103 m 0
 389 103 435 153 440 292 c 1
 181 292 l 1
 182 154 233 103 311 103 c 0
EndSplineSet
Substitution2: "'c2sc' Capitals to Small Capitals lookup 26 subtable" uni0259.sc
Substitution2: "'aalt' Access All Alternates lookup 0 subtable" uni0259.sc
Position2: "'cpsp' Capital Spacing lookup 0 subtable" dx=5 dy=0 dh=10 dv=0
EndChar
StartChar: uni0190
Encoding: 400 400 87
Width: 541
GlyphClass: 2
Flags: MW
HStem: -17 121<278.5 343 278.5 352> 306 118<319 322 322 375> 591 119<275.5 333.5>
VStem: 26 172<172.5 236.5 172.5 247> 47 169<488.5 532.5 483 580.5>
AnchorPoint: "Anchor-14" 0 0 basechar 0
AnchorPoint: "Anchor-13" 0 0 basechar 0
AnchorPoint: "Anchor-12" 271 693 basechar 0
AnchorPoint: "Anchor-11" 0 0 basechar 0
AnchorPoint: "Anchor-10" 271 0 basechar 0
LayerCount: 2
Back
Fore
SplineSet
291 710 m 0xf0
 386 710 459 679 523 618 c 1
 444 535 l 1
 401 573 357 591 310 591 c 0
 241 591 216 555 216 510 c 0xe8
 216 456 253 424 319 424 c 2
 395 424 l 1
 375 306 l 1
 322 306 l 2
 238 306 198 268 198 205 c 0
 198 140 242 104 315 104 c 0
 371 104 413 125 456 166 c 1
 543 80 l 1
 485 18 405 -17 299 -17 c 0
 140 -17 26 66 26 195 c 0xf0
 26 299 95 356 202 368 c 1
 98 389 47 449 47 528 c 0xe8
 47 633 143 710 291 710 c 0xf0
EndSplineSet
Substitution2: "'c2sc' Capitals to Small Capitals lookup 26 subtable" uni025B.sc
Substitution2: "'aalt' Access All Alternates lookup 0 subtable" uni025B.sc
Position2: "'cpsp' Capital Spacing lookup 0 subtable" dx=5 dy=0 dh=10 dv=0
EndChar
StartChar: uni0191
Encoding: 401 401 97
Width: 487
GlyphClass: 2
Flags: MW
HStem: -222 119<-4 28 -4 88.5> 275 117<229 431 229 431> 576 117<229 461 229 229>
VStem: 65 164<-42 -31 -31 275 392 576>
AnchorPoint: "Anchor-14" 0 0 basechar 0
AnchorPoint: "Anchor-13" 0 0 basechar 0
AnchorPoint: "Anchor-12" 281 693 basechar 0
AnchorPoint: "Anchor-11" 0 0 basechar 0
AnchorPoint: "Anchor-10" 0 0 basechar 0
LayerCount: 2
Back
Fore
SplineSet
461 576 m 1
 229 576 l 1
 229 392 l 1
 431 392 l 1
 431 275 l 1
 229 275 l 1
 229 -31 l 2
 229 -159 149 -222 28 -222 c 0
 -37 -222 -81 -203 -113 -179 c 1
 -60 -82 l 1
 -36 -94 -19 -103 11 -103 c 0
 45 -103 65 -83 65 -42 c 2
 65 693 l 1
 478 693 l 1
 461 576 l 1
EndSplineSet
Substitution2: "'c2sc' Capitals to Small Capitals lookup 26 subtable" uni0191.sc
Substitution2: "'aalt' Access All Alternates lookup 0 subtable" uni0191.sc
Position2: "'cpsp' Capital Spacing lookup 0 subtable" dx=5 dy=0 dh=10 dv=0
EndChar

StartChar: florin
Encoding: 402 402 1064
Width: 335
Flags: MW
HStem: -221 21G<6 6> 421 110<-20 61 -20 61 219 327> 642 117<262 294.5 196.5 302>
VStem: 61 158<50 60 60 421 531 572>
LayerCount: 2
Fore
SplineSet
289 642 m 0
 235 642 219 622 219 572 c 2
 219 531 l 1
 345 531 l 1
 327 421 l 1
 219 421 l 1
 219 60 l 2
 219 -113 130 -176 6 -221 c 1
 -47 -106 l 1
 21 -75 61 -47 61 50 c 2
 61 421 l 1
 -20 421 l 1
 -20 531 l 1
 61 531 l 1
 61 578 l 2
 61 680 129 759 264 759 c 0
 325 759 377 745 419 725 c 1
 376 622 l 1
 342 637 315 642 289 642 c 0
EndSplineSet
EndChar
StartChar: uni0194
Encoding: 404 404 100
Width: 570
GlyphClass: 2
Flags: MW
HStem: -222 103<278 296.5 278 341> 673 20G<-13 160 160 160 415 583 583 583>
VStem: 136 122<-97.5 -74.5 -97.5 -70> 316 122<-97 -73.5>
LayerCount: 2
Back
Fore
SplineSet
583 693 m 1
 372 92 l 1
 416 19 438 -35 438 -97 c 0
 438 -171 395 -222 287 -222 c 0
 182 -222 136 -172 136 -98 c 0
 136 -42 157 9 204 92 c 1
 -13 693 l 1
 160 693 l 1
 288 199 l 1
 415 693 l 1
 583 693 l 1
316 -87 m 0
 316 -60 304 -32 287 6 c 1
 270 -31 258 -62 258 -87 c 0
 258 -108 269 -119 287 -119 c 0
 306 -119 316 -107 316 -87 c 0
EndSplineSet
Substitution2: "'c2sc' Capitals to Small Capitals lookup 26 subtable" uni0194.sc
Substitution2: "'aalt' Access All Alternates lookup 0 subtable" uni0194.sc
Position2: "'cpsp' Capital Spacing lookup 0 subtable" dx=5 dy=0 dh=10 dv=0
EndChar
StartChar: uni0195
Encoding: 405 405 477
Width: 870
GlyphClass: 2
Flags: MW
HStem: -17 116<561.5 602 561.5 632.5> 0 21G<62 220 62 62> 432 116<294.5 419> 511 20G<643 799 799 799> 722 20G<62 62> 738 20G<220 220>
VStem: 62 158<0 364 0 475 475 742 742 742> 362 158<180 183 183 361 361 388> 670 158<199.5 302>
LayerCount: 2
Back
Fore
SplineSet
799 531 m 1x9780
 814 450 828 359 828 248 c 0
 828 59 696 -17 569 -17 c 0x9780
 458 -17 362 42 362 180 c 2
 362 361 l 2
 362 417 342 432 312 432 c 0
 277 432 248 407 220 364 c 1
 220 0 l 1
 62 0 l 1
 62 742 l 1x6b80
 220 758 l 1
 220 475 l 1
 263 523 311 548 373 548 c 0xa780
 465 548 520 489 520 388 c 2
 520 183 l 2
 520 122 543 99 580 99 c 0
 624 99 670 138 670 261 c 0
 670 343 660 438 643 531 c 1
 799 531 l 1x9780
EndSplineSet
EndChar
